<?xml version="1.0" standalone="no"?>
<!DOCTYPE svg PUBLIC "-//W3C//DTD SVG 1.1//EN" "http://www.w3.org/Graphics/SVG/1.1/DTD/svg11.dtd" >
<!--
2013-9-30: Created.
-->
<svg>
<metadata>
Created by iconfont
</metadata>
<defs>

<font id="cjmIconFont" horiz-adv-x="1024" >
  <font-face
    font-family="cjmIconFont"
    font-weight="500"
    font-stretch="normal"
    units-per-em="1024"
    ascent="896"
    descent="-128"
  />
    <missing-glyph />
    
    <glyph glyph-name="x" unicode="x" horiz-adv-x="1001"
d="M281 543q-27 -1 -53 -1h-83q-18 0 -36.5 -6t-32.5 -18.5t-23 -32t-9 -45.5v-76h912v41q0 16 -0.5 30t-0.5 18q0 13 -5 29t-17 29.5t-31.5 22.5t-49.5 9h-133v-97h-438v97zM955 310v-52q0 -23 0.5 -52t0.5 -58t-10.5 -47.5t-26 -30t-33 -16t-31.5 -4.5q-14 -1 -29.5 -0.5
t-29.5 0.5h-32l-45 128h-439l-44 -128h-29h-34q-20 0 -45 1q-25 0 -41 9.5t-25.5 23t-13.5 29.5t-4 30v167h911zM163 247q-12 0 -21 -8.5t-9 -21.5t9 -21.5t21 -8.5q13 0 22 8.5t9 21.5t-9 21.5t-22 8.5zM316 123q-8 -26 -14 -48q-5 -19 -10.5 -37t-7.5 -25t-3 -15t1 -14.5
t9.5 -10.5t21.5 -4h37h67h81h80h64h36q23 0 34 12t2 38q-5 13 -9.5 30.5t-9.5 34.5q-5 19 -11 39h-368zM336 498v228q0 11 2.5 23t10 21.5t20.5 15.5t34 6h188q31 0 51.5 -14.5t20.5 -52.5v-227h-327z" />
    

    
    <glyph glyph-name="home" unicode="&#58897;" d="M964.937 302.277l-452.589 351.307-452.589-351.307v143.23l452.589 351.308 452.589-351.308v-143.23zM851.788 315.049v-339.441h-226.293v226.294h-226.293v-226.293h-226.294v339.44l339.441 254.581 339.44-254.581z"  horiz-adv-x="1024" />

    
    <glyph glyph-name="caret-down" unicode="&#58955;" d="M85.249 1126.431v0 0zM940.413 538.497q0-21.724-15.878-37.578l-374.139-374.139q-15.878-15.878-37.578-15.878t-37.578 15.878l-374.139 374.139q-15.878 15.878-15.878 37.578t15.878 37.578 37.578 15.878h748.277q21.724 0 37.578-15.878t15.878-37.578z"  horiz-adv-x="1024" />

    
    <glyph glyph-name="question" unicode="&#59045;" d="M511.932 777.353c216.859 0 393.285-176.38 393.285-393.182 0-52.986-10.405-104.409-30.928-152.844-19.839-46.824-48.244-88.917-84.425-125.105-36.18-36.19-78.265-64.603-125.083-84.448-48.432-20.529-99.859-30.939-152.849-30.939-52.991 0-104.417 10.41-152.85 30.939-46.819 19.846-88.901 48.258-125.083 84.448-36.179 36.188-64.583 78.278-84.425 125.105-20.523 48.435-30.928 99.86-30.928 152.844-0.002 216.801 176.425 393.182 393.283 393.182M511.932 834c-248.073 0-449.932-201.757-449.932-449.829 0-248.023 201.859-449.984 449.932-449.984 248.073 0 449.933 201.961 449.933 449.984-0.001 248.073-201.86 449.829-449.933 449.829v0zM541.982 135.801h-66.252v69.671h66.252v-69.671zM650.247 448.971c-7.066-14.804-22.094-33.247-45.080-55.325-23.002-22.095-38.254-37.801-45.764-47.13-7.514-9.343-13.215-20.495-17.077-33.47-3.877-12.977-5.581-30.396-5.123-52.251h-60.107c0 25.493 2.046 45.868 6.148 61.131 4.095 15.247 10.245 28.57 18.441 39.958 8.198 11.375 22.987 28.108 44.4 50.203 21.396 22.079 35.173 38.129 41.323 48.156 6.15 10.010 9.217 24.929 9.217 44.737 0 19.807-7.066 37.331-21.172 52.593-14.122 15.248-34.612 22.882-61.475 22.882-60.56 0-90.844-35.977-90.844-107.92h-60.101c0.906 32.788 4.778 57.717 11.61 74.794 6.827 17.072 17.757 32.323 32.786 45.763 15.023 13.424 31.762 23.331 50.203 29.707 18.443 6.373 37.904 9.563 58.394 9.563 41.432 0 75.923-12.184 103.478-36.54 27.546-24.366 41.323-56.811 41.323-97.33 0-18.218-3.533-34.728-10.582-49.521v0z"  horiz-adv-x="1025" />

    
    <glyph glyph-name="circle" unicode="&#58885;" d="M819.665707 607.667242c-78.738295 78.738295-187.515744 127.439484-307.667242 127.439484-120.151497 0-228.9269-48.701189-307.666218-127.439484C125.593951 528.927923 76.893786 420.151497 76.893786 300S125.593951 71.072077 204.332247-7.666218c78.738295-78.738295 187.514721-127.439484 307.666218-127.439484 120.151497 0 228.928946 48.701189 307.667242 127.439484s127.439484 187.514721 127.439484 307.666218S898.404002 528.927923 819.665707 607.667242z"  horiz-adv-x="1024" />

    
    <glyph glyph-name="temperature" unicode="&#58921;" d="M631.505639 357.55557999999996l0 43.302097 30.35631 0c14.135428 0 25.594676 11.459248 25.594676 25.594676s-11.459248 25.594676-25.594676 25.594676l-30.35631 0 0 59.149297 30.35631 0c14.135428 0 25.594676 11.459248 25.594676 25.594676s-11.459248 25.594676-25.594676 25.594676l-30.35631 0 0 59.149297 30.35631 0c14.135428 0 25.594676 11.459248 25.594676 25.594676s-11.459248 25.594676-25.594676 25.594676l-30.35631 0 0 33.88428c0 65.775247-53.512325 119.287572-119.287572 119.287572s-119.288596-53.512325-119.288596-119.287572l0-349.054053c-65.48142-40.982196-105.552445-112.659575-105.552445-190.613792 0-60.057396 23.387391-116.519252 65.853055-158.985939 42.466687-42.466687 98.929567-65.854078 158.986963-65.854078 60.056372 0 116.519252 23.387391 158.985939 65.854078s65.854078 98.928543 65.854078 158.985939C737.059108 244.89600600000006 696.988082 316.57338500000003 631.505639 357.55557999999996zM512.21909-6.707853c-95.750708 0-173.650665 77.898933-173.650665 173.650665 0 64.256971 35.257179 122.995729 92.010814 153.293683 8.335674 4.450402 13.541631 13.130069 13.541631 22.5786l0 363.794539c0 37.549438 30.548782 68.09822 68.099243 68.09822 37.549438 0 68.09822-30.548782 68.09822-68.09822l0-363.794539c0-9.448531 5.205957-18.129221 13.541631-22.5786 56.755683-30.297954 92.011838-89.036712 92.011838-153.293683C685.869755 71.19108000000006 607.969798-6.707853 512.21909-6.707853zM526.871531 278.36565199999995l0 430.962136c0 14.135428-11.458225 25.594676-25.594676 25.594676s-25.594676-11.459248-25.594676-25.594676l0-433.259514c0-0.867148 0.044023-1.724057 0.127973-2.569706-47.035849-15.362949-81.11772-59.64481-81.11772-111.745333 0-64.803673 52.721962-117.524611 117.525635-117.524611s117.524611 52.721962 117.524611 117.524611C629.743701 221.59461199999998 584.785117 271.130549 526.871531 278.36565199999995zM512.21909 74.94121199999995c-47.868187 0-86.812023 38.943836-86.812023 86.810999s38.943836 86.810999 86.812023 86.810999 86.810999-38.943836 86.810999-86.810999S560.087278 74.94121199999995 512.21909 74.94121199999995z"  horiz-adv-x="1025" />

    
    <glyph glyph-name="frost" unicode="&#59012;" d="M897.5 257.70000000000005c-4.2 7.3-13.6 9.9-21 5.6l-44.2-25.5L832.3 282c0 5.1-4.1 9.2-9.2 9.2s-9.2-4.1-9.2-9.2l0-54.8-93.6-54L720.3 281.20000000000005l47.5 27.4c4.4 2.5 5.9 8.2 3.4 12.6-2.5 4.4-8.2 5.9-12.6 3.4l-38.2-22.1 0 51c0 8.5-6.9 15.4-15.4 15.4-8.5 0-15.4-6.9-15.4-15.4l0-51-38.2 22.1c-4.4 2.5-10 1-12.6-3.4-2.5-4.4-1-10 3.4-12.6l47.5-27.4 0-108.1-93.6 54L596.1 282c0 5.1-4.1 9.2-9.2 9.2-5.1 0-9.2-4.1-9.2-9.2l0-44.2-44.2 25.5c-7.3 4.2-16.7 1.7-21-5.6-4.2-7.3-1.7-16.7 5.6-21l44.2-25.5L524 189.10000000000002c-4.4-2.5-5.9-8.2-3.4-12.6 1.7-3 4.8-4.6 8-4.6 1.6 0 3.1 0.4 4.6 1.2l47.5 27.4 93.6-54-93.6-54-47.5 27.4c-4.4 2.5-10 1-12.6-3.4-2.5-4.4-1-10 3.4-12.6l38.2-22.1-44.2-25.5c-7.3-4.2-9.9-13.6-5.6-21 2.8-4.9 8-7.7 13.3-7.7 2.6 0 5.2 0.7 7.7 2.1l44.2 25.5 0-44.2c0-5.1 4.1-9.2 9.2-9.2s9.2 4.1 9.2 9.2l0 54.8 93.6 54 0-108.1-47.5-27.4c-4.4-2.5-5.9-8.2-3.4-12.6 1.7-3 4.8-4.6 8-4.6 1.6 0 3.1 0.4 4.6 1.2l38.2 22.1 0-51c0-8.5 6.9-15.4 15.4-15.4 8.5 0 15.4 6.9 15.4 15.4l0 51 38.2-22.1c1.5-0.8 3-1.2 4.6-1.2 3.2 0 6.3 1.7 8 4.6 2.5 4.4 1 10-3.4 12.6l-47.5 27.4L720.2 120l93.6-54 0-54.8c0-5.1 4.1-9.2 9.2-9.2 5.1 0 9.2 4.1 9.2 9.2l0 44.2 44.2-25.5c2.4-1.4 5.1-2.1 7.7-2.1 5.3 0 10.5 2.8 13.3 7.7 4.2 7.3 1.7 16.7-5.6 21l-44.2 25.5L886 104c4.4 2.5 5.9 8.2 3.4 12.6-2.5 4.4-8.2 5.9-12.6 3.4l-47.5-27.4-93.6 54 93.6 54 47.5-27.4c1.5-0.8 3-1.2 4.6-1.2 3.2 0 6.3 1.7 8 4.6 2.5 4.4 1 10-3.4 12.6l-38.2 22.1 44.2 25.5C899.3 241 901.8 250.39999999999998 897.5 257.70000000000005zM536.6-9c-8.2-0.6-16.4-0.9-24.8-0.9-175.8 0-318.7 135.9-318.7 302.8 0 131.1 214 369.6 318.7 473.1 96.7-95.6 286.5-306.2 315.1-441.2l57.5 0c-4.1 24-12.4 49.5-23.8 75.9C780 586.5 543.9 812.2 531.9 823.6c-11.1 10.5-29 10.5-40.1 0-14.5-13.8-355.4-339.6-355.4-530.7 0-196.7 168.4-356.7 375.4-356.7 8.3 0 16.6 0.3 24.8 0.8L536.6-9z"  horiz-adv-x="1024" />

    
    <glyph glyph-name="pdf" unicode="&#59200;" d="M905.185809 717.155842C898.576738 723.314515 891.19337 730.175588 883.21687 737.563873 860.422682 758.677137 837.434925 779.792209 815.697647 799.512105 813.243072 801.738123 813.243072 801.738123 810.786411 803.962919 781.783552 830.218938 757.590948 851.623498 739.713617 866.706388 729.254178 875.530889 721.020606 882.139314 714.970549 886.498273 710.955023 889.391389 707.690543 891.475255 704.47155 893.001286 700.417679 894.92311 696.638044 896.094029 691.307277 895.994072 677.045677 895.726651 665.6 884.230663 665.6 869.817273L665.6 818.647156 665.6 767.477039 665.6 665.136806 665.6 639.551748 691.2 639.551748 896 639.551748 870.4 665.136806 870.4-102.414942 896-76.829884 230.381436-76.829884C187.90385-76.829884 153.6-42.623723 153.6-0.20663L153.6 869.817273 128 844.232214 588.8 844.232214C602.93849 844.232214 614.4 855.687035 614.4 869.817273 614.4 883.94751 602.93849 895.402331 588.8 895.402331L128 895.402331 102.4 895.402331 102.4 869.817273 102.4-0.20663C102.4-70.91021 159.652833-128 230.381436-128L896-128 921.6-128 921.6-102.414942 921.6 665.136806 921.6 690.721865 896 690.721865 691.2 690.721865 716.8 665.136806 716.8 767.477039 716.8 818.647156 716.8 869.817273C716.8 856.186238 705.748075 845.08573 692.267725 844.832959 687.705707 844.747416 685.069822 845.564005 682.52845 846.768796 682.259458 846.896318 683.344977 846.203382 685.029451 844.989748 689.779394 841.567498 697.145822 835.65506 706.686383 827.605804 724.009052 812.990879 747.816448 791.927131 776.413589 766.038406 778.850014 763.831936 778.850014 763.831936 781.285216 761.623486 802.876774 742.035788 825.739479 721.03558 848.413564 700.033563 856.350957 692.6815 863.697005 685.855107 870.269888 679.730157 874.209847 676.058701 877.019309 673.434359 878.499674 672.048591 888.81866 662.389069 905.019017 662.918788 914.684179 673.231753 924.349344 683.544717 923.819315 699.735617 913.500326 709.395139 911.981323 710.817055 909.155025 713.457124 905.185809 717.155842ZM102.4 434.871281 0 434.871281 0-0.074709 512-0.074709 1024-0.074709 1024 434.871281 153.6 434.871281 153.6 435.468951 102.4 435.468951 102.4 434.871281ZM208.2 185 208.2 76.8 157.6 76.8 157.6 368 269 368C301.533495 368 327.366571 359.533419 346.5 342.6 365.633429 325.666581 375.2 303.266805 375.2 275.4 375.2 246.866524 365.833427 224.666746 347.1 208.8 328.366573 192.933254 302.133502 185 268.4 185L208.2 185ZM208.2 225.6 269 225.6C287.00009 225.6 300.733286 229.833291 310.2 238.3 319.666714 246.766709 324.4 258.999921 324.4 275 324.4 290.733412 319.600047 303.299953 310 312.7 300.399951 322.100047 287.200083 326.933331 270.4 327.2L208.2 327.2 208.2 225.6ZM419.4 76.8 419.4 368 505.4 368C531.133461 368 553.966566 362.266724 573.9 350.8 593.833434 339.333276 609.266611 323.066771 620.2 302 631.133389 280.933229 636.6 256.800137 636.6 229.6L636.6 215C636.6 187.399861 631.100055 163.133438 620.1 142.2 609.099945 121.266562 593.433436 105.133391 573.1 93.8 552.766564 82.466609 529.466799 76.8 503.2 76.8L419.4 76.8ZM470 327.2 470 117.2 503 117.2C529.533466 117.2 549.89993 125.499917 564.1 142.1 578.30007 158.700083 585.533331 182.533178 585.8 213.6L585.8 229.8C585.8 261.400158 578.933402 285.53325 565.2 302.2 551.466598 318.86675 531.533463 327.2 505.4 327.2L470 327.2ZM854.8 200.2 737.6 200.2 737.6 76.8 687 76.8 687 368 872 368 872 327.2 737.6 327.2 737.6 240.6 854.8 240.6 854.8 200.2Z"  horiz-adv-x="1024" />

    
    <glyph glyph-name="rainfall" unicode="&#58942;" d="M911.715681 473.037872c-23.645536 24.137747-53.482075 40.252773-85.995583 46.814212-5.248537 58.427714-30.547737 112.667036-72.556503 154.649196-47.436382 47.406706-110.49865 73.514317-177.570231 73.514317-92.866061 0-176.88257-51.066049-220.36285-130.573871-17.162892 9.298783-36.559661 14.307867-56.676837 14.307867-64.686255 0-117.484761-51.871391-118.979812-116.207675-28.116361-9.203616-53.499471-25.844621-73.331145-48.406476-26.716478-30.394241-41.430598-69.440535-41.430598-109.945041 0-91.864244 74.79959-166.602436 166.739559-166.602436l561.558719 0c43.845601 0 85.34783 17.242709 116.862591 48.550763 31.736818 31.530111 49.214888 73.320912 49.214888 117.678166C959.187879 400.516162 942.328909 441.790194 911.715681 473.037872zM866.700441 282.69882600000005c-19.934005-19.804045-46.069245-30.710442-73.590042-30.710442L231.55168 251.988384c-58.08593 0-105.341187 47.193859-105.341187 105.204064 0 52.315506 38.998199 97.112782 90.712001 104.202247 8.607028 1.179872 16.310477 5.951549 21.201881 13.131065s6.511297 16.095583 4.458545 24.536836c-1.090844 4.486174-1.64343 9.085936-1.64343 13.672394 0 31.770588 25.845645 57.617256 57.613162 57.617256 17.407462 0 33.703613-7.750521 44.710294-21.263279 7.040347-8.643867 18.21178-12.791327 29.191856-10.834766 10.975982 1.957585 20.028149 9.712199 23.647583 20.25737 26.295899 76.625168 98.42773 128.10668 179.489954 128.10668 104.628966 0 189.751668-85.075631 189.751668-189.648314 0-0.933255 0.020466-1.843998 0.044002-2.750647 0.010233-0.385786 0.028653-0.769526 0.022513-1.158383-0.350994-16.877389 12.990872-30.871101 29.866215-31.325449 27.526937-0.740874 53.302997-11.985986 72.581062-31.66314 19.301602-19.702738 29.931706-45.717228 29.931706-73.251328C897.789507 328.93896299999994 886.749056 302.61645799999997 866.700441 282.69882600000005zM634.583896 149.79591000000005l-77.405951-77.404927c-11.989055-11.988032-11.989055-31.425733 0-43.414789 5.994528-5.994528 13.849426-8.991792 21.707394-8.991792 7.855922 0 15.712867 2.998287 21.707394 8.991792l77.405951 77.404927c11.989055 11.988032 11.989055 31.425733 0 43.414789C666.009629 161.78394200000002 646.572952 161.78598899999997 634.583896 149.79591000000005zM543.571043 164.00451699999996c-11.988032 11.988032-31.426757 11.990079-43.414789 0l-91.613534-91.612511c-11.988032-11.989055-11.989055-31.425733 0-43.414789 5.995551-5.994528 13.850449-8.991792 21.707394-8.991792 7.855922 0 15.71389 2.998287 21.707394 8.991792l91.612511 91.612511C555.560098 132.57776 555.560098 152.01546199999996 543.571043 164.00451699999996zM394.936841 149.79591000000005c-11.989055 11.988032-31.426757 11.990079-43.414789 0l-77.404927-77.404927c-11.989055-11.988032-11.989055-31.425733 0-43.414789 5.995551-5.994528 13.850449-8.991792 21.707394-8.991792 7.855922 0 15.71389 2.998287 21.707394 8.991792l77.404927 77.404927C406.925896 118.36915399999998 406.925896 137.80685500000004 394.936841 149.79591000000005z"  horiz-adv-x="1024" />

    
    <glyph glyph-name="time" unicode="&#58989;" d="M512-64C264.96-64 64 136.96000000000004 64 384S264.96 832 512 832s448-200.96 448-448-200.96-448-448-448z m0 831.712c-211.584 0-383.712-172.128-383.712-383.712 0-211.544 172.128-383.712 383.712-383.712 211.544 0 383.72 172.16 383.72 383.712 0 211.584-172.176 383.712-383.72 383.712zM543 380.89599999999996c0-15.408-13.88-27.896-31-27.896-17.12 0-31 12.496-31 27.896v241.2c0 15.4 13.88 27.896 31 27.896 17.12 0 31-12.496 31-27.896v-241.2zM511.8 353a30.992 30.992 0 1 0 0 62H694.8a31 31 0 0 0 0-62H511.8z"  horiz-adv-x="1024" />

    
    <glyph glyph-name="computer" unicode="&#59399;" d="M916.931 760.238h-804.168c-28.508 0-51.323-17.224-51.323-45.947v-516.977c0-22.979 22.815-45.957 45.629-45.957h322.365l-8.694-91.904h-62.73c-22.815 0-39.936-28.713-39.936-51.692h382.136c5.693 17.224-11.407 51.692-34.222 51.692h-62.751l-8.684 91.904h322.365c22.815 0 45.629 22.979 45.629 45.957v516.977c0 28.713-22.815 45.947-45.629 45.947zM911.227 283.474h-792.75v425.062h792.75v-425.062zM335.196 559.206c14.232 0.080 27.091 5.892 36.398 15.243 9.173 9.341 14.905 22.282 14.935 36.562 0 13.434-5.53 26.879-15.033 36.454-9.334 9.32-22.209 15.096-36.433 15.135-14.096-0.084-26.952-5.893-36.261-15.238-9.172-9.338-14.908-22.282-14.94-36.566 0-13.425 5.53-26.881 15.043-36.445 9.331-9.324 22.205-15.104 36.429-15.146zM757.238 490.271h-216.719v-149.35h216.719v149.34zM757.238 639.621h-216.719v-17.224h216.719v17.224zM757.238 605.164h-216.719v-17.234h216.719v17.234zM489.185 490.271h-216.719v-17.224h216.719v17.224zM489.185 455.813h-216.719v-17.234h216.719v17.234zM489.185 427.090h-216.719v-17.234h216.719v17.234zM489.185 392.622h-216.719v-17.234h216.719v17.234zM489.185 358.164h-216.719v-17.234h216.719v17.234z"  horiz-adv-x="1024" />

    
    <glyph glyph-name="relation" unicode="&#58933;" d="M614.667 536l-268-248c-16-16-16-40-4-56 16-16 40-16 56-4l268 248c16 16 16 40 4 56-16 20-40 20-56 4zM478.667 140l-68-64c-32-28-72-44-116-44s-84 20-112 52c-60 64-56 168 8 228l72 64c16 16 16 40 4 56-16 16-40 16-56 4l-72-64c-96-88-104-240-12-340 48-52 112-76 176-76 60 0 116 20 164 64l72 64c16 16 16 40 4 56-20 16-48 16-64 0zM890.667 736c-88 96-240 104-340 12l-104-96c-16-16-16-40-4-56 16-16 40-16 56-4l104 96c64 60 168 56 228-8s56-168-8-228l-104-96c-16-16-16-40-4-56 8-8 20-12 28-12 8 0 20 4 28 12l104 96c100 92 104 244 16 340z"  horiz-adv-x="1024" />

    
    <glyph glyph-name="view" unicode="&#58934;" d="M231.254 405.333c0-17.067 13.653-30.72 30.72-30.72h150.187v3.413c10.24 17.067 23.893 34.133 37.547 51.2l6.827 10.24h-194.56c-17.067-3.413-30.72-17.067-30.72-34.133zM705.707 593.067c0 17.067-13.653 30.72-30.72 30.72h-413.013c-17.067 0-30.72-13.653-30.72-30.72s13.653-30.72 30.72-30.72h413.013c17.067 0 30.72 13.653 30.72 30.72zM978.774-14.507l-139.947 109.227c23.893 34.133 37.547 78.507 37.547 122.88 0 122.88-98.987 221.867-221.867 221.867s-221.867-98.987-221.867-221.867 98.987-221.867 221.867-221.867c58.027 0 112.64 23.893 153.6 61.44l139.947-109.227c3.413-3.413 10.24-6.827 17.067-6.827s13.653 3.413 17.067 10.24 6.827 27.307-3.413 34.133zM654.507 50.347c-92.16 0-167.253 75.093-167.253 167.253s75.093 167.253 167.253 167.253 167.253-75.093 167.253-167.253-75.093-167.253-167.253-167.253zM446.294 9.387h-252.587c-13.653 0-27.307 17.067-27.307 34.133v689.493c0 20.48 13.653 34.133 27.307 34.133h453.973l191.147-201.387v-119.467c0-20.48 13.653-34.133 34.133-34.133s34.133 13.653 34.133 34.133v146.773l-232.107 242.347h-481.28c-54.613 0-95.573-47.787-95.573-102.4v-689.493c0-58.027 44.373-102.4 95.573-102.4h252.587c20.48 0 34.133 13.653 34.133 34.133s-13.653 34.133-34.133 34.133z"  horiz-adv-x="1024" />

    
    <glyph glyph-name="sort" unicode="&#58935;" d="M444.8 787.2c-12.8 12.8-32 12.8-44.8 0l-160-156.8c-12.8-12.8-12.8-32 0-44.8 12.8-12.8 32-12.8 44.8 0l102.4 102.4v-684.8c0-16 16-32 32-32 19.2 0 32 16 32 32V761.6v3.2c3.2 6.4 0 16-6.4 22.4zM902.4 185.6c-12.8 12.8-32 12.8-44.8 0l-102.4-102.4V761.6c0 16-16 32-32 32s-32-16-32-32v-758.4c0-3.2 0-9.6 3.2-12.8v-3.2c0-3.2 3.2-6.4 6.4-9.6s6.4-3.2 9.6-6.4h3.2c3.2-3.2 9.6-3.2 12.8-3.2 3.2 0 6.4 0 12.8 3.2 3.2 0 3.2 3.2 6.4 3.2 0 0 3.2 0 3.2 3.2l156.8 156.8c9.6 16 9.6 38.4-3.2 51.2z"  horiz-adv-x="1228" />

    
    <glyph glyph-name="setting" unicode="&#58937;" d="M621.227 575.147c-105.813 0-191.147-85.333-191.147-191.147 0-105.813 85.333-191.147 191.147-191.147s191.147 85.333 191.147 191.147c3.413 105.813-85.333 191.147-191.147 191.147zM621.227 254.293c-71.68 0-129.707 58.027-129.707 129.707s58.027 129.707 129.707 129.707 129.707-58.027 129.707-129.707-58.027-129.707-129.707-129.707zM1082.027 476.16c-3.413 27.307-20.48 44.373-40.96 44.373h-3.413c-68.267 0-122.88 54.613-122.88 122.88 0 23.893 10.24 47.787 10.24 47.787 10.24 23.893 3.413 51.2-17.067 68.267l-116.053 64.853c-13.653 0-20.48 3.413-27.307 3.413-17.067 0-34.133-6.827-44.373-17.067-13.653-13.653-58.027-54.613-95.573-54.613-37.547 0-81.92 37.547-95.573 54.613-13.653 10.24-30.72 17.067-47.787 17.067-6.827 0-17.067 0-23.893-3.413l-122.88-68.267c-20.48-13.653-30.72-44.373-17.067-68.267 0 0 10.24-23.893 10.24-47.787 0-68.267-54.613-122.88-122.88-122.88h-3.413c-20.48 0-34.133-17.067-40.96-44.373 0-3.413-10.24-51.2-10.24-92.16 0-40.96 10.24-88.747 10.24-92.16 6.827-23.893 20.48-40.96 40.96-40.96h3.413c68.267 0 122.88-54.613 122.88-122.88 0-23.893-10.24-47.787-10.24-47.787-10.24-23.893-3.413-51.2 17.067-68.267l116.053-64.853c6.827-3.413 13.653-3.413 23.893-3.413 17.067 0 34.133 6.827 44.373 17.067 13.653 13.653 61.44 58.027 98.987 58.027 37.547 0 85.333-40.96 98.987-58.027 10.24-10.24 27.307-20.48 44.373-20.48 6.827 0 17.067 0 23.893 3.413l119.467 64.853c20.48 13.653 30.72 44.373 17.067 68.267 0 0-10.24 23.893-10.24 47.787 0 68.267 54.613 122.88 122.88 122.88h3.413c20.48 0 34.133 17.067 40.96 44.373 0 3.413 10.24 51.2 10.24 92.16s-6.827 92.16-6.827 95.573zM1027.413 302.080c-92.16-3.413-167.253-81.92-167.253-177.493 0-30.72 13.653-61.44 13.653-68.267l-112.64-61.44h-3.413c-3.413 3.413-17.067 20.48-40.96 37.547-34.133 27.307-68.267 37.547-98.987 37.547-30.72 0-61.44-13.653-98.987-37.547-23.893-17.067-40.96-34.133-40.96-37.547h-3.413l-109.227 61.44c3.413 6.827 13.653 37.547 13.653 68.267 0 95.573-75.093 174.080-167.253 177.493 0 6.827-10.24 47.787-10.24 81.92 0 30.72 6.827 71.68 10.24 81.92 92.16 3.413 167.253 81.92 167.253 177.493 0 30.72-13.653 61.44-13.653 68.267l112.64 61.44h3.413c3.413-3.413 17.067-17.067 40.96-34.133 34.133-23.893 64.853-37.547 95.573-37.547 30.72 0 61.44 13.653 95.573 37.547 23.893 17.067 37.547 30.72 40.96 34.133h3.413l109.227-61.44c-3.413-6.827-13.653-37.547-13.653-68.267 0-95.573 75.093-174.080 167.253-177.493 0-6.827 10.24-47.787 10.24-81.92 6.827-30.72-3.413-75.093-3.413-81.92z"  horiz-adv-x="1228" />

    
    <glyph glyph-name="template" unicode="&#58938;" d="M249.60000000000002 563.2h156.8v-160H249.60000000000002zM515.2 563.2H672v-160h-156.8zM249.60000000000002 297.6h156.8v-160H249.60000000000002zM515.2 297.6H672v-160h-156.8zM832 809.6H294.4C243.2 809.6 204.8 768 204.8 720v-9.6H192c-48 0-89.6-41.6-89.6-89.6v-537.6c0-48 41.6-89.6 89.6-89.6h537.6c48 0 89.6 41.6 89.6 89.6v9.6h12.8c48 0 89.6 41.6 89.6 89.6V720c0 48-41.6 89.6-89.6 89.6z m-64-726.4c0-22.4-16-38.4-38.4-38.4H192c-22.4 0-38.4 16-38.4 38.4V620.8000000000001c0 19.2 19.2 38.4 38.4 38.4h537.6c22.4 0 38.4-19.2 38.4-38.4v-537.6z m102.4 99.2c0-22.4-16-38.4-38.4-38.4h-12.8V620.8000000000001c0 48-41.6 89.6-89.6 89.6H256v9.6c0 22.4 16 38.4 38.4 38.4H832c22.4 0 38.4-16 38.4-38.4v-537.6z"  horiz-adv-x="1024" />

    
    <glyph glyph-name="unbox" unicode="&#58939;" d="M854.4 589.867c-3.2 6.4-9.6 12.8-16 16l-326.4 134.4c-16 6.4-35.2 0-41.6-16-6.4-16 0-35.2 16-41.6l153.6-64h-377.6l156.8 156.8c12.8 12.8 12.8 32 0 44.8s-32 12.8-44.8 0l-217.6-220.8v-3.2c-25.6-16-38.4-44.8-38.4-76.8v-416c0-54.4 41.6-96 96-96h576c54.4 0 96 41.6 96 96v416c-3.2 28.8-12.8 51.2-32 70.4zM819.2 103.467c0-19.2-12.8-32-32-32h-576c-19.2 0-32 12.8-32 32v416c0 19.2 12.8 32 32 32h576c19.2 0 32-12.8 32-32v-416zM563.2 301.867h140.8c16 0 32 16 32 32s-16 32-32 32h-140.8c-16 0-32-16-32-32s16-32 32-32zM723.2 244.267h-272c-19.2 0-32-16-32-32s12.8-32 32-32h272c16 0 32 16 32 32s-16 32-32 32z"  horiz-adv-x="1024" />

    
    <glyph glyph-name="update" unicode="&#58940;" d="M851.2 202.667c-16 9.6-38.4 6.4-48-9.6-60.8-89.6-160-144-268.8-144-163.2 0-294.4 118.4-316.8 272h80c9.6 9.6 12.8 19.2 3.2 28.8l-108.8 112c-9.6 9.6-22.4 9.6-32 0l-108.8-112c-12.8-16-3.2-19.2 3.2-28.8h86.4c22.4-192 188.8-342.4 390.4-342.4 134.4 0 256 67.2 329.6 176 12.8 16 9.6 38.4-9.6 48zM992 436.267h-83.2c-9.6 208-182.4 374.4-393.6 374.4-131.2 0-252.8-64-326.4-172.8-9.6-16-6.4-38.4 9.6-48 16-9.6 38.4-6.4 48 9.6 60.8 89.6 160 140.8 268.8 140.8 172.8 0 313.6-134.4 320-304h-83.2c-9.6-9.6-12.8-19.2-3.2-28.8l108.8-112c9.6-9.6 22.4-9.6 32 0l108.8 112c9.6 16 3.2 19.2-6.4 28.8z"  horiz-adv-x="1024" />

    
    <glyph glyph-name="stock-in" unicode="&#58941;" d="M883.2 588.8l-6.4 6.4-329.6 230.4c-12.8 12.8-32 19.2-51.2 19.2s-38.4-6.4-51.2-19.2l-336-230.4h-3.2l-3.2-3.2c-22.4-22.4-32-48-25.6-70.4 6.4-25.6 19.2-41.6 38.4-51.2 6.4-3.2 16-6.4 22.4-6.4h57.6v-422.4c0-16 12.8-28.8 28.8-28.8s28.8 12.8 28.8 28.8v438.4c0 25.6-19.2 44.8-44.8 44.8h-67.2c-3.2 0-3.2 3.2-3.2 6.4 0 6.4 3.2 12.8 9.6 19.2l329.6 230.4c3.2 3.2 9.6 6.4 19.2 6.4 6.4 0 12.8-3.2 19.2-9.6l329.6-230.4c6.4-6.4 9.6-12.8 9.6-19.2 0-3.2-3.2-3.2-3.2-6.4h-70.4c-25.6 0-44.8-19.2-44.8-44.8v-179.2c0-16 12.8-28.8 28.8-28.8s28.8 12.8 28.8 28.8v163.2h57.6c9.6 0 16 3.2 22.4 6.4 19.2 9.6 32 28.8 35.2 51.2 6.4 25.6-3.2 51.2-25.6 70.4zM886.4 153.6h-201.6v67.2c0 9.6-6.4 16-12.8 9.6-3.2-3.2-92.8-89.6-99.2-99.2-6.4-3.2-6.4-16 0-19.2 6.4-6.4 96-92.8 102.4-99.2 6.4-3.2 12.8 0 12.8 9.6v64h201.6c12.8 0 22.4 16 22.4 32s-12.8 35.2-25.6 35.2zM320 105.6h115.2v-86.4h-115.2zM320 240h115.2v-86.4h-115.2z"  horiz-adv-x="1024" />

    
    <glyph glyph-name="stock-out" unicode="&#58943;" d="M886.4 569.6l-6.4 6.4-329.6 230.4c-12.8 12.8-32 19.2-51.2 19.2s-38.4-6.4-51.2-19.2l-336-230.4h-3.2l-3.2-3.2c-22.4-22.4-32-48-25.6-70.4 3.2-22.4 16-38.4 35.2-51.2 6.4-3.2 16-6.4 22.4-6.4h57.6v-422.4c0-16 12.8-28.8 28.8-28.8s32 12.8 32 28.8v438.4c0 25.6-19.2 44.8-44.8 44.8h-67.2c-3.2 0-3.2 3.2-3.2 6.4 0 6.4 3.2 12.8 9.6 19.2l329.6 227.2c3.2 3.2 9.6 6.4 19.2 6.4 6.4 0 12.8-3.2 19.2-9.6l329.6-230.4c6.4-6.4 9.6-12.8 9.6-19.2 0-3.2-3.2-3.2-3.2-6.4h-70.4c-25.6 0-44.8-19.2-44.8-44.8v-179.2c0-16 12.8-28.8 28.8-28.8s28.8 12.8 28.8 28.8v163.2h57.6c9.6 0 16 3.2 22.4 6.4 19.2 9.6 32 28.8 35.2 51.2 6.4 28.8-3.2 54.4-25.6 73.6zM800 211.2c-6.4 3.2-12.8 0-12.8-9.6v-64h-201.6c-12.8 0-22.4-16-22.4-32s9.6-32 22.4-32h201.6v-67.2c0-9.6 6.4-16 12.8-9.6 3.2 3.2 92.8 89.6 99.2 99.2 6.4 3.2 6.4 16 0 19.2-3.2 3.2-92.8 89.6-99.2 96zM320 86.4h115.2v-86.4h-115.2zM320 217.6h115.2v-86.4h-115.2z"  horiz-adv-x="1024" />

    
    <glyph glyph-name="active" unicode="&#58945;" d="M508.587 700.302c-139.947 0-256-112.64-256-252.587 0-88.747 44.373-167.253 119.467-215.040v-201.387c0-51.2 40.96-92.16 92.16-92.16h88.747c51.2 0 92.16 40.96 92.16 92.16v204.8c75.093 47.787 119.467 126.293 119.467 215.040 0 136.533-116.053 249.173-256 249.173zM593.92 123.449c-3.413 3.413-6.827 3.413-13.653 3.413h-157.013v37.547h157.013c3.413 0 10.24 3.413 13.653 3.413v-44.373zM552.96-6.258h-88.747c-23.893 0-40.96 17.067-40.96 40.96v40.96h157.013c3.413 0 10.24 3.413 13.653 3.413v-44.373c0-23.893-20.48-40.96-40.96-40.96zM607.573 273.635l-13.653-6.827v-54.613c-3.413 3.413-6.827 3.413-13.653 3.413h-157.013v51.2l-13.653 6.827c-64.853 34.133-105.813 102.4-105.813 177.493 0 112.64 92.16 201.387 204.8 201.387s204.8-88.747 204.8-201.387c0-75.093-40.96-143.36-105.813-177.493zM204.8 427.235h-58.027c-13.653 0-23.893-10.24-23.893-23.893v-6.827c0-13.653 10.24-23.893 23.893-23.893h58.027c13.653 0 23.893 10.24 23.893 23.893v10.24c-3.413 10.24-13.653 20.48-23.893 20.48zM877.227 427.235h-58.027c-13.653 0-23.893-10.24-23.893-23.893v-6.827c0-13.653 10.24-23.893 23.893-23.893h58.027c13.653 0 23.893 10.24 23.893 23.893v10.24c0 10.24-10.24 20.48-23.893 20.48zM832.853 696.889l-3.413 3.413c-10.24 6.827-23.893 6.827-30.72 0l-37.547-40.96c-6.827-10.24-6.827-23.893 0-30.72l3.413-3.413c10.24-6.827 23.893-6.827 30.72 0l37.547 40.96c10.24 10.24 10.24 23.893 0 30.72zM273.067 625.209l3.413 3.413c10.24 6.827 10.24 23.893 0 30.72l-37.547 44.373c-6.827 6.827-20.48 10.24-30.72 0l-3.413-3.413c-10.24-6.827-10.24-23.893 0-30.72l34.133-44.373c10.24-6.827 23.893-10.24 34.133 0zM501.76 731.022h6.827c13.653 0 23.893 10.24 23.893 23.893v54.613c0 13.653-10.24 23.893-23.893 23.893h-6.827c-13.653 0-23.893-10.24-23.893-23.893v-58.027c0-10.24 10.24-20.48 23.893-20.48z"  horiz-adv-x="1024" />

    
    <glyph glyph-name="user2" unicode="&#58946;" d="M580.267 360.107h-150.187c-157.013 0-286.72-126.293-286.72-279.893v-13.653c0-105.813 133.12-105.813 286.72-105.813h150.187c146.773 0 286.72 0 286.72 105.813v13.653c-3.413 153.6-129.707 279.893-286.72 279.893zM802.133 63.147c0-44.373-119.467-44.373-225.28-44.373h-150.187c-116.053 0-225.28 0-225.28 44.373v13.653c0 122.88 98.987 218.453 225.28 218.453h153.6c122.88 0 225.28-98.987 225.28-218.453v-13.653zM498.347 380.587c129.707 0 232.107 102.4 232.107 228.693s-105.813 228.693-232.107 228.693-232.107-102.4-232.107-228.693c-3.413-126.293 102.4-228.693 232.107-228.693zM498.347 776.533c95.573 0 170.667-75.093 170.667-167.253s-78.507-167.253-170.667-167.253c-95.573 0-170.667 75.093-170.667 167.253-3.413 92.16 75.093 167.253 170.667 167.253z"  horiz-adv-x="1024" />

    
    <glyph glyph-name="add2" unicode="&#58947;" d="M512 888.869c-279.62 0-504.869-225.249-504.869-504.869s225.249-504.869 504.869-504.869 504.869 225.249 504.869 504.869-225.249 504.869-504.869 504.869zM706.181 345.164h-155.344v-159.229c0-23.301-15.534-38.836-38.836-38.836s-38.836 15.534-38.836 38.836v159.229h-155.344c-23.301 0-38.836 15.534-38.836 38.836s15.534 38.836 38.836 38.836h155.344v151.461c0 23.301 15.534 38.836 38.836 38.836s38.836-15.534 38.836-38.836v-151.461h155.344c23.301 0 38.836-15.534 38.836-38.836s-15.534-38.836-38.836-38.836z"  horiz-adv-x="1024" />

    
    <glyph glyph-name="address" unicode="&#58948;" d="M505.173 281.6c-88.747 0-163.84 71.68-163.84 160.427s71.68 160.427 163.84 160.427 163.84-71.68 163.84-160.427c0-85.333-71.68-160.427-163.84-160.427zM505.173 537.6c-51.2 0-95.573-40.96-95.573-92.16s40.96-92.16 95.573-92.16 95.573 40.96 95.573 92.16-40.96 92.16-95.573 92.16zM505.173-59.733c-10.24 0-23.893 6.827-30.72 13.653-10.24 13.653-23.893 27.307-37.547 44.373-119.467 136.533-279.893 314.027-279.893 481.28 0 191.147 157.013 348.16 348.16 348.16s351.573-157.013 351.573-351.573c0-170.667-170.667-348.16-290.133-488.107-10.24-13.653-20.48-23.893-30.72-34.133-10.24-10.24-20.48-13.653-30.72-13.653zM505.173 759.467c-157.013 0-283.307-126.293-283.307-283.307 0-194.56 201.387-358.4 283.307-464.213 81.92 109.227 283.307 269.653 283.307 464.213 3.413 153.6-126.293 283.307-283.307 283.307z"  horiz-adv-x="1024" />

    
    <glyph glyph-name="close" unicode="&#58950;" d="M892.8 76.8l-310.4 310.4 304 304c22.4 22.4 22.4 54.4 3.2 76.8-19.2 19.2-54.4 19.2-76.8-3.2l-304-304-297.6 297.6c-22.4 22.4-54.4 22.4-76.8 3.2-19.2-22.4-19.2-54.4 3.2-76.8l297.6-297.6-304-304c-22.4-22.4-22.4-54.4-3.2-76.8 19.2-19.2 54.4-19.2 76.8 3.2l304 304 310.4-310.4c22.4-22.4 54.4-22.4 76.8-3.2s19.2 54.4-3.2 76.8z"  horiz-adv-x="1024" />

    
    <glyph glyph-name="add" unicode="&#58951;" d="M911.36 442.026667h-341.333333v341.333333C566.613333 807.253333 546.133333 827.733333 518.826667 827.733333s-47.786667-20.48-47.786667-44.373333v-341.333333H112.64c-23.893333 0-44.373333-23.893333-44.373333-47.786667s20.48-47.786667 44.373333-47.786667h358.4v-358.4c0-23.893333 20.48-44.373333 47.786667-44.373333 27.306667 0 47.786667 20.48 47.786666 44.373333V346.453333h341.333334c23.893333 0 44.373333 20.48 44.373333 47.786667s-17.066667 47.786667-40.96 47.786667z"  horiz-adv-x="1024" />

    
    <glyph glyph-name="confirm" unicode="&#58952;" d="M1163.21 805.911c-21.401 21.401-55.032 18.344-76.433-3.057l-645.096-645.096-287.389 290.446c-18.344 18.344-48.917 18.344-70.318 0-18.344-18.344-18.344-48.917 0-70.318l327.134-327.134c9.172-9.172 18.344-12.23 27.516-12.23h9.172c15.287 0 27.516 6.114 39.745 15.287l672.611 678.727c21.401 21.401 24.458 55.032 3.057 73.376z"  horiz-adv-x="1262" />

    
    <glyph glyph-name="configure" unicode="&#58956;" d="M259.2 598.4V774.4c0 16-16 32-32 32s-32-16-32-32v-179.2c-54.4-12.8-92.8-64-92.8-121.6s38.4-105.6 92.8-121.6v-339.2c0-16 16-32 32-32s32 16 32 32V358.4c54.4 12.8 92.8 64 92.8 121.6S313.6 582.4 259.2 598.4z m0-179.2c-9.6-6.4-19.2-9.6-32-9.6s-22.4 3.2-32 9.6c-22.4 12.8-35.2 32-35.2 57.6s12.8 48 35.2 57.6c9.6 6.4 19.2 9.6 32 9.6s22.4-3.2 32-9.6c22.4-12.8 35.2-32 35.2-57.6s-12.8-48-35.2-57.6zM560 390.4v384c0 16-12.8 32-32 32-16 0-32-16-32-32v-384c-54.4-12.8-92.8-64-92.8-121.6s38.4-105.6 92.8-121.6v-134.4c0-16 16-32 32-32 19.2 0 32 16 32 32v134.4c54.4 12.8 92.8 64 92.8 121.6s-41.6 108.8-92.8 121.6z m0-176c-9.6-6.4-19.2-9.6-32-9.6s-22.4 3.2-32 9.6c-22.4 12.8-35.2 32-35.2 57.6s12.8 48 35.2 57.6c9.6 6.4 19.2 9.6 32 9.6s22.4-3.2 32-9.6c22.4-12.8 35.2-32 35.2-57.6s-16-48-35.2-57.6zM828.8 624V774.4c0 16-16 32-32 32s-32-16-32-32v-150.4c-54.4-12.8-92.8-64-92.8-121.6s38.4-105.6 92.8-121.6v-364.8c0-16 16-32 32-32s32 16 32 32V384c54.4 12.8 92.8 64 92.8 121.6s-41.6 105.6-92.8 118.4z m0-179.2c-9.6-6.4-19.2-9.6-32-9.6s-22.4 3.2-32 9.6c-22.4 12.8-35.2 32-35.2 57.6s12.8 48 35.2 57.6c9.6 6.4 19.2 9.6 32 9.6s22.4-3.2 32-9.6c22.4-12.8 35.2-32 35.2-57.6s-16-44.8-35.2-57.6z"  horiz-adv-x="1024" />

    
    <glyph glyph-name="audit" unicode="&#58957;" d="M985.315 245.646h-83.741l-196.608 247.581c80.099 29.127 138.354 105.586 138.354 196.608 0 116.509-94.663 211.171-214.813 211.171s-214.813-94.663-214.813-211.171c0-91.022 58.254-167.481 138.354-196.608l-189.326-247.581h-91.022c-61.895 0-109.227-47.331-109.227-109.227v-80.099c0-61.895 47.331-109.227 109.227-109.227h713.614c61.895 0 109.227 47.331 109.227 109.227v80.099c0 61.895-47.331 109.227-109.227 109.227zM479.232 693.475c0 80.099 65.536 145.635 149.277 145.635 80.099 0 149.277-65.536 149.277-145.635s-65.536-145.635-149.277-145.635c-80.099 0-149.277 65.536-149.277 145.635zM624.867 482.304h7.282l185.685-236.658h-371.371l178.403 236.658zM1021.725 59.961c0-21.845-14.563-36.409-36.409-36.409h-713.614c-21.845 0-36.409 14.563-36.409 36.409v80.099c0 21.845 14.563 36.409 36.409 36.409h713.614c21.845 0 36.409-14.563 36.409-36.409v-80.099z"  horiz-adv-x="1228" />

    
    <glyph glyph-name="copy" unicode="&#58958;" d="M747.52 793.6c0 20.48-13.653333 34.133333-34.133333 34.133333h-546.133334c-58.026667 0-102.4-44.373333-102.4-102.4v-546.133333c0-20.48 13.653333-34.133333 34.133334-34.133333s34.133333 13.653333 34.133333 34.133333V725.333333c0 20.48 13.653333 34.133333 34.133333 34.133334h546.133334c20.48 0 34.133333 13.653333 34.133333 34.133333zM754.346667 353.28h-136.533334V486.4c0 20.48-13.653333 34.133333-34.133333 34.133333s-34.133333-13.653333-34.133333-34.133333v-133.12h-136.533334c-20.48 0-34.133333-13.653333-34.133333-34.133333s13.653333-34.133333 34.133333-34.133334h136.533334V145.066667c0-20.48 13.653333-34.133333 34.133333-34.133334s34.133333 13.653333 34.133333 34.133334v139.946666h136.533334c20.48 0 34.133333 13.653333 34.133333 34.133334s-17.066667 34.133333-34.133333 34.133333zM856.746667 691.2h-546.133334c-58.026667 0-102.4-44.373333-102.4-102.4v-546.133333c0-58.026667 44.373333-102.4 102.4-102.4h546.133334c58.026667 0 102.4 44.373333 102.4 102.4V588.8c0 58.026667-47.786667 102.4-102.4 102.4z m34.133333-648.533333c0-20.48-13.653333-34.133333-34.133333-34.133334h-546.133334c-20.48 0-34.133333 13.653333-34.133333 34.133334V588.8c0 20.48 13.653333 34.133333 34.133333 34.133333h546.133334c20.48 0 34.133333-13.653333 34.133333-34.133333v-546.133333z"  horiz-adv-x="1024" />

    
    <glyph glyph-name="detail" unicode="&#58960;" d="M838.224 714.107h-466.034c-19.419 0-38.836-19.419-38.836-38.836v-7.767c0-19.419 19.419-38.836 38.836-38.836h466.034c19.419 0 38.836 19.419 38.836 38.836v7.767c0 19.419-15.534 38.836-38.836 38.836zM189.66 714.107c-23.301 0-42.72-19.419-42.72-42.72s19.419-42.72 46.604-42.72 46.604 19.419 46.604 42.72c-3.884 23.301-27.185 42.72-50.486 42.72zM838.224 422.836h-466.034c-19.419 0-38.836-19.419-38.836-38.836v-7.767c0-19.419 19.419-38.836 38.836-38.836h466.034c19.419 0 38.836 19.419 38.836 38.836v7.767c0 19.419-15.534 38.836-38.836 38.836zM143.056 380.116c0-25.739 20.865-46.604 46.604-46.604s46.604 20.865 46.604 46.604c0 0 0 0 0 0 0 25.739-20.865 46.604-46.604 46.604-25.739 0-46.604-20.865-46.604-46.604 0 0 0 0 0 0zM838.224 139.332h-466.034c-19.419 0-38.836-19.419-38.836-38.836v-7.767c0-19.419 19.419-38.836 38.836-38.836h466.034c19.419 0 38.836 19.419 38.836 38.836v7.767c0 23.301-15.534 38.836-38.836 38.836zM143.056 96.612c0-25.739 20.865-46.604 46.604-46.604s46.604 20.865 46.604 46.604c0 0 0 0 0 0 0 25.739-20.865 46.604-46.604 46.604-25.739 0-46.604-20.865-46.604-46.604 0 0 0 0 0 0z"  horiz-adv-x="1024" />

    
    <glyph glyph-name="detail2" unicode="&#58961;" d="M792.746-59.733h-546.133c-58.027 0-102.4 44.373-102.4 102.4v682.667c0 58.027 44.373 102.4 102.4 102.4h546.133c58.027 0 102.4-44.373 102.4-102.4v-682.667c0-58.027-47.787-102.4-102.4-102.4zM246.613 759.467c-20.48 0-34.133-13.653-34.133-34.133v-682.667c0-20.48 13.653-34.133 34.133-34.133h546.133c20.48 0 34.133 13.653 34.133 34.133v682.667c0 20.48-13.653 34.133-34.133 34.133h-546.133zM731.306 541.013h-290.133c-17.067 0-34.133 13.653-34.133 34.133 0 17.067 13.653 34.133 34.133 34.133h290.133c17.067 0 34.133-13.653 34.133-34.133 0-17.067-13.653-34.133-34.133-34.133zM311.466 541.013c-20.48 0-34.133 13.653-34.133 34.133 0 17.067 13.653 34.133 34.133 34.133 17.067 0 34.133-13.653 34.133-34.133 0-17.067-13.653-34.133-34.133-34.133zM731.306 349.867h-290.133c-17.067 0-34.133 13.653-34.133 34.133 0 17.067 13.653 34.133 34.133 34.133h290.133c17.067 0 34.133-13.653 34.133-34.133s-13.653-34.133-34.133-34.133zM311.466 349.867c-20.48 0-34.133 13.653-34.133 34.133 0 17.067 13.653 34.133 34.133 34.133 17.067 0 34.133-13.653 34.133-34.133s-13.653-34.133-34.133-34.133zM731.306 162.133h-290.133c-17.067 0-34.133 17.067-34.133 34.133s13.653 34.133 34.133 34.133h290.133c17.067 0 34.133-13.653 34.133-34.133 0-17.067-13.653-34.133-34.133-34.133zM311.466 162.133c-20.48 0-34.133 17.067-34.133 34.133s13.653 34.133 34.133 34.133c17.067 0 34.133-13.653 34.133-34.133 0-17.067-13.653-34.133-34.133-34.133z"  horiz-adv-x="1024" />

    
    <glyph glyph-name="delete" unicode="&#58949;" d="M908.8 680.96h-201.387v95.573c0 37.547-30.72 64.853-64.853 64.853h-269.653c-37.547 0-64.853-30.72-64.853-64.853v-95.573h-201.387c-17.067 0-30.72-13.653-30.72-30.72s13.653-30.72 30.72-30.72h802.133c17.067 0 30.72 13.653 30.72 30.72s-13.653 30.72-30.72 30.72zM372.907 776.533h269.653v-95.573h-269.653v95.573zM362.667 162.133c17.067 0 30.72 13.653 30.72 30.72v276.48c0 17.067-13.653 30.72-30.72 30.72h-3.413c-17.067 3.413-30.72-13.653-30.72-30.72v-276.48c0-17.067 13.653-30.72 30.72-30.72h3.413zM509.44 162.133c17.067 0 30.72 13.653 30.72 30.72v276.48c0 17.067-13.653 30.72-30.72 30.72h-3.413c-17.067 0-30.72-13.653-30.72-30.72v-276.48c0-17.067 13.653-30.72 30.72-30.72h3.413zM656.213 162.133c17.067 0 30.72 13.653 30.72 30.72v276.48c0 17.067-13.653 30.72-30.72 30.72h-3.413c-17.067 0-30.72-13.653-30.72-30.72v-276.48c0-17.067 13.653-30.72 30.72-30.72h3.413zM785.92 56.32c0-17.067-13.653-34.133-27.307-34.133h-498.347c-13.653 0-27.307 13.653-27.307 34.133v559.787h-68.267v-559.787c0-54.613 40.96-98.987 92.16-98.987h498.347c51.2 0 92.16 44.373 92.16 98.987v559.787h-64.853v-559.787z"  horiz-adv-x="1024" />

    
    <glyph glyph-name="box-add" unicode="&#58963;" d="M826.027 605.867h-95.573c-20.48 0-34.133-13.653-34.133-34.133s13.653-34.133 34.133-34.133h95.573c20.48 0 34.133-13.653 34.133-34.133v-443.733c0-20.48-13.653-34.133-34.133-34.133h-614.4c-20.48 0-34.133 13.653-34.133 34.133v443.733c0 20.48 13.653 34.133 34.133 34.133h81.92c20.48 0 34.133 13.653 34.133 34.133s-13.653 34.133-34.133 34.133h-81.92c-58.027 0-102.4-44.373-102.4-102.4v-443.733c0-58.027 44.373-102.4 102.4-102.4h614.4c58.027 0 102.4 44.373 102.4 102.4v443.733c0 54.613-44.373 102.4-102.4 102.4zM737.28 336.213h-150.187c-17.067 0-34.133-17.067-34.133-34.133s17.067-34.133 34.133-34.133h150.187c17.067 0 34.133 17.067 34.133 34.133s-13.653 34.133-34.133 34.133zM467.627 206.507c-17.067 0-34.133-17.067-34.133-34.133 0-20.48 17.067-34.133 34.133-34.133h290.133c17.067 0 34.133 13.653 34.133 34.133 0 17.067-17.067 34.133-34.133 34.133h-290.133zM501.76 370.347c10.24-10.24 23.893-10.24 34.133 0l116.053 119.467c13.653 17.067 3.413 20.48-3.413 30.72h-92.16v290.133c0 17.067-17.067 34.133-34.133 34.133s-34.133-17.067-34.133-34.133v-290.133h-95.573c-10.24-10.24-13.653-20.48-3.413-30.72l112.64-119.467z"  horiz-adv-x="1024" />

    
    <glyph glyph-name="disable" unicode="&#58964;" d="M525.653-59.733c-245.76 0-443.733 197.973-443.733 443.733s197.973 443.733 443.733 443.733 443.733-197.973 443.733-443.733-197.973-443.733-443.733-443.733zM525.653 759.467c-208.213 0-375.467-167.253-375.467-375.467s167.253-375.467 375.467-375.467 375.467 167.253 375.467 375.467-167.253 375.467-375.467 375.467zM716.8 192.853l-433.493 334.507c-13.653 10.24-17.067 30.72-6.827 47.787 10.24 13.653 30.72 17.067 47.787 6.827l433.493-334.507c13.653-10.24 17.067-30.72 6.827-47.787-10.24-13.653-30.72-17.067-47.787-6.827z"  horiz-adv-x="1024" />

    
    <glyph glyph-name="edit" unicode="&#58966;" d="M413.013 164.693v-3.413l378.88 395.947-139.947 143.36-375.467-392.533-85.333-235.52zM778.24 11.093h-583.68c-17.067 0-34.133-13.653-34.133-34.133s13.653-34.133 34.133-34.133h583.68c17.067 0 34.133 13.653 34.133 34.133s-17.067 34.133-34.133 34.133zM887.467 748.373l-58.027 58.027c-23.893 23.893-61.44 23.893-81.92 0l-68.267-71.68 139.947-146.773 68.267 71.68c20.48 23.893 20.48 61.44 0 88.747z"  horiz-adv-x="1024" />

    
    <glyph glyph-name="input" unicode="&#58967;" d="M500.623 237.227l3.413-3.413 334.507 348.16-122.88 129.707-334.507-348.16-71.68-208.213zM920.463 752.64l-47.787 51.2c-20.48 20.48-54.613 20.48-75.093 0l-61.44-64.853 122.88-129.707 61.44 64.853c20.48 20.48 20.48 58.027 0 78.507zM852.196 455.68c-17.067 0-30.72-13.653-30.72-30.72v-375.467c0-17.067-13.653-27.307-30.72-27.307h-600.747c-17.067 0-30.72 13.653-30.72 27.307v597.333c0 17.067 13.653 27.307 30.72 27.307h320.853c17.067 0 30.72 13.653 30.72 30.72s-13.653 30.72-30.72 30.72h-320.853c-51.2 0-92.16-40.96-92.16-88.747v-597.333c0-51.2 40.96-92.16 92.16-92.16h604.16c51.2 0 92.16 40.96 92.16 92.16v375.467c-3.413 17.067-17.067 30.72-34.133 30.72z"  horiz-adv-x="1024" />

    
    <glyph glyph-name="trace-node" unicode="&#58968;" d="M1280 345.333c-39 0-75-12-105-36l-222 216c15 24 24 54 24 84 0 90-75 165-168 165-93 0-168-75-168-165 0-60 33-111 81-141l-78-159c-12 6-24 6-36 6-30 0-60-9-84-24l-171 189c33 30 54 75 54 123 0 93-78 171-171 171s-174-75-174-168c0-96 78-171 171-171 24 0 45 6 66 12l180-195c-21-27-33-60-33-96 0-87 72-159 162-159s162 72 162 159c0 54-27 102-69 129l78 162c9-3 21-3 30-3 39 0 75 12 102 36l219-216c-18-27-30-60-30-96 0-96 81-174 177-174s177 78 177 174-75 177-174 177zM122 606.333c0 60 51 111 111 111s111-48 111-111c0-60-51-111-111-111s-111 48-111 111zM608 57.333c-57 0-102 45-102 99 0 21 6 39 15 54l36 33c15 9 33 12 51 12 57 0 102-45 102-99s-48-99-102-99zM809 507.333c-60 0-108 48-108 105s48 105 108 105 108-48 108-105-48-105-108-105zM1280 54.333c-66 0-117 51-117 114s54 114 117 114 117-51 117-114-51-114-117-114z"  horiz-adv-x="1539" />

    
    <glyph glyph-name="micropage" unicode="&#58970;" d="M655.36 460.799h-290.133c-17.067 0-34.133-17.067-34.133-34.133s17.067-34.133 34.133-34.133h290.133c20.48 0 34.133 17.067 34.133 34.133s-13.653 34.133-34.133 34.133zM655.36 314.026h-290.133c-17.067 0-34.133-17.067-34.133-34.133 0-20.48 17.067-34.133 34.133-34.133h290.133c20.48 0 34.133 13.653 34.133 34.133 0 17.067-13.653 34.133-34.133 34.133zM819.2 600.746l-208.213 211.627c-10.24 13.653-23.893 20.48-40.96 20.48h-296.96c-47.787 0-88.747-44.373-88.747-98.987v-682.667c0-54.613 40.96-95.573 88.747-95.573h477.867c47.787 0 88.747 44.373 88.747 95.573v505.173c0 17.067-6.827 34.133-20.48 44.373zM621.227 720.213l105.813-109.227h-105.813v109.227zM785.067 51.199c0-23.893-17.067-40.96-34.133-40.96h-477.867c-20.48 0-34.133 20.48-34.133 40.96v682.667c0 23.893 17.067 40.96 34.133 40.96h293.547v-174.080c0-23.893 17.067-40.96 34.133-40.96h184.32v-508.587z"  horiz-adv-x="1024" />

    
    <glyph glyph-name="map" unicode="&#58971;" d="M488.107 123.45c6.827-6.827 13.653-10.24 23.893-10.24s17.067 3.413 23.893 10.24c6.827 10.24 17.067 17.067 23.893 27.307 98.987 112.64 235.52 256 235.52 392.533 0 157.013-126.293 283.307-283.307 283.307s-279.893-126.293-279.893-279.893c0-133.12 129.707-276.48 225.28-385.707 10.24-13.653 20.48-27.307 30.72-37.547zM515.413 761.743c119.467 0 218.453-98.987 218.453-218.453 0-150.187-153.6-273.067-218.453-354.987-64.853 78.507-218.453 204.8-218.453 354.987 0 122.88 95.573 218.453 218.453 218.453zM638.293 560.356c0 68.267-54.613 122.88-122.88 122.88s-122.88-54.613-122.88-122.88 54.613-122.88 122.88-122.88c64.853 0 122.88 54.613 122.88 122.88zM515.413 502.33c-30.72 0-58.027 27.307-58.027 58.027s27.307 58.027 58.027 58.027c30.72 0 58.027-27.307 58.027-58.027 0-30.72-27.307-58.027-58.027-58.027zM965.973-13.084l-112.64 259.413c-6.827 10.24-17.067 20.48-30.72 20.48h-85.333c-17.067 0-34.133-13.653-34.133-34.133 0-17.067 13.653-34.133 34.133-34.133h61.44l85.333-194.56h-744.107l92.16 194.56h51.2c17.067 0 34.133 13.653 34.133 34.133 0 17.067-13.653 34.133-34.133 34.133h-71.68c-13.653 0-23.893-6.827-30.72-17.067l-126.293-259.413c-3.413-10.24-3.413-20.48 0-30.72 6.827-10.24 17.067-13.653 27.307-13.653h849.92c10.24 0 20.48 6.827 27.307 13.653 10.24 3.413 10.24 17.067 6.827 27.307z"  horiz-adv-x="1024" />

    
    <glyph glyph-name="box" unicode="&#58972;" d="M897.067 800h-768c-35.2 0-64-28.8-64-64v-160c0-35.2 28.8-64 64-64h6.4v-448c0-54.4 41.6-96 96-96h576c54.4 0 96 41.6 96 96v448c32 3.2 57.6 28.8 57.6 64v160c0 35.2-28.8 64-64 64zM839.467 64c0-19.2-12.8-32-32-32h-576c-19.2 0-32 12.8-32 32v448h640v-448zM897.067 576h-768v160h768v-160zM583.467 259.2h140.8c19.2 0 32 16 32 32s-12.8 32-32 32h-140.8c-19.2 0-32-16-32-32s12.8-32 32-32zM471.467 140.8h272c16 0 32 12.8 32 32 0 16-16 32-32 32h-272c-16 0-32-16-32-32 0-19.2 12.8-32 32-32z"  horiz-adv-x="1024" />

    
    <glyph glyph-name="label" unicode="&#58973;" d="M1114.013 310.157c-3.884 27.185-19.419 50.486-38.836 69.905l-466.034 466.034c-15.534 15.534-34.953 27.185-58.254 31.069-15.534 3.884-27.185 7.767-42.72 3.884-81.556-19.419-163.111-34.953-244.668-54.371-27.185-7.767-46.604-15.534-62.138-34.953-15.534-19.419-27.185-38.836-31.069-62.138-15.534-69.905-31.069-139.81-50.486-213.599-3.884-15.534-7.767-31.069-3.884-46.604 3.884-31.069 15.534-62.138 42.72-85.439l124.276-124.276c66.021-66.021 135.926-132.043 201.948-201.948l104.858-104.858c15.534-15.534 31.069-31.069 50.486-46.604 46.604-34.953 116.509-34.953 159.229 3.884 19.419 15.534 34.953 34.953 54.371 54.371 77.673 77.673 155.344 151.461 229.134 229.134 23.301 23.301 38.836 54.371 38.836 89.324-3.884 11.651-3.884 19.419-7.767 27.185zM1013.041 248.020c-54.371-54.371-108.741-108.741-163.111-159.229l-97.090-97.090c-19.419-19.419-42.72-23.301-69.905-15.534-11.651 3.884-19.419 11.651-31.069 19.419l-124.276 124.276c-62.138 62.138-128.159 124.276-190.297 190.297l-120.391 120.391c-15.534 15.534-23.301 34.953-19.419 58.254 3.884 11.651 3.884 23.301 7.767 34.953 15.534 58.254 27.185 120.391 42.72 178.646 7.767 27.185 23.301 46.604 50.486 50.486l209.715 46.604c3.884 0 11.651 0 15.534 3.884 19.419 0 34.953-7.767 50.486-23.301l434.964-434.964c11.651-11.651 15.534-23.301 19.419-34.953 7.767-27.185 0-46.604-15.534-62.138zM449.915 675.217c-58.254 0-100.974-46.604-100.974-100.974s46.604-100.974 100.974-100.974c58.254 0 104.858 46.604 104.858 100.974 0 54.371-46.604 100.974-104.858 100.974zM449.915 527.64c-27.185 0-46.604 19.419-46.604 46.604 0 23.301 19.419 46.604 46.604 46.604s46.604-19.419 46.604-46.604-19.419-46.604-46.604-46.604z"  horiz-adv-x="1212" />

    
    <glyph glyph-name="save" unicode="&#58974;" d="M703.147 841.387h-532.48c-58.027 0-102.4-44.373-102.4-102.4v-682.667c0-58.027 44.373-102.4 102.4-102.4h682.667c58.027 0 102.4 44.373 102.4 102.4v546.133l-252.587 238.933zM614.4 728.747v-194.56h-119.467v194.56h119.467zM887.467 56.32c0-20.48-13.653-34.133-34.133-34.133h-682.667c-20.48 0-34.133 13.653-34.133 34.133v682.667c0 20.48 13.653 34.133 34.133 34.133h61.44v-344.747h443.733v344.747l211.627-201.387v-515.413z"  horiz-adv-x="1024" />

    
    <glyph glyph-name="pay" unicode="&#58975;" d="M590.75 538.688l-78.75-143.438-73.125 143.438h-45l87.188-157.5h-61.875v-19.688h73.125v-45h-73.125v-19.688h73.125v-67.5h39.375v67.5h78.75v19.688h-78.75v45h78.75v19.688h-67.5l87.188 157.5zM866.375 679.313h-708.75c-47.813 0-84.375-36.563-84.375-84.375v-424.688c0-47.813 36.563-84.375 84.375-84.375h711.563c47.813 0 84.375 36.563 84.375 84.375v424.688c-2.813 47.813-39.375 84.375-87.188 84.375zM894.5 173.062c0-16.875-11.25-28.125-28.125-28.125h-708.75c-16.875 0-28.125 11.25-28.125 28.125v421.875c0 16.875 11.25 28.125 28.125 28.125h711.563c16.875 0 28.125-11.25 28.125-28.125v-421.875z"  horiz-adv-x="1024" />

    
    <glyph glyph-name="reduce" unicode="&#58976;" d="M955.733333 384c0-27.306667-20.48-47.786667-44.373333-47.786667H112.64c-23.893333 0-44.373333 20.48-44.373333 47.786667s20.48 47.786667 44.373333 47.786667h795.306667c27.306667 0 47.786667-20.48 47.786666-47.786667z"  horiz-adv-x="1024" />

    
    <glyph glyph-name="enable" unicode="&#58977;" d="M740.693 687.787c-13.653 10.24-37.547 6.827-47.787-6.827-10.24-13.653-6.827-37.547 6.827-47.787 88.747-64.853 136.533-167.253 136.533-276.48 0-191.147-153.6-344.747-344.747-344.747s-344.747 157.013-344.747 348.16c0 112.64 54.613 218.453 150.187 283.307 13.653 10.24 17.067 30.72 6.827 47.787-10.24 13.653-30.72 17.067-47.787 6.827-112.64-78.507-177.493-204.8-177.493-341.333 0-228.693 184.32-413.013 413.013-413.013 228.693 0 413.013 184.32 413.013 413.013 3.413 133.12-58.027 252.587-163.84 331.093zM512 356.693c23.893 0 44.373 20.48 44.373 44.373v392.533c0 23.893-20.48 44.373-44.373 44.373s-40.96-20.48-40.96-44.373v-392.533c0-23.893 17.067-44.373 40.96-44.373z"  horiz-adv-x="1024" />

    
    <glyph glyph-name="update-page" unicode="&#58978;" d="M433.493 15.36h-228.693c-10.24 0-20.48 13.653-20.48 34.133v682.667c0 20.48 10.24 34.133 20.48 34.133h409.6l174.080-197.973v-153.6c0-20.48 13.653-34.133 34.133-34.133s34.133 13.653 34.133 34.133v180.907l-208.213 242.347h-443.733c-51.2 0-88.747-44.373-88.747-102.4v-682.667c0-58.027 40.96-102.4 88.747-102.4h228.693c20.48 0 34.133 13.653 34.133 34.133s-13.653 30.72-34.133 30.72zM290.133 605.867c-20.48 0-34.133-17.067-34.133-34.133 0-20.48 13.653-34.133 34.133-34.133h290.133c17.067 0 34.133 13.653 34.133 34.133 0 17.067-17.067 34.133-34.133 34.133h-290.133zM450.56 414.72h-160.427c-20.48 0-34.133-17.067-34.133-34.133 0-20.48 13.653-34.133 34.133-34.133h160.427c17.067 0 34.133 13.653 34.133 34.133s-13.653 34.133-34.133 34.133zM450.56 230.4h-160.427c-20.48 0-34.133-13.653-34.133-34.133 0-17.067 13.653-34.133 34.133-34.133h160.427c17.067 0 34.133 17.067 34.133 34.133s-13.653 34.133-34.133 34.133zM894.293 63.147c-10.24 6.827-27.307 3.413-34.133-6.827-27.307-37.547-68.267-61.44-116.053-61.44-64.853 0-119.467 44.373-136.533 105.813h37.547c3.413 3.413 6.827 10.24 3.413 17.067l-58.027 58.027c-3.413 3.413-13.653 3.413-17.067 0l-58.027-58.027c-6.827-6.827-3.413-10.24 3.413-17.067h37.547c13.653-92.16 92.16-160.427 184.32-160.427 64.853 0 122.88 30.72 160.427 85.333 6.827 13.653 3.413 27.307-6.827 37.547zM959.147 186.027h-40.96c-13.653 88.747-92.16 157.013-187.733 157.013-64.853 0-122.88-30.72-157.013-81.92-6.827-10.24-3.413-27.307 6.827-34.133 10.24-6.827 27.307-3.413 34.133 6.827 27.307 37.547 68.267 61.44 116.053 61.44 64.853 0 122.88-44.373 136.533-105.813h-34.133c-3.413-3.413-6.827-10.24-3.413-17.067l58.027-61.44c3.413-3.413 13.653-3.413 17.067 0l58.027 58.027c6.827 6.827 3.413 10.24-3.413 17.067z"  horiz-adv-x="1024" />

    
    <glyph glyph-name="preview" unicode="&#58979;" d="M1099.813 479.625c-2.813 2.813-45 67.5-126.563 132.188-47.813 39.375-98.438 67.5-151.875 90-67.5 28.125-137.813 42.188-210.938 42.188s-143.438-14.063-210.938-42.188c-53.438-22.5-104.063-53.438-151.875-90-81.563-64.688-123.75-129.375-126.563-132.188-25.313-39.375-22.5-98.438 5.625-135 2.813-2.813 50.625-67.5 135-132.188 50.625-39.375 101.25-67.5 151.875-90 64.688-28.125 132.188-42.188 196.875-42.188s132.188 14.063 196.875 42.188c50.625 22.5 104.063 53.438 151.875 90 84.375 64.688 135 129.375 135 132.188 30.938 36.563 30.938 95.625 5.625 135zM1049.188 378.375s-47.813-61.875-126.563-120.938c-70.313-53.438-182.813-118.125-312.188-118.125s-241.875 64.688-312.188 118.125c-78.75 59.063-126.563 120.938-126.563 120.938-14.063 16.875-14.063 50.625-2.813 67.5 0 0 39.375 61.875 115.313 118.125 98.438 78.75 208.125 118.125 326.25 118.125s227.813-39.375 326.25-118.125c75.938-59.063 115.313-118.125 115.313-118.125 11.25-16.875 11.25-47.813-2.813-67.5zM610.438 592.125c-47.813 0-92.813-19.688-126.563-53.438s-53.438-78.75-53.438-126.563c0-47.813 19.688-92.813 53.438-126.563 33.75-33.75 78.75-53.438 126.563-53.438 98.438 0 180 81.563 180 180 0 98.438-81.563 180-180 180zM610.438 288.375c-67.5 0-120.938 53.438-120.938 120.938s53.438 120.938 120.938 120.938 120.938-53.438 120.938-120.938c0-64.688-53.438-120.938-120.938-120.938z"  horiz-adv-x="1228" />

    
    <glyph glyph-name="update-id" unicode="&#58981;" d="M694.4 40.533h-556.8c-19.2 0-38.4 22.4-38.4 48v592c0 25.6 16 48 38.4 48h844.8c19.2 0 38.4-22.4 38.4-48v-182.4c0-16 12.8-28.8 28.8-28.8s28.8 12.8 28.8 28.8v182.4c0 57.6-41.6 105.6-96 105.6h-844.8c-51.2 0-96-48-96-105.6v-588.8c0-57.6 41.6-105.6 96-105.6h556.8c16 0 28.8 12.8 28.8 28.8s-12.8 25.6-28.8 25.6zM1142.4 94.933c-12.8 6.4-28.8 3.2-35.2-6.4-28.8-44.8-80-70.4-131.2-70.4-80 0-144 57.6-156.8 131.2h35.2c3.2 3.2 6.4 9.6 3.2 16l-54.4 57.6c-3.2 3.2-12.8 3.2-16 0l-54.4-57.6c-6.4-6.4-3.2-9.6 3.2-16h38.4c12.8-102.4 99.2-182.4 208-182.4 70.4 0 137.6 35.2 176 92.8-3.2 12.8-6.4 28.8-16 35.2zM1209.6 210.133h-35.2c-3.2 112-96 198.4-208 198.4-70.4 0-134.4-35.2-172.8-92.8-6.4-12.8-6.4-28.8 6.4-35.2s28.8-6.4 35.2 6.4c28.8 44.8 80 70.4 131.2 70.4 83.2 0 153.6-67.2 156.8-147.2h-35.2c-3.2-3.2-6.4-9.6-3.2-16l54.4-57.6c3.2-3.2 12.8-3.2 16 0l54.4 57.6c6.4 6.4 3.2 9.6 0 16zM393.6 574.933v-380.8h108.8c67.2 0 118.4 16 156.8 51.2 35.2 32 54.4 80 54.4 144 0 57.6-16 105.6-51.2 137.6s-83.2 48-147.2 48h-121.6zM627.2 386.133c0-83.2-38.4-124.8-118.4-124.8h-35.2v249.6h44.8c70.4-3.2 108.8-44.8 108.8-124.8zM249.6 574.933h80v-380.8h-80z"  horiz-adv-x="1213" />

    
    <glyph glyph-name="reset" unicode="&#58982;" d="M606.933 672h-355.2v108.8c-9.6 9.6-22.4 16-35.2 6.4l-134.4-131.2c-9.6-9.6-9.6-28.8 3.2-38.4l134.4-128c19.2-16 25.6-6.4 35.2 6.4v96h355.2c153.6 0 281.6-118.4 281.6-265.6 0-147.2-124.8-265.6-281.6-265.6h-307.2c-22.4 0-38.4-19.2-38.4-41.6s19.2-41.6 38.4-41.6h304c198.4 0 361.6 153.6 361.6 345.6s-163.2 348.8-361.6 348.8z"  horiz-adv-x="1024" />

    
    <glyph glyph-name="search" unicode="&#58983;" d="M477.866 833.707c-215.040 0-389.12-170.667-389.12-382.293s174.080-382.293 389.12-382.293c215.040 0 389.12 170.667 389.12 382.293 0 211.627-174.080 382.293-389.12 382.293zM477.866 144.214c-174.080 0-314.027 136.533-314.027 307.2s139.947 307.2 314.027 307.2 314.027-136.533 314.027-307.2-139.947-307.2-314.027-307.2zM938.666 28.16l-105.813 105.813c-17.067 17.067-44.373 17.067-61.44 0s-17.067-44.373 0-61.44l105.813-105.813c17.067-17.067 44.373-17.067 61.44 0s17.067 44.373 0 61.44z"  horiz-adv-x="1024" />

    
    <glyph glyph-name="chevron-down" unicode="&#58980;" d="M921.6 605.867c-20.48 20.48-58.027 20.48-81.92-3.413l-351.573-354.987-320.853 354.987c-23.893 23.893-61.44 23.893-81.92 3.413-20.48-20.48-20.48-58.027 3.413-81.92l351.573-385.707c13.653-13.653 30.72-20.48 47.787-17.067 17.067 0 34.133 3.413 47.787 17.067l385.707 385.707c20.48 23.893 23.893 61.44 0 81.92z"  horiz-adv-x="1024" />

    
    <glyph glyph-name="new-window" unicode="&#58984;" d="M856.747 807.253h-450.56c-58.027 0-102.4-44.373-102.4-102.4v-450.56c0-58.027 44.373-102.4 102.4-102.4h450.56c58.027 0 102.4 44.373 102.4 102.4v450.56c0 54.613-47.787 102.4-102.4 102.4zM890.88 254.293c0-20.48-13.653-34.133-34.133-34.133h-450.56c-20.48 0-34.133 13.653-34.133 34.133v450.56c0 20.48 13.653 34.133 34.133 34.133h450.56c20.48 0 34.133-13.653 34.133-34.133v-450.56zM747.52 11.947h-552.96c-20.48 0-34.133 13.653-34.133 34.133v515.413c0 20.48-13.653 34.133-34.133 34.133s-34.133-13.653-34.133-34.133v-518.827c0-58.027 44.373-102.4 102.4-102.4h552.96c20.48 0 34.133 13.653 34.133 34.133s-17.067 37.547-34.133 37.547z"  horiz-adv-x="1024" />

    
    <glyph glyph-name="batch-import" unicode="&#58962;" d="M921.6 382.293c-20.48 0-34.133-13.653-34.133-34.133v-293.547c0-20.48-13.653-34.133-34.133-34.133h-682.667c-20.48 0-34.133 13.653-34.133 34.133v283.307c0 20.48-13.653 34.133-34.133 34.133s-34.133-13.653-34.133-34.133v-283.307c0-58.027 44.373-102.4 102.4-102.4h682.667c58.027 0 102.4 44.373 102.4 102.4v293.547c0 20.48-13.653 34.133-34.133 34.133zM597.333 344.746c-37.547-37.547-78.507-81.92-81.92-88.747s-20.48-6.827-27.307 3.413l-85.333 85.333h-40.96c-13.653 0-23.893-6.827-13.653-17.067l139.947-139.947c6.827-6.827 23.893-6.827 27.307-3.413 6.827 6.827 129.707 136.533 136.533 143.36 6.827 6.827 0 17.067-13.653 17.067h-40.96zM484.693 310.613c6.827-10.24 27.307-10.24 34.133-3.413 10.24 10.24 160.427 170.667 170.667 180.907 6.827 10.24 0 20.48-17.067 20.48h-133.12v310.613c0 17.067-17.067 30.72-37.547 30.72s-37.547-13.653-37.547-30.72v-314.027h-129.707c-13.653 0-27.307-10.24-17.067-20.48 3.413-3.413 153.6-160.427 167.253-174.080z"  horiz-adv-x="1024" />

    
    <glyph glyph-name="batch-export" unicode="&#58965;" d="M372.053 657.067h37.547c37.547 37.547 78.507 81.92 81.92 88.747 3.413 6.827 20.48 6.827 27.307-3.413l85.333-85.333h40.96c13.653 0 23.893 6.827 13.653 17.067l-139.947 139.947c-6.827 6.827-23.893 6.827-27.307 3.413-6.827-6.827-129.707-136.533-136.533-143.36-3.413-10.24 3.413-17.067 17.067-17.067zM918.187 377.173c-20.48 0-34.133-13.653-34.133-34.133v-293.547c0-20.48-13.653-34.133-34.133-34.133h-682.667c-20.48 0-34.133 13.653-34.133 34.133v283.307c0 20.48-13.653 34.133-34.133 34.133s-34.133-13.653-34.133-34.133v-283.307c0-58.027 44.373-102.4 102.4-102.4h682.667c58.027 0 102.4 44.373 102.4 102.4v293.547c0 20.48-17.067 34.133-34.133 34.133zM337.92 489.813h133.12v-310.613c0-17.067 17.067-30.72 37.547-30.72s37.547 13.653 37.547 30.72v314.027h129.707c13.653 0 27.307 10.24 17.067 20.48-6.827 6.827-160.427 163.84-170.667 174.080-6.827 10.24-27.307 10.24-34.133 3.413-10.24-10.24-160.427-170.667-170.667-180.907-3.413-10.24 3.413-20.48 20.48-20.48z"  horiz-adv-x="1024" />

    
    <glyph glyph-name="import" unicode="&#58985;" d="M921.6 390.827c-20.48 0-34.133-13.653-34.133-34.133v-293.547c0-20.48-13.653-34.133-34.133-34.133h-682.667c-20.48 0-34.133 13.653-34.133 34.133v283.307c0 20.48-13.653 34.133-34.133 34.133s-34.133-13.653-34.133-34.133v-283.307c0-58.027 44.373-102.4 102.4-102.4h682.667c58.027 0 102.4 44.373 102.4 102.4v293.547c0 20.48-13.653 34.133-34.133 34.133zM498.347 230.4c6.827-10.24 27.307-10.24 34.133-3.413 10.24 10.24 160.427 170.667 170.667 180.907 6.827 10.24 0 20.48-17.067 20.48h-133.12v385.707c0 20.48-17.067 37.547-37.547 37.547-20.48 0-37.547-17.067-37.547-37.547v-385.707h-129.707c-13.653 0-27.307-10.24-17.067-20.48 0-10.24 153.6-163.84 167.253-177.493z"  horiz-adv-x="1024" />

    
    <glyph glyph-name="export" unicode="&#58986;" d="M921.6 384c-20.48 0-34.133333-13.653333-34.133333-34.133333v-293.546667c0-20.48-13.653333-34.133333-34.133334-34.133333H170.666667c-20.48 0-34.133333 13.653333-34.133334 34.133333v283.306667c0 20.48-13.653333 34.133333-34.133333 34.133333s-34.133333-13.653333-34.133333-34.133333v-283.306667c0-58.026667 44.373333-102.4 102.4-102.4h682.666666c58.026667 0 102.4 44.373333 102.4 102.4V349.866667c0 20.48-13.653333 34.133333-34.133333 34.133333zM341.333333 636.586667h133.12v-385.706667c0-20.48 17.066667-37.546667 37.546667-37.546667 20.48 0 37.546667 17.066667 37.546667 37.546667V636.586667h129.706666c13.653333 0 27.306667 10.24 17.066667 20.48-6.826667 6.826667-160.426667 163.84-170.666667 174.08-6.826667 10.24-27.306667 10.24-34.133333 3.413333-10.24-10.24-160.426667-170.666667-170.666667-180.906667-3.413333-6.826667 3.413333-17.066667 20.48-17.066666z"  horiz-adv-x="1024" />

    
    <glyph glyph-name="separate" unicode="&#58987;" d="M424.064 409.585h-236.679c-47.976 0-89.555 41.579-89.555 89.555v233.482c0 47.976 41.579 89.555 89.555 89.555h236.679c47.976 0 89.555-41.579 89.555-89.555v-233.482c0-47.976-41.579-89.555-89.555-89.555zM187.385 771.001c-19.191 0-38.38-15.992-38.38-38.38v-233.482c0-22.388 15.992-38.38 38.38-38.38h236.679c22.388 0 38.38 15.992 38.38 38.38v233.482c0 22.388-15.992 38.38-38.38 38.38h-236.679zM862.242 409.585h-233.482c-47.976 0-89.555 41.579-89.555 89.555v233.482c0 47.976 41.579 89.555 89.555 89.555h233.482c47.976 0 89.555-41.579 89.555-89.555v-233.482c0-47.976-41.579-89.555-89.555-89.555zM628.761 771.001c-22.388 0-38.38-15.992-38.38-38.38v-233.482c0-22.388 15.992-38.38 38.38-38.38h233.482c22.388 0 38.38 15.992 38.38 38.38v233.482c0 22.388-15.992 38.38-38.38 38.38h-233.482zM424.064-31.79h-236.679c-47.976 0-89.555 41.579-89.555 89.555v233.482c0 47.976 41.579 89.555 89.555 89.555h236.679c47.976 0 89.555-41.579 89.555-89.555v-233.482c0-47.976-41.579-89.555-89.555-89.555zM187.385 329.625c-22.388 0-38.38-15.992-38.38-38.38v-233.482c0-22.388 15.992-38.38 38.38-38.38h236.679c22.388 0 38.38 15.992 38.38 38.38v233.482c0 22.388-15.992 38.38-38.38 38.38h-236.679zM791.877-47.782l-182.307 92.752c-31.984 15.992-44.777 54.372-28.785 86.356l92.753 182.307c15.992 31.984 54.372 44.777 86.356 28.785l182.307-92.752c31.984-15.992 44.777-54.372 28.785-86.356l-92.752-182.307c-15.992-31.984-54.372-44.777-86.356-28.785z"  horiz-adv-x="1024" />

    
    <glyph glyph-name="selected" unicode="&#58988;" d="M510.18 850.034c-262.144 0-473.315-211.171-473.315-473.315s211.171-473.315 473.315-473.315 473.315 211.171 473.315 473.315-211.171 473.315-473.315 473.315zM786.887 478.663l-316.757-313.117c-3.641-3.641-7.282-7.282-14.563-7.282-3.641-3.641-10.923-3.641-14.563-3.641-10.923 0-18.205 3.641-25.486 10.923l-182.045 182.045c-14.563 14.563-14.563 36.409 0 50.973s36.409 14.563 50.973 0l156.558-156.558 291.271 291.271c14.563 14.563 36.409 14.563 50.973 0s18.205-40.050 3.641-54.613z"  horiz-adv-x="1024" />

    
    <glyph glyph-name="change-password" unicode="&#59001;" d="M781.653 513.707h-471.040v64.853c0 109.227 88.747 197.973 197.973 197.973 85.333 0 163.84-58.027 191.147-143.36 6.827-17.067 23.893-27.307 40.96-23.893 17.067 6.827 27.307 23.893 23.893 40.96-34.133 112.64-139.947 191.147-256 191.147-146.773 0-266.24-119.467-266.24-266.24v-64.853h-6.827c-58.027 0-102.4-44.373-102.4-102.4v-351.573c0-58.027 44.373-102.4 102.4-102.4h546.133c58.027 0 102.4 44.373 102.4 102.4v354.987c0 58.027-44.373 102.4-102.4 102.4zM815.787 63.147c0-20.48-13.653-34.133-34.133-34.133h-546.133c-20.48 0-34.133 13.653-34.133 34.133v348.16c0 20.48 13.653 34.133 34.133 34.133h546.133c20.48 0 34.133-13.653 34.133-34.133v-348.16zM529.067 397.653c-88.747 3.413-163.84-64.853-167.253-153.6v-6.827h-37.547c-3.413-3.413-6.827-10.24-3.413-13.653l51.2-54.613c3.413-3.413 10.24-3.413 17.067 0l51.2 54.613c6.827 6.827 3.413 10.24-3.413 13.653h-27.307v10.24c6.827 58.027 51.2 98.987 109.227 98.987 30.72 0 58.027-10.24 78.507-34.133s30.72-47.787 30.72-78.507c0-30.72-10.24-58.027-34.133-78.507-20.48-20.48-47.787-30.72-78.507-30.72-13.653 0-23.893-10.24-23.893-23.893 0-13.653 10.24-23.893 23.893-23.893 88.747 0 160.427 71.68 160.427 160.427 10.24 85.333-58.027 157.013-146.773 160.427z"  horiz-adv-x="1024" />

    
    <glyph glyph-name="image" unicode="&#59002;" d="M963.2 793.6h-777.6c-54.4 0-96-41.6-96-96v-630.4c0-54.4 41.6-96 96-96h777.6c54.4 0 96 41.6 96 96v630.4c0 54.4-41.6 96-96 96zM185.6 729.6h777.6c19.2 0 32-12.8 32-32v-451.2l-96 99.2c-25.6 25.6-64 25.6-86.4 0l-112-115.2c-6.4-6.4-12.8-6.4-19.2 0l-201.6 211.2c-25.6 25.6-64 25.6-89.6 0l-236.8-246.4v502.4c0 19.2 12.8 32 32 32zM963.2 38.4h-777.6c-19.2 0-32 12.8-32 32v51.2s3.2 0 3.2 3.2l268.8 278.4c6.4 6.4 12.8 6.4 19.2 0l204.8-208c25.6-25.6 64-25.6 86.4 0l112 115.2c6.4 6.4 12.8 6.4 19.2 0l131.2-134.4v-105.6c-3.2-19.2-16-32-35.2-32zM736 448c48 0 86.4 38.4 86.4 86.4s-38.4 86.4-86.4 86.4-86.4-38.4-86.4-86.4 38.4-86.4 86.4-86.4zM736 566.4c19.2 0 32-16 32-32s-16-32-32-32-32 16-32 32 16 32 32 32z"  horiz-adv-x="1157" />

    
    <glyph glyph-name="code-view" unicode="&#58969;" d="M1110.4 265.6c0 118.4-96 211.2-214.4 211.2s-214.4-96-214.4-211.2c0-118.4 96-211.2 214.4-211.2 118.4-3.2 214.4 92.8 214.4 211.2zM896 102.4c-89.6 0-163.2 73.6-163.2 160 0 89.6 73.6 160 163.2 160s163.2-73.6 163.2-160-73.6-160-163.2-160zM1145.6 35.2l-60.8 60.8c-9.6 9.6-22.4 9.6-32 0l-3.2-3.2c-9.6-9.6-9.6-22.4 0-32l60.8-60.8c9.6-9.6 22.4-9.6 32 0l3.2 3.2c9.6 9.6 9.6 25.6 0 32zM710.4 38.4h-547.2c-12.8 0-25.6 19.2-25.6 44.8v659.2c0 25.6 12.8 44.8 25.6 44.8h784c12.8 0 25.6-19.2 25.6-44.8v-172.8c0-12.8 9.6-25.6 25.6-25.6s25.6 9.6 25.6 25.6v172.8c0 51.2-32 92.8-73.6 92.8h-787.2c-41.6-3.2-73.6-44.8-73.6-92.8v-659.2c0-51.2 32-92.8 73.6-92.8h547.2c12.8 0 25.6 9.6 25.6 25.6s-12.8 22.4-25.6 22.4zM844.8 524.8v176h-51.2v-188.8zM422.4 700.8h92.8v-576h-92.8zM697.6 492.8v208h-86.4v-278.4zM249.6 700.8h67.2v-576h-67.2z"  horiz-adv-x="1235" />

    
    <glyph glyph-name="code-define" unicode="&#59003;" d="M1100.8 28.8h-323.2c-9.6 0-19.2-9.6-19.2-19.2s9.6-19.2 19.2-19.2h323.2c9.6 0 19.2 9.6 19.2 19.2s-6.4 19.2-19.2 19.2zM899.2 112l211.2 217.6-76.8 83.2-211.2-217.6v-3.2l-44.8-128zM1161.6 435.2l-32 32c-12.8 12.8-32 12.8-44.8 0l-38.4-41.6 76.8-80 38.4 41.6c12.8 12.8 12.8 35.2 0 48zM707.2 35.2h-550.4c-12.8 0-25.6 19.2-25.6 44.8v656c0 25.6 12.8 44.8 25.6 44.8h784c12.8 0 25.6-19.2 25.6-44.8v-172.8c0-12.8 9.6-25.6 25.6-25.6s25.6 9.6 25.6 25.6v172.8c0 51.2-32 92.8-73.6 92.8h-787.2c-38.4 0-73.6-41.6-73.6-92.8v-659.2c0-51.2 32-92.8 73.6-92.8h547.2c12.8 0 25.6 9.6 25.6 25.6s-9.6 25.6-22.4 25.6zM841.6 694.4h-51.2v-348.8l51.2 57.6zM416 694.4h92.8v-576h-92.8zM691.2 278.4l3.2 416h-86.4l-3.2-528zM246.4 694.4h67.2v-576h-67.2z"  horiz-adv-x="1228" />

    
    <glyph glyph-name="print" unicode="&#59004;" d="M823.539 636.693h-34.615v93.461c0 58.846-41.539 103.846-96.923 103.846h-360c-55.385 0-96.923-48.461-96.923-103.846v-93.461h-34.615c-58.846 0-103.846-45-103.846-103.846v-193.846c0-58.846 45-103.846 103.846-103.846h34.615v-197.307c0-58.846 45-103.846 103.846-103.846h346.154c58.846 0 103.846 45 103.846 103.846v197.307h34.615c58.846 0 103.846 45 103.846 103.846v193.846c0 55.385-45 103.846-103.846 103.846zM304.307 730.154c0 17.307 13.846 34.615 27.693 34.615h363.461c13.846 0 24.231-17.307 24.231-34.615v-93.461h-415.385v93.461zM719.693 37.846c0-20.769-13.846-34.615-34.615-34.615h-346.154c-20.769 0-34.615 13.846-34.615 34.615v276.923c0 20.769 13.846 34.615 34.615 34.615h346.154c20.769 0 34.615-13.846 34.615-34.615v-276.923zM858.154 335.539c0-20.769-13.846-34.615-34.615-34.615h-34.615v13.846c0 58.846-45 103.846-103.846 103.846h-346.154c-58.846 0-103.846-45-103.846-103.846v-10.385h-34.615c-20.769 0-34.615 13.846-34.615 34.615v193.846c0 20.769 13.846 34.615 34.615 34.615h623.077c20.769 0 34.615-13.846 34.615-34.615v-197.307zM650.461 276.693h-276.923c-17.307 0-34.615-13.846-34.615-34.615 0-17.307 13.846-34.615 34.615-34.615h276.923c17.307 0 34.615 13.846 34.615 34.615s-13.846 34.615-34.615 34.615zM754.307 494.769c0-19.117 15.498-34.615 34.615-34.615s34.615 15.498 34.615 34.615c0 19.118-15.498 34.615-34.615 34.615-19.118 0-34.615-15.498-34.615-34.615zM650.461 152.077h-276.923c-17.307 0-34.615-13.846-34.615-34.615 0-17.307 13.846-34.615 34.615-34.615h276.923c17.307 0 34.615 13.846 34.615 34.615 0 17.307-13.846 34.615-34.615 34.615z"  horiz-adv-x="1024" />

    
    <glyph glyph-name="qrcode" unicode="&#59006;" d="M207.385 484.385h155.769c51.923 0 96.923 45 96.923 96.923v155.769c0 51.923-45 96.923-96.923 96.923h-155.769c-55.385 0-96.923-45-96.923-96.923v-155.769c0-51.923 41.539-96.923 96.923-96.923zM165.846 737.077c0 24.231 17.307 41.539 41.539 41.539h155.769c24.231 0 41.539-17.307 41.539-41.539v-155.769c0-24.231-17.307-41.539-41.539-41.539h-155.769c-24.231 0-41.539 20.769-41.539 41.539v155.769zM359.693 283.615h-155.769c-51.923 0-96.923-45-96.923-96.923v-155.769c0-51.923 45-96.923 96.923-96.923h155.769c51.923 0 96.923 45 96.923 96.923v155.769c0 51.923-45 96.923-96.923 96.923zM401.231 30.923c0-24.231-17.307-41.539-41.539-41.539h-155.769c-24.231 0-41.539 17.307-41.539 41.539v155.769c0 24.231 17.307 41.539 41.539 41.539h155.769c24.231 0 41.539-17.307 41.539-41.539v-155.769zM667.769 484.385h155.769c51.923 0 96.923 45 96.923 96.923v155.769c0 51.923-45 96.923-96.923 96.923h-155.769c-51.923 0-96.923-45-96.923-96.923v-155.769c0-51.923 41.539-96.923 96.923-96.923zM626.231 737.077c0 24.231 17.307 41.539 41.539 41.539h155.769c24.231 0 41.539-17.307 41.539-41.539v-155.769c0-24.231-17.307-41.539-41.539-41.539h-155.769c-24.231 0-41.539 17.307-41.539 41.539v155.769zM889.307 197.077h-290.769c-17.307 0-34.615-13.846-34.615-34.615v-6.923c0-17.307 13.846-34.615 34.615-34.615h290.769c17.307 0 34.615 13.846 34.615 34.615v6.923c-3.461 17.307-17.307 34.615-34.615 34.615zM889.307 55.154h-290.769c-17.307 0-34.615-13.846-34.615-34.615v-6.923c0-17.307 13.846-34.615 34.615-34.615h290.769c17.307 0 34.615 13.846 34.615 34.615v6.923c-3.461 20.769-17.307 34.615-34.615 34.615zM138.154 349.385h747.693c24.231 0 41.539 13.846 41.539 31.154s-17.307 31.154-41.539 31.154h-747.693c-24.231 3.461-41.539-10.385-41.539-27.693s17.307-34.615 41.539-34.615z"  horiz-adv-x="1024" />

    
    <glyph glyph-name="download" unicode="&#59005;" d="M873.8461540625001 535.3846153125c-18.46153875 169.8461540625-162.46153875 302.769230625-332.3076928125 302.769230625C390.1538459375 841.8461540625001 257.230769375 742.1538459374999 216.6153846875 601.8461540625c-103.3846153125 0-184.6153846875-84.9230765625-184.6153846875-192 0-107.0769234375 81.230769375-192 188.307691875-192h140.3076928125c22.1538459375 0 36.9230765625 18.46153875 36.9230765625 36.9230765625s-18.46153875 36.9230765625-36.9230765625 36.9230775H220.307691875c-59.0769234375 0-110.769230625 51.692308125-110.769230625 110.769230625 0 62.769230625 48 110.769230625 110.769230625 110.769230625H253.53846124999995c18.46153875 0 33.230769375 14.769230624999999 36.9230775 29.538461249999997 18.46153875 118.15384593750001 129.23076937500002 206.769230625 254.769230625 206.769230625 140.30769187500002 0 254.769230625-118.15384593750001 254.769230625-262.15384593749997 0-22.1538459375 18.46153875-36.9230765625 36.9230765625-36.9230765625 44.307691875 0 81.230769375-36.9230765625 81.230769375-81.230769375s-36.9230765625-81.230769375-81.230769375-81.230769375h-169.846153125c-22.1538459375 0-36.9230765625-18.46153875-36.9230775-36.9230765625s18.46153875-36.9230765625 36.9230775-36.9230775h169.846153125c40.6153846875 0 81.230769375 14.769230624999999 110.7692315625 48 29.538461249999997 29.538461249999997 44.307691875 70.15384593750001 44.307691875 114.46153875 0 81.230769375-48 144-118.15384593750001 158.769230625zM681.8461540625 155.0769234375c-11.0769234375 0-22.1538459375-3.692308125-29.5384621875-11.0769234375l-77.53846125-77.53846125v443.0769225c0 22.1538459375-18.46153875 40.6153846875-40.6153846875 40.6153846875s-36.9230765625-18.46153875-36.9230765625-40.6153846875v-443.0769225l-77.53846125 77.53846125c-7.384615312499999 7.384615312499999-18.46153875 11.0769234375-29.5384621875 11.0769234375s-22.1538459375-3.692308125-29.538461249999997-11.0769234375c-14.769230624999999-14.769230624999999-14.769230624999999-44.307691875 0-59.0769234375l144-147.6923071875c7.384615312499999-7.384615312499999 18.46153875-11.0769234375 29.538461249999997-11.0769234375 11.0769234375 0 22.1538459375 3.692308125 29.5384621875 11.0769234375l144 147.6923071875c14.769230624999999 18.46153875 14.769230624999999 44.307691875 0 59.0769234375-3.692308125 7.384615312499999-14.769230624999999 11.0769234375-25.8461540625 11.0769234375z"  horiz-adv-x="1024" />

    
    <glyph glyph-name="news" unicode="&#59007;" d="M512 864C246.15384593750002 864 32 664.6153846875 32 420.9230765625c0-132.9230765625 62.769230625-254.769230625 166.15384593750002-336L168.6153846875-96l221.53846125 84.9230765625c40.6153846875-11.0769234375 81.230769375-14.769230624999999 125.53846218749999-14.769230624999999 265.8461540625 0 480 199.3846153125 480 443.0769234375C992 664.6153846875 777.8461540625 864 512 864zM279.3846153125 361.8461540625c-29.538461249999997 0-55.3846153125 25.8461540625-55.3846153125 55.3846153125s25.8461540625 55.3846153125 55.3846153125 55.3846153125 55.3846153125-25.8461540625 55.3846153125-55.3846153125c3.692308125-29.538461249999997-22.1538459375-55.3846153125-55.3846153125-55.3846153125z m232.61538468749998 0c-29.538461249999997 0-55.3846153125 25.8461540625-55.3846153125 55.3846153125s25.8461540625 55.3846153125 55.3846153125 55.3846153125 55.3846153125-25.8461540625 55.3846153125-55.3846153125-25.8461540625-55.3846153125-55.3846153125-55.3846153125z m232.61538468749998 0c-29.538461249999997 0-55.3846153125 25.8461540625-55.3846153125 55.3846153125s25.8461540625 55.3846153125 55.3846153125 55.3846153125 55.3846153125-25.8461540625 55.3846153125-55.3846153125c3.692308125-29.538461249999997-22.1538459375-55.3846153125-55.3846153125-55.3846153125z"  horiz-adv-x="1027" />

    
    <glyph glyph-name="theme" unicode="&#59008;" d="M512 864C246.15384593750002 864 32 649.8461540625 32 384s214.1538459375-480 480-480c55.3846153125 0 103.3846153125 44.307691875 103.3846153125 103.3846153125 0 36.9230765625-18.46153875 70.15384593750001-51.6923071875 88.6153846875-48 29.538461249999997-66.46153875 92.307691875-36.9230775 140.30769187500002 22.1538459375 36.9230765625 66.46153875 59.0769234375 110.769230625 48h3.692308125c33.230769375-7.384615312499999 70.15384593750001-11.0769234375 110.769230625-11.0769225 132.9230765625 0 240 51.692308125 240 110.769230625 0 265.8461540625-214.1538459375 480-480 480zM301.53846125 468.9230765625c-18.46153875-40.6153846875-66.46153875-62.769230625-107.0769225-44.307691875-40.6153846875 18.46153875-62.769230625 66.46153875-44.3076928125 107.0769234375 18.46153875 44.307691875 66.46153875 62.769230625 107.0769234375 48 44.307691875-18.46153875 62.769230625-66.46153875 44.307691875-110.7692315625z m125.53846218749999 125.53846218749999c-44.307691875-18.46153875-92.307691875 0-110.7692315625 44.307691875-14.769230624999999 40.6153846875 3.692308125 88.6153846875 44.3076928125 107.0769234375 40.6153846875 18.46153875 88.6153846875-3.692308125 107.0769234375-44.3076928125 18.46153875-44.307691875 0-92.307691875-40.6153846875-107.0769225z m280.6153846875 44.307691875c-18.46153875-40.6153846875-66.46153875-62.769230625-107.0769234375-44.307691875s-62.769230625 66.46153875-44.3076928125 107.0769225c18.46153875 40.6153846875 66.46153875 62.769230625 107.0769234375 44.3076928125 40.6153846875-18.46153875 59.0769234375-66.46153875 44.3076928125-107.0769234375z m169.846153125-158.769230625c-11.0769234375-44.307691875-59.0769234375-70.15384593750001-99.69230718749999-55.3846153125s-70.15384593750001 59.0769234375-55.3846153125 99.69230718749999c11.0769234375 44.307691875 59.0769234375 70.15384593750001 99.69230718749999 55.38461625 25.8461540625-7.384615312499999 44.307691875-25.8461540625 55.3846153125-48 3.692308125-14.769230624999999 3.692308125-33.230769375 0-51.692308125z"  horiz-adv-x="1024" />

    
    <glyph glyph-name="switch" unicode="&#59009;" d="M68.9230765625 535.3846153125h882.46153875c11.0769234375 0 22.1538459375 3.692308125 29.538461249999997 11.0769234375 14.769230624999999 14.769230624999999 14.769230624999999 36.9230765625 0 51.6923071875l-184.6153846875 192c-14.769230624999999 14.769230624999999-36.9230765625 14.769230624999999-51.6923071875 0-14.769230624999999-14.769230624999999-14.769230624999999-36.9230765625 0-51.6923071875l121.8461540625-125.53846218749999H68.9230765625c-18.46153875 0-36.9230765625-18.46153875-36.9230765625-36.9230765625v-3.692308125c0-22.1538459375 18.46153875-36.9230765625 36.9230765625-36.9230765625zM951.3846153125 254.7692306250001H72.61538468750001c-7.384615312499999 0-11.0769234375 0-18.46153875-3.6923071875s-14.769230624999999-11.0769234375-18.461537812499998-22.153846875c-3.692308125-11.0769234375-3.692308125-18.46153875 0-29.538461249999997 3.692308125-3.692308125 3.692308125-11.0769234375 11.0769225-14.769230624999999l184.6153846875-188.3076928125c14.769230624999999-14.769230624999999 36.9230765625-14.769230624999999 51.692308125 0 14.769230624999999 14.769230624999999 14.769230624999999 36.9230765625 0 51.692308125l-121.8461540625 125.53846125h790.1538459375c18.46153875 0 36.9230765625 18.46153875 36.9230765625 36.9230775v3.6923071875c0 22.1538459375-18.46153875 40.6153846875-36.9230765625 40.6153846875z"  horiz-adv-x="1024" />

    
    <glyph glyph-name="user" unicode="&#59010;" d="M596.9230765625-96H438.1538459375c-169.8461540625 0-313.8461540625 0-313.8461540625 118.15384593750001v14.769230624999999c0 169.8461540625 140.30769187500002 310.15384593749997 313.8461540625 310.153846875h162.46153875c173.53846124999998 0 313.8461540625-140.30769187500002 313.8461540625-310.153846875v-14.769230624999999c0-118.15384593750001-155.0769234375-118.15384593750001-317.5384621875-118.15384593750001zM249.84615406250003 609.230769375a258.46153875000005 254.76923062499995 0 1 1 516.9230765625 0 258.46153875000005 254.76923062499995 0 1 1-516.9230765625 0Z"  horiz-adv-x="1024" />

    
    <glyph glyph-name="drop" unicode="&#59011;" d="M747.3846157226562 228.23076943359376h-173.07692314453126V799.3846157226562c0 17.307692578125-17.307692578125 34.61538427734375-34.61538515625 34.61538427734375h-58.8461537109375c-17.307692578125 0-34.61538427734375-17.307692578125-34.61538427734375-34.61538427734375v-571.1538462890624H269.69230742187494c-17.307692578125-17.307692578125-27.692307421874997-41.5384611328125-10.38461484375-58.8461537109375l214.61538427734376-221.53846201171876c17.307692578125-17.307692578125 45-17.307692578125 65.76923056640626 0l214.61538515625 221.53846201171876c27.692307421874997 27.692307421874997 10.38461572265625 41.5384611328125-6.923076855468749 58.8461537109375z"  horiz-adv-x="1024" />

    
    <glyph glyph-name="screen-1" unicode="&#58894;" d="M52.968485919992645 843.0315140800074v-918.0630281600147h918.0630281600147V843.0315140800074H52.968485919992645z m885.2750622373442-885.2750622373442H85.75645184266335V810.2435481573366h852.4870963146733v-852.4870963146733zM151.3323822151076 744.6676177848924h721.3352355697848v-721.3352355697848H151.3323822151076z"  horiz-adv-x="1024" />

    
    <glyph glyph-name="screen-full" unicode="&#58895;" d="M85.75645184266335 810.2435481573366h98.36389482221809V843.0315140800074H52.968485919992645v-131.1518607448887h32.787965922670615zM938.2435481573368 843.0315140800074h-98.36389482221809v-32.787965922670615h98.36389482221809v-98.36389482221809h32.787965922670615V843.0315140800074zM85.75645184266335 56.120346664881254H52.968485919992645v-131.1518607448887h131.1518607448887v32.787965922670615h-98.36389482221809zM938.2435481573368-42.24354815733682h-98.36389482221809v-32.787965922670615h131.1518607448887v131.1518607448887h-32.787965922670615zM184.1203466648813 711.8796533351187h655.7593066702373v-655.7593066702373H184.1203466648813z"  horiz-adv-x="1024" />

    
    <glyph glyph-name="screen-9" unicode="&#58896;" d="M171.00516176871002 731.552431415824h193.44899452506604v-193.44899452506604h-193.44899452506604zM420.1936968894191 731.552431415824h193.4489959979629v-193.44899452506604h-193.4489959979629zM666.1034368907582 731.552431415824h193.44899452506604v-193.44899452506604h-193.44899452506604zM171.00516176871002 479.08509970284797h193.44899452506604V285.63610370488504h-193.44899452506604zM420.1936968894191 479.08509970284797h193.4489959979629V285.63610370488504h-193.4489959979629zM666.1034368907582 479.08509970284797h193.44899452506604V285.63610370488504h-193.44899452506604zM171.00516176871002 226.61776651697483h193.44899452506604v-193.44899452506604h-193.44899452506604zM420.1936968894191 226.61776651697483h193.4489959979629v-193.44899452506604h-193.4489959979629zM666.1034368907582 226.61776651697483h193.44899452506604v-193.44899452506604h-193.44899452506604zM52.968485919992645 843.0315140800074v-918.0630281600147h918.0630281600147V843.0315140800074H52.968485919992645z m885.2750622373442-885.2750622373442H85.75645184266335V810.2435481573366h852.4870963146733v-852.4870963146733z"  horiz-adv-x="1024" />

    
    <glyph glyph-name="screen-4" unicode="&#58898;" d="M862.8312280080914 29.8899753996418l-321.32205867768766-1.2558674125514404e-13L541.5091693304036 351.21203407732935l321.32205867768766 1.2558674125514404e-13zM862.8312280080911 426.62435422657495l-321.32205867768766-1.2558674125514404e-13-1.2558674125514404e-13 321.3220601505845 321.32205867768766 1.2558674125514404e-13zM469.37564577342533 29.8899753996418l-321.3220601505845-1.2558674125514404e-13L148.05358562284061 351.21203407732924l321.3220601505845 1.2558674125514404e-13zM469.3756457734251 426.6243542265749l-321.3220601505845-1.2558674125514404e-13-1.2558674125514404e-13 321.3220601505845 321.3220601505845 1.2558674125514404e-13zM971.0315140800076-75.03151408000701l-2.511734825102881e-13 918.0630281600147-918.0630281600147-2.511734825102881e-13L52.968485919992816-75.03151408000758 971.0315140800076-75.03151408000701z m-885.2750622373444 885.275062237344L938.2435481573366 810.2435481573368 938.2435481573368-42.24354815733659l-852.4870963146733-3.348979766803841e-13-3.348979766803841e-13 852.4870963146733z"  horiz-adv-x="1024" />

    
    <glyph glyph-name="camera" unicode="&#58899;" d="M928.1885729229825 6.282640426284615h-839.3719119094678c-24.481681222260722 0-45.4659778416799 17.48691515875766-45.4659778416799 41.96859480992839V628.8168075093372c0 24.481681222260722 17.48691515875766 45.4659778416799 45.4659778416799 45.4659778416799h185.36129754065124l69.94765906394063 69.94766063503064c6.994766063503064 10.492149095254597 24.481681222260722 17.48691515875766 34.97383031751532 17.486913587667654h262.30372109700494c10.492149095254597 0 24.481681222260722-6.994766063503064 27.979064254012258-10.492149095254597l80.43980815919525-76.9424251274437h185.36129754065124c24.481681222260722 0 45.4659778416799-17.48691515875766 45.4659778416799-45.4659778416799v-580.5655722731243c-3.497383031751532-24.481681222260722-20.984298190509193-41.96859480992839-52.46074390518298-41.96859480992839zM512 614.8272753823311c-143.39270115963282 0-262.3037226680949-115.41363847671056-262.3037226680949-262.3037226680949s115.41363847671056-262.3037226680949 262.3037226680949-262.30372109700494 262.3037226680949 115.41363847671056 262.3037226680949 262.30372109700494-118.91102150846211 262.3037226680949-262.3037226680949 262.3037226680949z m0-433.67548651064993c-97.92672331795289 0-174.8691484453966 76.9424251274437-174.8691484453966 174.86914687430655s76.9424251274437 174.8691484453966 174.8691484453966 174.8691484453966 174.8691484453966-76.9424251274437 174.8691484453966-174.8691484453966-76.9424251274437-174.8691484453966-174.8691484453966-174.86914687430655z"  horiz-adv-x="1024" />

    
    <glyph glyph-name="video" unicode="&#58900;" d="M831.9999996875-31.999999687500008h-41.5999996875l-67.2 192c105.6 67.2 172.79999999999998 185.5999996875 172.79999999999998 319.9999996875 0 211.2-172.79999999999998 384-384 384S128 691.2 128 480c0-134.4 70.3999996875-252.79999968749996 172.79999999999998-319.9999996875l-67.2-192H192.0000003125c-19.2 0-31.9999996875-12.7999996875-32.000000625-32.000000625s12.7999996875-31.9999996875 32.000000625-31.9999996875h639.999999375c19.2 0 31.9999996875 12.7999996875 32.000000625 31.9999996875s-16.0000003125 31.9999996875-32.000000625 32.000000625zM192.0000003125 480C192.0000003125 655.9999996875 336.0000003125 799.9999996875 512 799.9999996875s319.9999996875-144 319.9999996875-319.9999996875c0-105.6-51.1999996875-198.4000003125-131.199999375-256.0000003125-16.0000003125-12.7999996875-35.2000003125-22.3999996875-57.599999999999994-31.9999996875-38.4-22.3999996875-83.20000031250001-31.9999996875-131.20000031249998-31.9999996875s-92.8000003125 9.6-131.20000031249998 28.799999999999997c-19.2 9.6-38.4 19.2-57.599999999999994 31.9999996875C243.2 281.59999968750003 192.0000003125 374.4 192.0000003125 480z m108.79999968749999-511.9999996875l57.599999999999994 159.999999375c48-19.2 99.1999996875-31.9999996875 153.6-31.9999996875s105.6 12.7999996875 153.6 31.9999996875l57.599999999999994-159.999999375H300.8z m211.2 271.9999996875c44.8000003125 0 86.39999999999999 19.2 118.3999996875 48 35.2000003125 31.9999996875 57.599999999999994 76.8 57.599999999999994 127.9999996875 0 96-76.8 172.79999999999998-172.79999999999998 172.79999999999998S339.20000000000005 511.9999996875 339.20000000000005 415.9999996875c0-51.1999996875 22.3999996875-96 57.599999999999994-127.9999996875 28.799999999999997-28.799999999999997 70.3999996875-48 115.19999999999999-48z m0 284.8000003125c60.799999687500005 0 108.79999968749999-48 108.79999968749999-108.80000062500001s-48-108.79999968749999-108.79999968749999-108.79999968749999-108.79999968749999 48-108.79999968749999 108.79999968749999 48 108.79999968749999 108.79999968749999 108.80000062500001zM464 672c0 25.6000003125 22.3999996875 48 48 48s48-19.2 48-48c0-25.6000003125-19.2-48-48-48-25.6000003125 0-48 22.3999996875-48 48z"  horiz-adv-x="1024" />

    
    <glyph glyph-name="video-disabled" unicode="&#58901;" d="M681.6000003125 441.6c-150.4000003125 0-268.8-121.60000031250001-268.8-268.8s121.60000031250001-268.8 268.8-268.8 268.8 121.60000031250001 268.8 268.8-118.3999996875 268.8-268.8 268.8z m-208.0000003125-268.8c0 115.19999999999999 92.8000003125 211.2 211.2 211.2 48 0 89.5999996875-16.0000003125 124.80000000000001-41.5999996875l-291.1999996875-291.20000062500003c-28.799999999999997 31.9999996875-44.8000003125 76.8-44.8000003125 121.60000031250001z m208.0000003125-208.0000003125c-48 0-89.5999996875 16.0000003125-124.80000000000001 41.600000625l291.1999996875 291.1999996875c25.6000003125-35.2000003125 41.5999996875-76.8 41.5999996875-124.80000000000001 3.1999996875-115.19999999999999-89.5999996875-208.0000003125-207.99999937500002-208.0000003125z m-291.20000062500003 57.599999999999994c9.6-22.3999996875 22.3999996875-41.5999996875 38.4-60.799999687500005H115.20000031249998c-16.0000003125 0-28.799999999999997 12.7999996875-28.799999999999997 28.799999999999997s12.7999996875 28.799999999999997 28.799999999999997 28.799999999999997h38.4l63.999999375 179.2000003125c-99.1999996875 64.00000031249999-163.20000000000002 175.99999968749998-163.20000000000002 300.7999996875C54.399999687499985 700.8 214.39999999999998 864 412.8000003125 864s358.39999968750004-160.0000003125 358.39999968750004-358.39999968750004v-12.800000625c-19.2 6.4000003125-38.4 9.6-57.599999999999994 9.6 0 166.3999996875-134.4 300.7999996875-300.7999996875 300.800000625s-300.7999996875-134.4-300.800000625-300.800000625c0-99.1999996875 48-185.5999996875 124.80000000000001-240 16.0000003125-12.7999996875 35.2000003125-22.3999996875 51.200000625-31.9999996875 19.2-9.6 41.5999996875-16.0000003125 67.2-22.3999996875 0-12.7999996875-3.1999996875-22.3999996875-3.200000625-35.2000003125v-25.6000003125c-28.799999999999997 6.4000003125-57.599999999999994 12.7999996875-86.39999999999999 25.6000003125l-54.399999375-150.4000003125h179.199999375zM310.4 441.6c0-51.1999996875 38.4-96 89.5999996875-102.40000031250001-9.6-16.0000003125-19.2-35.2000003125-25.599999375-54.399999375-25.6000003125 6.4000003125-51.1999996875 19.2-70.400000625 38.4-31.9999996875 28.799999999999997-54.400000312500005 73.60000031249999-54.399999375 118.3999996875 0 89.5999996875 73.60000031249999 163.20000000000002 163.20000000000002 163.20000000000002 76.8 0 140.8000003125-51.1999996875 156.7999996875-124.80000000000001-19.2-6.4000003125-38.4-16.0000003125-54.400000312500005-25.6000003125-6.4000003125 51.1999996875-51.1999996875 89.5999996875-102.399999375 89.600000625-57.599999999999994 3.1999996875-102.40000031250001-44.8000003125-102.40000031250001-102.40000031250001zM412.8000003125 640.0000003125c-25.6000003125 0-44.8000003125 19.2-44.8000003125 44.799999375 0 25.6000003125 19.2 44.8000003125 44.8000003125 44.8000003125 25.6000003125 0 44.8000003125-19.2 44.799999375-44.8000003125 0-25.6000003125-19.2-44.8000003125-44.799999375-44.799999375z"  horiz-adv-x="1024" />

    
    <glyph glyph-name="screen-16" unicode="&#58920;" d="M119.85593522 776.14406478h157.52795748v-157.52795748h-157.52795748zM327.65877232 776.14406478h157.52795895v-157.52795748H327.65877232zM535.46161088 776.14406478h157.52795748v-157.52795748h-157.52795748zM746.6161073 776.14406478h157.52795748v-157.52795748h-157.52795748zM119.85593522 568.34122768h157.52795748v-157.52795895h-157.52795748zM327.65877232 568.34122768h157.52795895v-157.52795895H327.65877232zM535.46161088 568.34122768h157.52795748v-157.52795895h-157.52795748zM746.6161073 568.34122768h157.52795748v-157.52795895h-157.52795748zM119.85593522 360.53838912000003h157.52795748v-157.52795748h-157.52795748zM327.65877232 360.53838912000003h157.52795895v-157.52795748H327.65877232zM535.46161088 360.53838912000003h157.52795748v-157.52795748h-157.52795748zM746.6161073 360.53838912000003h157.52795748v-157.52795748h-157.52795748zM119.85593522 149.38389270000005h157.52795748v-157.52795748h-157.52795748zM327.65877232 149.38389270000005h157.52795895v-157.52795748H327.65877232zM535.46161088 149.38389270000005h157.52795748v-157.52795748h-157.52795748zM746.6161073 149.38389270000005h157.52795748v-157.52795748h-157.52795748zM42.76778542 853.23221458v-938.46442916h938.46442916v938.46442916h-938.46442916z m904.94784179-904.94784179h-871.43125442v871.43125442h871.43125442v-871.43125442z"  horiz-adv-x="1024" />

    
    <glyph glyph-name="operate" unicode="&#58913;" d="M512 384m-96.42857168 0a96.42857168 96.42857168 0 1 1 192.85714336 0 96.42857168 96.42857168 0 1 1-192.85714336 0ZM512 30.428571680000005m-96.42857168 0a96.42857168 96.42857168 0 1 1 192.85714336 0 96.42857168 96.42857168 0 1 1-192.85714336 0ZM512 737.57142832m-96.42857168 0a96.42857168 96.42857168 0 1 1 192.85714336 0 96.42857168 96.42857168 0 1 1-192.85714336 0Z"  horiz-adv-x="1024" />

    
    <glyph glyph-name="more" unicode="&#58914;" d="M512-66c-247.5 0-450 202.5-450 450s202.5 450 450 450 450-202.5 450-450-202.5-450-450-450zM512 777.75C292.625 777.75 118.25 603.375 118.25 384s174.375-393.75 393.75-393.75 393.75 174.375 393.75 393.75-174.375 393.75-393.75 393.75zM281.375 384m-56.25 0a56.25 56.25 0 1 1 112.5 0 56.25 56.25 0 1 1-112.5 0ZM512 384m-56.25 0a56.25 56.25 0 1 1 112.5 0 56.25 56.25 0 1 1-112.5 0ZM748.25 384m-56.25 0a56.25 56.25 0 1 1 112.5 0 56.25 56.25 0 1 1-112.5 0Z"  horiz-adv-x="1024" />

    
    <glyph glyph-name="detail1" unicode="&#58915;" d="M512-66c-247.5 0-450 202.5-450 450s202.5 450 450 450 450-202.5 450-450-202.5-450-450-450zM512 777.75C292.625 777.75 118.25 603.375 118.25 384s174.375-393.75 393.75-393.75 393.75 174.375 393.75 393.75-174.375 393.75-393.75 393.75zM512 558.375m-56.25 0a56.25 56.25 0 1 1 112.5 0 56.25 56.25 0 1 1-112.5 0ZM512 102.75c-33.75 0-56.25 22.5-56.25 56.25V384c0 28.125 22.5 56.25 56.25 56.25 28.125 0 56.25-22.5 56.25-56.25v-225c0-33.75-22.5-56.25-56.25-56.25z"  horiz-adv-x="1024" />

    
    <glyph glyph-name="upload" unicode="&#58990;" d="M228.430769 194.953846h-27.569231C86.646154 198.89230799999996 0 289.47692300000006 0 399.753846c0 110.276923 90.584615 200.861538 196.923077 204.8C240.246154 754.215385 382.030769 860.553846 543.507692 860.553846c181.169231 0 334.769231-141.784615 354.461539-322.953846 74.830769-19.692308 126.030769-82.707692 126.030769-165.415385 0-47.261538-15.753846-90.584615-47.261538-122.092307-31.507692-31.507692-70.892308-51.2-118.153847-51.2h-63.015384c-23.630769 0-39.384615 19.692308-39.384616 39.384615s19.692308 39.384615 39.384616 39.384615h63.015384c47.261538 0 86.646154 39.384615 86.646154 86.646154s-39.384615 86.646154-86.646154 86.646154c-23.630769 0-39.384615 19.692308-39.384615 39.384616 0 153.6-122.092308 279.630769-271.753846 279.630769-133.907692 0-252.061538-94.523077-271.753846-220.553846-3.938462-19.692308-19.692308-31.507692-39.384616-31.507693h-35.446154c-63.015385 0-118.153846-55.138462-118.153846-118.153846 0-66.953846 51.2-118.153846 118.153846-118.153846h31.507693c23.630769 0 39.384615-19.692308 39.384615-39.384615s-19.692308-47.261538-43.323077-47.261539zM512 466.707692c11.815385 0 23.630769-3.938462 31.507692-11.815384l153.6-157.538462c15.753846-15.753846 15.753846-47.261538 0-63.015384-7.876923-7.876923-19.692308-11.815385-31.507692-11.815385s-23.630769 3.938462-31.507692 11.815385L551.384615 317.046154v-354.461539c0-23.630769-19.692308-43.323077-43.323077-43.323077s-43.323077 19.692308-43.323076 43.323077v354.461539l-82.707693-82.707692c-7.876923-7.876923-19.692308-11.815385-31.507692-11.815385s-15.753846 3.938462-23.630769 11.815385c-15.753846 15.753846-15.753846 43.323077 0 63.015384l153.6 157.538462c7.876923 7.876923 19.692308 11.815385 31.507692 11.815384z"  horiz-adv-x="1024" />

    
    <glyph glyph-name="record" unicode="&#58916;" d="M757.45454521-66H266.54545479c-90 0-163.63636347 73.63636348-163.63636348 163.63636347V670.36363652c0 90 73.63636348 163.63636347 163.63636348 163.63636348h490.90909042c90 0 163.63636347-73.63636348 163.63636348-163.63636347v-572.72727306c0-90-73.63636348-163.63636347-163.63636348-163.63636347zM266.54545479 752.18181826c-45 0-81.81818174-36.81818174-81.81818174-81.81818173v-572.72727305c0-45 36.81818174-81.81818174 81.81818174-81.81818174h490.90909042c45 0 81.81818174 36.81818174 81.81818174 81.81818174V670.36363652c0 45-36.81818174 81.81818174-81.81818174 81.81818174H266.54545479zM311.54545479 592.63636348h400.90909042v-81.81818174H311.54545479zM311.54545479 359.45454521h400.90909042v-81.81818173H311.54545479zM921.09090869-66h-265.90909043v265.90909131H921.09090869V-66z m-184.09090869 81.81818174H839.27272695v102.27272695h-102.27272695V15.81818174z"  horiz-adv-x="1024" />

    
    <glyph glyph-name="sunshine" unicode="&#58893;" d="M523.80684642 166.72403911000004c-125.93268306 0-225.35322231 102.73455724-225.35322232 225.35322232s102.73455724 225.35322231 225.35322232 225.35322232 225.35322231-102.73455724 225.35322233-225.35322232-99.42053925-225.35322231-225.35322233-225.35322232z m0 387.74010311c-89.47848533 0-159.07286282-72.90839547-159.07286281-159.07286281s72.90839547-159.07286282 159.07286281-159.07286283 159.07286282 72.90839547 159.07286282 159.07286283-69.59437748 159.07286282-159.07286282 159.07286281zM523.80684642 667.14075338c-19.88410785 0-33.14017975 13.2560719-33.14017975 33.14017976V819.58558024c0 19.88410785 13.2560719 33.14017975 33.14017975 33.14017976s33.14017975-13.2560719 33.14017975-33.14017976v-122.61866508c0-16.57008987-16.57008987-29.82616178-33.14017975-29.82616178zM308.39567803 577.66226805c-9.94205392 0-16.57008987 3.31401797-23.19812583 9.94205392l-86.16446736 86.16446736c-13.2560719 13.2560719-13.2560719 33.14017975 0 46.39625165s33.14017975 13.2560719 46.39625166 0l86.16446735-86.16446735c13.2560719-13.2560719 13.2560719-33.14017975 0-46.39625166-6.62803595-6.62803595-16.57008987-9.94205392-23.19812582-9.94205392zM218.9171927 362.25109964H96.29852761c-19.88410785 0-33.14017975 13.2560719-33.14017976 33.14017977s13.2560719 33.14017975 33.14017976 33.14017975h122.61866509c19.88410785 0 33.14017975-13.2560719 33.14017975-33.14017975s-16.57008987-33.14017975-33.14017975-33.14017977zM222.23121067 60.675463899999954c-9.94205392 0-16.57008987 3.31401797-23.19812583 9.94205393-13.2560719 13.2560719-13.2560719 33.14017975 0 46.39625165l86.16446736 86.16446735c13.2560719 13.2560719 33.14017975 13.2560719 46.39625165 0 13.2560719-13.2560719 13.2560719-33.14017975 0-46.39625165l-86.16446735-86.16446735c-6.62803595-6.62803595-16.57008987-9.94205392-23.19812583-9.94205393zM523.80684642-65.25721916999998c-19.88410785 0-33.14017975 13.2560719-33.14017975 33.14017975v122.6186651c0 19.88410785 13.2560719 33.14017975 33.14017975 33.14017975s33.14017975-13.2560719 33.14017975-33.14017975v-122.6186651c0-19.88410785-16.57008987-33.14017975-33.14017975-33.14017975zM825.38248217 60.675463899999954c-9.94205392 0-16.57008987 3.31401797-23.19812581 9.94205393l-86.16446738 86.16446735c-13.2560719 13.2560719-13.2560719 33.14017975 0 46.39625165 13.2560719 13.2560719 33.14017975 13.2560719 46.39625166 0l86.16446736-86.16446735c13.2560719-13.2560719 13.2560719-33.14017975 0-46.39625165-6.62803595-6.62803595-16.57008987-9.94205392-23.19812583-9.94205393zM951.31516524 362.25109964h-122.61866509c-19.88410785 0-33.14017975 13.2560719-33.14017975 33.14017977s13.2560719 33.14017975 33.14017975 33.14017975h122.61866509c19.88410785 0 33.14017975-13.2560719 33.14017974-33.14017975s-16.57008987-33.14017975-33.14017974-33.14017977zM739.21801482 577.66226805c-9.94205392 0-16.57008987 3.31401797-23.19812584 9.94205392-13.2560719 13.2560719-13.2560719 33.14017975 0 46.39625166l86.16446738 86.16446735c13.2560719 13.2560719 33.14017975 13.2560719 46.39625164 0s13.2560719-33.14017975 0-46.39625165l-86.16446736-86.16446736c-6.62803595-6.62803595-13.2560719-9.94205392-23.19812582-9.94205392z"  horiz-adv-x="1024" />

    
    <glyph glyph-name="warn" unicode="&#58881;" d="M814.08 450.56h-204.8L680.96 896 209.92 317.44000000000005h235.52L378.88-128l435.2 578.56z m0 0"  horiz-adv-x="1024" />

    
    <glyph glyph-name="revise" unicode="&#58883;" d="M30.673989 711.7004489999999c-51.123315-117.583625-35.786321-255.616575 61.347978-352.750873C178.931603 272.03994 306.73989 246.47828300000003 414.098852 282.26460299999997l368.087868-368.087868c56.235647-56.235647 143.145282-56.235647 199.380929 0s56.235647 143.145282 0 199.380929L613.47978 481.645532c35.786321 107.358962 10.224663 235.167249-76.684972 322.076884C439.660509 900.856715 296.515227 921.306041 184.043934 865.070394c0 0 40.898652-46.010984 81.797304-86.909635 40.898652-40.898652 40.898652-102.24663 0-148.257614-46.010984-40.898652-107.358962-40.898652-148.257613 0C76.684973 670.801797 46.010984 691.251123 30.673989 711.7004489999999z m0 0"  horiz-adv-x="1025" />

    
    <glyph glyph-name="type" unicode="&#59027;" d="M367.8208 417.64181333H140.84778667c-39.3216 0-71.21578667 31.89418667-71.21578667 71.21578667V715.83061333c0 39.3216 31.89418667 71.21578667 71.21578667 71.21578667H367.8208c39.3216 0 71.21578667-31.89418667 71.21578667-71.21578667V488.8576c0-39.10314667-31.89418667-71.21578667-71.21578667-71.21578667zM140.84778667 732.43306667c-9.17504 0-16.60245333-7.42741333-16.60245334-16.60245334V488.8576c0-9.17504 7.42741333-16.60245333 16.60245334-16.60245333H367.8208c9.17504 0 16.60245333 7.42741333 16.60245333 16.60245333V715.83061333c0 9.17504-7.42741333 16.60245333-16.60245333 16.60245334H140.84778667zM741.376 370.67434667c-19.00544 0-36.91861333 7.42741333-50.46272 20.75306666l-160.5632 160.5632c-27.74357333 27.74357333-27.74357333 72.96341333 0 100.70698667l160.5632 160.5632c13.54410667 13.54410667 31.23882667 20.75306667 50.46272 20.75306667s36.91861333-7.42741333 50.46272-20.75306667l160.5632-160.5632c27.74357333-27.74357333 27.74357333-72.96341333 0-100.70698667L791.62026667 391.64586667c-13.32565333-13.54410667-31.23882667-20.97152-50.24426667-20.97152zM741.376 779.40053333c-4.36906667 0-8.51968-1.74762667-11.79648-4.80597333l-160.5632-160.5632c-6.5536-6.5536-6.5536-17.03936 0-23.37450667l160.5632-160.5632c3.05834667-3.05834667 7.20896-4.80597333 11.79648-4.80597333 4.36906667 0 8.51968 1.74762667 11.79648 4.80597333l160.5632 160.5632c6.5536 6.5536 6.5536 17.03936 0 23.37450667l-160.5632 160.5632c-3.2768 3.05834667-7.42741333 4.80597333-11.79648 4.80597333zM367.8208-69.29066666999995H140.84778667c-39.3216 0-71.21578667 31.89418667-71.21578667 71.21578667V228.89813332999995c0 39.3216 31.89418667 71.21578667 71.21578667 71.21578667H367.8208c39.3216 0 71.21578667-31.89418667 71.21578667-71.21578667v-226.97301333c0-39.3216-31.89418667-71.21578667-71.21578667-71.21578667zM140.84778667 245.50058666999996c-9.17504 0-16.60245333-7.42741333-16.60245334-16.60245334v-226.97301333c0-9.17504 7.42741333-16.60245333 16.60245334-16.60245333H367.8208c9.17504 0 16.60245333 7.42741333 16.60245333 16.60245333V228.89813332999995c0 9.17504-7.42741333 16.60245333-16.60245333 16.60245334H140.84778667zM854.75328-69.29066666999995H627.78026667c-39.3216 0-71.21578667 31.89418667-71.21578667 71.21578667V228.89813332999995c0 39.3216 31.89418667 71.21578667 71.21578667 71.21578667h226.97301333c39.3216 0 71.21578667-31.89418667 71.21578667-71.21578667v-226.97301333c0-39.3216-31.89418667-71.21578667-71.21578667-71.21578667zM627.78026667 245.50058666999996c-9.17504 0-16.60245333-7.42741333-16.60245334-16.60245334v-226.97301333c0-9.17504 7.42741333-16.60245333 16.60245334-16.60245333h226.97301333c9.17504 0 16.60245333 7.42741333 16.60245333 16.60245333V228.89813332999995c0 9.17504-7.42741333 16.60245333-16.60245333 16.60245334H627.78026667z"  horiz-adv-x="1024" />

    
    </font>
</defs>
</svg>
