<?xml version="1.0" standalone="no"?>
<!DOCTYPE svg PUBLIC "-//W3C//DTD SVG 1.1//EN" "http://www.w3.org/Graphics/SVG/1.1/DTD/svg11.dtd" >
<!--
2013-9-30: Created.
-->
<svg>
<metadata>
Created by iconfont
</metadata>
<defs>

<font id="cjmWorkFontFamily" horiz-adv-x="1024" >
  <font-face
    font-family="cjmWorkFontFamily"
    font-weight="500"
    font-stretch="normal"
    units-per-em="1024"
    ascent="896"
    descent="-128"
  />
    <missing-glyph />
    
    <glyph glyph-name="x" unicode="x" horiz-adv-x="1001"
d="M281 543q-27 -1 -53 -1h-83q-18 0 -36.5 -6t-32.5 -18.5t-23 -32t-9 -45.5v-76h912v41q0 16 -0.5 30t-0.5 18q0 13 -5 29t-17 29.5t-31.5 22.5t-49.5 9h-133v-97h-438v97zM955 310v-52q0 -23 0.5 -52t0.5 -58t-10.5 -47.5t-26 -30t-33 -16t-31.5 -4.5q-14 -1 -29.5 -0.5
t-29.5 0.5h-32l-45 128h-439l-44 -128h-29h-34q-20 0 -45 1q-25 0 -41 9.5t-25.5 23t-13.5 29.5t-4 30v167h911zM163 247q-12 0 -21 -8.5t-9 -21.5t9 -21.5t21 -8.5q13 0 22 8.5t9 21.5t-9 21.5t-22 8.5zM316 123q-8 -26 -14 -48q-5 -19 -10.5 -37t-7.5 -25t-3 -15t1 -14.5
t9.5 -10.5t21.5 -4h37h67h81h80h64h36q23 0 34 12t2 38q-5 13 -9.5 30.5t-9.5 34.5q-5 19 -11 39h-368zM336 498v228q0 11 2.5 23t10 21.5t20.5 15.5t34 6h188q31 0 51.5 -14.5t20.5 -52.5v-227h-327z" />
    

    
    <glyph glyph-name="home" unicode="&#58897;" d="M964.937 302.277l-452.589 351.307-452.589-351.307v143.23l452.589 351.308 452.589-351.308v-143.23zM851.788 315.049v-339.441h-226.293v226.294h-226.293v-226.293h-226.294v339.44l339.441 254.581 339.44-254.581z"  horiz-adv-x="1024" />

    
    <glyph glyph-name="caret-down" unicode="&#58955;" d="M85.249 1126.431v0 0zM940.413 538.497q0-21.724-15.878-37.578l-374.139-374.139q-15.878-15.878-37.578-15.878t-37.578 15.878l-374.139 374.139q-15.878 15.878-15.878 37.578t15.878 37.578 37.578 15.878h748.277q21.724 0 37.578-15.878t15.878-37.578z"  horiz-adv-x="1024" />

    
    <glyph glyph-name="circle" unicode="&#58885;" d="M819.665707 607.667242c-78.738295 78.738295-187.515744 127.439484-307.667242 127.439484-120.151497 0-228.9269-48.701189-307.666218-127.439484C125.593951 528.927923 76.893786 420.151497 76.893786 300S125.593951 71.072077 204.332247-7.666218c78.738295-78.738295 187.514721-127.439484 307.666218-127.439484 120.151497 0 228.928946 48.701189 307.667242 127.439484s127.439484 187.514721 127.439484 307.666218S898.404002 528.927923 819.665707 607.667242z"  horiz-adv-x="1024" />

    
    <glyph glyph-name="more" unicode="&#58940;" d="M512-128C229.888-128 0 101.88800000000003 0 384S229.888 896 512 896s512-229.888 512-512-229.888-512-512-512z m0 972.8c-253.952 0-460.8-206.848-460.8-460.8s206.848-460.8 460.8-460.8 460.8 206.848 460.8 460.8-206.848 460.8-460.8 460.8zM513.536 381.44000000000005m-51.2 0a51.2 51.2 0 1 1 102.4 0 51.2 51.2 0 1 1-102.4 0ZM744.96 381.44000000000005m-51.2 0a51.2 51.2 0 1 1 102.4 0 51.2 51.2 0 1 1-102.4 0ZM281.6 381.44000000000005m-51.2 0a51.2 51.2 0 1 1 102.4 0 51.2 51.2 0 1 1-102.4 0Z"  horiz-adv-x="1024" />

    
    <glyph glyph-name="setting" unicode="&#58937;" d="M621.227 575.147c-105.813 0-191.147-85.333-191.147-191.147 0-105.813 85.333-191.147 191.147-191.147s191.147 85.333 191.147 191.147c3.413 105.813-85.333 191.147-191.147 191.147zM621.227 254.293c-71.68 0-129.707 58.027-129.707 129.707s58.027 129.707 129.707 129.707 129.707-58.027 129.707-129.707-58.027-129.707-129.707-129.707zM1082.027 476.16c-3.413 27.307-20.48 44.373-40.96 44.373h-3.413c-68.267 0-122.88 54.613-122.88 122.88 0 23.893 10.24 47.787 10.24 47.787 10.24 23.893 3.413 51.2-17.067 68.267l-116.053 64.853c-13.653 0-20.48 3.413-27.307 3.413-17.067 0-34.133-6.827-44.373-17.067-13.653-13.653-58.027-54.613-95.573-54.613-37.547 0-81.92 37.547-95.573 54.613-13.653 10.24-30.72 17.067-47.787 17.067-6.827 0-17.067 0-23.893-3.413l-122.88-68.267c-20.48-13.653-30.72-44.373-17.067-68.267 0 0 10.24-23.893 10.24-47.787 0-68.267-54.613-122.88-122.88-122.88h-3.413c-20.48 0-34.133-17.067-40.96-44.373 0-3.413-10.24-51.2-10.24-92.16 0-40.96 10.24-88.747 10.24-92.16 6.827-23.893 20.48-40.96 40.96-40.96h3.413c68.267 0 122.88-54.613 122.88-122.88 0-23.893-10.24-47.787-10.24-47.787-10.24-23.893-3.413-51.2 17.067-68.267l116.053-64.853c6.827-3.413 13.653-3.413 23.893-3.413 17.067 0 34.133 6.827 44.373 17.067 13.653 13.653 61.44 58.027 98.987 58.027 37.547 0 85.333-40.96 98.987-58.027 10.24-10.24 27.307-20.48 44.373-20.48 6.827 0 17.067 0 23.893 3.413l119.467 64.853c20.48 13.653 30.72 44.373 17.067 68.267 0 0-10.24 23.893-10.24 47.787 0 68.267 54.613 122.88 122.88 122.88h3.413c20.48 0 34.133 17.067 40.96 44.373 0 3.413 10.24 51.2 10.24 92.16s-6.827 92.16-6.827 95.573zM1027.413 302.080c-92.16-3.413-167.253-81.92-167.253-177.493 0-30.72 13.653-61.44 13.653-68.267l-112.64-61.44h-3.413c-3.413 3.413-17.067 20.48-40.96 37.547-34.133 27.307-68.267 37.547-98.987 37.547-30.72 0-61.44-13.653-98.987-37.547-23.893-17.067-40.96-34.133-40.96-37.547h-3.413l-109.227 61.44c3.413 6.827 13.653 37.547 13.653 68.267 0 95.573-75.093 174.080-167.253 177.493 0 6.827-10.24 47.787-10.24 81.92 0 30.72 6.827 71.68 10.24 81.92 92.16 3.413 167.253 81.92 167.253 177.493 0 30.72-13.653 61.44-13.653 68.267l112.64 61.44h3.413c3.413-3.413 17.067-17.067 40.96-34.133 34.133-23.893 64.853-37.547 95.573-37.547 30.72 0 61.44 13.653 95.573 37.547 23.893 17.067 37.547 30.72 40.96 34.133h3.413l109.227-61.44c-3.413-6.827-13.653-37.547-13.653-68.267 0-95.573 75.093-174.080 167.253-177.493 0-6.827 10.24-47.787 10.24-81.92 6.827-30.72-3.413-75.093-3.413-81.92z"  horiz-adv-x="1228" />

    
    <glyph glyph-name="user2" unicode="&#58946;" d="M580.267 360.107h-150.187c-157.013 0-286.72-126.293-286.72-279.893v-13.653c0-105.813 133.12-105.813 286.72-105.813h150.187c146.773 0 286.72 0 286.72 105.813v13.653c-3.413 153.6-129.707 279.893-286.72 279.893zM802.133 63.147c0-44.373-119.467-44.373-225.28-44.373h-150.187c-116.053 0-225.28 0-225.28 44.373v13.653c0 122.88 98.987 218.453 225.28 218.453h153.6c122.88 0 225.28-98.987 225.28-218.453v-13.653zM498.347 380.587c129.707 0 232.107 102.4 232.107 228.693s-105.813 228.693-232.107 228.693-232.107-102.4-232.107-228.693c-3.413-126.293 102.4-228.693 232.107-228.693zM498.347 776.533c95.573 0 170.667-75.093 170.667-167.253s-78.507-167.253-170.667-167.253c-95.573 0-170.667 75.093-170.667 167.253-3.413 92.16 75.093 167.253 170.667 167.253z"  horiz-adv-x="1024" />

    
    <glyph glyph-name="add2" unicode="&#58947;" d="M512 888.869c-279.62 0-504.869-225.249-504.869-504.869s225.249-504.869 504.869-504.869 504.869 225.249 504.869 504.869-225.249 504.869-504.869 504.869zM706.181 345.164h-155.344v-159.229c0-23.301-15.534-38.836-38.836-38.836s-38.836 15.534-38.836 38.836v159.229h-155.344c-23.301 0-38.836 15.534-38.836 38.836s15.534 38.836 38.836 38.836h155.344v151.461c0 23.301 15.534 38.836 38.836 38.836s38.836-15.534 38.836-38.836v-151.461h155.344c23.301 0 38.836-15.534 38.836-38.836s-15.534-38.836-38.836-38.836z"  horiz-adv-x="1024" />

    
    <glyph glyph-name="close" unicode="&#58950;" d="M892.8 76.8l-310.4 310.4 304 304c22.4 22.4 22.4 54.4 3.2 76.8-19.2 19.2-54.4 19.2-76.8-3.2l-304-304-297.6 297.6c-22.4 22.4-54.4 22.4-76.8 3.2-19.2-22.4-19.2-54.4 3.2-76.8l297.6-297.6-304-304c-22.4-22.4-22.4-54.4-3.2-76.8 19.2-19.2 54.4-19.2 76.8 3.2l304 304 310.4-310.4c22.4-22.4 54.4-22.4 76.8-3.2s19.2 54.4-3.2 76.8z"  horiz-adv-x="1024" />

    
    <glyph glyph-name="add" unicode="&#58951;" d="M937.984 445.89511147h-364.08888853v364.08888853C570.25422187 835.47022187 548.40888853 857.3155552 519.28177813 857.3155552s-50.9724448-21.84533333-50.9724448-47.3315552v-364.08888853H86.016c-25.48622187 0-47.3315552-25.48622187-47.3315552-50.9724448s21.84533333-50.9724448 47.3315552-50.9724448h382.29333333v-382.29333334c0-25.48622187 21.84533333-47.3315552 50.9724448-47.3315552 29.12711147 0 50.9724448 21.84533333 50.97244374 47.3315552V343.95022186999995h364.0888896c25.48622187 0 47.3315552 21.84533333 47.3315552 50.9724448s-18.2044448 50.9724448-43.69066667 50.9724448z"  horiz-adv-x="1024" />

    
    <glyph glyph-name="confirm" unicode="&#58952;" d="M1163.21 805.911c-21.401 21.401-55.032 18.344-76.433-3.057l-645.096-645.096-287.389 290.446c-18.344 18.344-48.917 18.344-70.318 0-18.344-18.344-18.344-48.917 0-70.318l327.134-327.134c9.172-9.172 18.344-12.23 27.516-12.23h9.172c15.287 0 27.516 6.114 39.745 15.287l672.611 678.727c21.401 21.401 24.458 55.032 3.057 73.376z"  horiz-adv-x="1262" />

    
    <glyph glyph-name="delete" unicode="&#58949;" d="M908.8 680.96h-201.387v95.573c0 37.547-30.72 64.853-64.853 64.853h-269.653c-37.547 0-64.853-30.72-64.853-64.853v-95.573h-201.387c-17.067 0-30.72-13.653-30.72-30.72s13.653-30.72 30.72-30.72h802.133c17.067 0 30.72 13.653 30.72 30.72s-13.653 30.72-30.72 30.72zM372.907 776.533h269.653v-95.573h-269.653v95.573zM362.667 162.133c17.067 0 30.72 13.653 30.72 30.72v276.48c0 17.067-13.653 30.72-30.72 30.72h-3.413c-17.067 3.413-30.72-13.653-30.72-30.72v-276.48c0-17.067 13.653-30.72 30.72-30.72h3.413zM509.44 162.133c17.067 0 30.72 13.653 30.72 30.72v276.48c0 17.067-13.653 30.72-30.72 30.72h-3.413c-17.067 0-30.72-13.653-30.72-30.72v-276.48c0-17.067 13.653-30.72 30.72-30.72h3.413zM656.213 162.133c17.067 0 30.72 13.653 30.72 30.72v276.48c0 17.067-13.653 30.72-30.72 30.72h-3.413c-17.067 0-30.72-13.653-30.72-30.72v-276.48c0-17.067 13.653-30.72 30.72-30.72h3.413zM785.92 56.32c0-17.067-13.653-34.133-27.307-34.133h-498.347c-13.653 0-27.307 13.653-27.307 34.133v559.787h-68.267v-559.787c0-54.613 40.96-98.987 92.16-98.987h498.347c51.2 0 92.16 44.373 92.16 98.987v559.787h-64.853v-559.787z"  horiz-adv-x="1024" />

    
    <glyph glyph-name="edit" unicode="&#58966;" d="M413.013 164.693v-3.413l378.88 395.947-139.947 143.36-375.467-392.533-85.333-235.52zM778.24 11.093h-583.68c-17.067 0-34.133-13.653-34.133-34.133s13.653-34.133 34.133-34.133h583.68c17.067 0 34.133 13.653 34.133 34.133s-17.067 34.133-34.133 34.133zM887.467 748.373l-58.027 58.027c-23.893 23.893-61.44 23.893-81.92 0l-68.267-71.68 139.947-146.773 68.267 71.68c20.48 23.893 20.48 61.44 0 88.747z"  horiz-adv-x="1024" />

    
    <glyph glyph-name="enable" unicode="&#58977;" d="M740.693 687.787c-13.653 10.24-37.547 6.827-47.787-6.827-10.24-13.653-6.827-37.547 6.827-47.787 88.747-64.853 136.533-167.253 136.533-276.48 0-191.147-153.6-344.747-344.747-344.747s-344.747 157.013-344.747 348.16c0 112.64 54.613 218.453 150.187 283.307 13.653 10.24 17.067 30.72 6.827 47.787-10.24 13.653-30.72 17.067-47.787 6.827-112.64-78.507-177.493-204.8-177.493-341.333 0-228.693 184.32-413.013 413.013-413.013 228.693 0 413.013 184.32 413.013 413.013 3.413 133.12-58.027 252.587-163.84 331.093zM512 356.693c23.893 0 44.373 20.48 44.373 44.373v392.533c0 23.893-20.48 44.373-44.373 44.373s-40.96-20.48-40.96-44.373v-392.533c0-23.893 17.067-44.373 40.96-44.373z"  horiz-adv-x="1024" />

    
    <glyph glyph-name="preview" unicode="&#58979;" d="M1099.813 479.625c-2.813 2.813-45 67.5-126.563 132.188-47.813 39.375-98.438 67.5-151.875 90-67.5 28.125-137.813 42.188-210.938 42.188s-143.438-14.063-210.938-42.188c-53.438-22.5-104.063-53.438-151.875-90-81.563-64.688-123.75-129.375-126.563-132.188-25.313-39.375-22.5-98.438 5.625-135 2.813-2.813 50.625-67.5 135-132.188 50.625-39.375 101.25-67.5 151.875-90 64.688-28.125 132.188-42.188 196.875-42.188s132.188 14.063 196.875 42.188c50.625 22.5 104.063 53.438 151.875 90 84.375 64.688 135 129.375 135 132.188 30.938 36.563 30.938 95.625 5.625 135zM1049.188 378.375s-47.813-61.875-126.563-120.938c-70.313-53.438-182.813-118.125-312.188-118.125s-241.875 64.688-312.188 118.125c-78.75 59.063-126.563 120.938-126.563 120.938-14.063 16.875-14.063 50.625-2.813 67.5 0 0 39.375 61.875 115.313 118.125 98.438 78.75 208.125 118.125 326.25 118.125s227.813-39.375 326.25-118.125c75.938-59.063 115.313-118.125 115.313-118.125 11.25-16.875 11.25-47.813-2.813-67.5zM610.438 592.125c-47.813 0-92.813-19.688-126.563-53.438s-53.438-78.75-53.438-126.563c0-47.813 19.688-92.813 53.438-126.563 33.75-33.75 78.75-53.438 126.563-53.438 98.438 0 180 81.563 180 180 0 98.438-81.563 180-180 180zM610.438 288.375c-67.5 0-120.938 53.438-120.938 120.938s53.438 120.938 120.938 120.938 120.938-53.438 120.938-120.938c0-64.688-53.438-120.938-120.938-120.938z"  horiz-adv-x="1228" />

    
    <glyph glyph-name="reset" unicode="&#58982;" d="M606.933 672h-355.2v108.8c-9.6 9.6-22.4 16-35.2 6.4l-134.4-131.2c-9.6-9.6-9.6-28.8 3.2-38.4l134.4-128c19.2-16 25.6-6.4 35.2 6.4v96h355.2c153.6 0 281.6-118.4 281.6-265.6 0-147.2-124.8-265.6-281.6-265.6h-307.2c-22.4 0-38.4-19.2-38.4-41.6s19.2-41.6 38.4-41.6h304c198.4 0 361.6 153.6 361.6 345.6s-163.2 348.8-361.6 348.8z"  horiz-adv-x="1024" />

    
    <glyph glyph-name="search" unicode="&#58983;" d="M477.866 833.707c-215.040 0-389.12-170.667-389.12-382.293s174.080-382.293 389.12-382.293c215.040 0 389.12 170.667 389.12 382.293 0 211.627-174.080 382.293-389.12 382.293zM477.866 144.214c-174.080 0-314.027 136.533-314.027 307.2s139.947 307.2 314.027 307.2 314.027-136.533 314.027-307.2-139.947-307.2-314.027-307.2zM938.666 28.16l-105.813 105.813c-17.067 17.067-44.373 17.067-61.44 0s-17.067-44.373 0-61.44l105.813-105.813c17.067-17.067 44.373-17.067 61.44 0s17.067 44.373 0 61.44z"  horiz-adv-x="1024" />

    
    <glyph glyph-name="chevron-down" unicode="&#58980;" d="M921.6 605.867c-20.48 20.48-58.027 20.48-81.92-3.413l-351.573-354.987-320.853 354.987c-23.893 23.893-61.44 23.893-81.92 3.413-20.48-20.48-20.48-58.027 3.413-81.92l351.573-385.707c13.653-13.653 30.72-20.48 47.787-17.067 17.067 0 34.133 3.413 47.787 17.067l385.707 385.707c20.48 23.893 23.893 61.44 0 81.92z"  horiz-adv-x="1024" />

    
    <glyph glyph-name="import" unicode="&#58985;" d="M921.6 390.827c-20.48 0-34.133-13.653-34.133-34.133v-293.547c0-20.48-13.653-34.133-34.133-34.133h-682.667c-20.48 0-34.133 13.653-34.133 34.133v283.307c0 20.48-13.653 34.133-34.133 34.133s-34.133-13.653-34.133-34.133v-283.307c0-58.027 44.373-102.4 102.4-102.4h682.667c58.027 0 102.4 44.373 102.4 102.4v293.547c0 20.48-13.653 34.133-34.133 34.133zM498.347 230.4c6.827-10.24 27.307-10.24 34.133-3.413 10.24 10.24 160.427 170.667 170.667 180.907 6.827 10.24 0 20.48-17.067 20.48h-133.12v385.707c0 20.48-17.067 37.547-37.547 37.547-20.48 0-37.547-17.067-37.547-37.547v-385.707h-129.707c-13.653 0-27.307-10.24-17.067-20.48 0-10.24 153.6-163.84 167.253-177.493z"  horiz-adv-x="1024" />

    
    <glyph glyph-name="export" unicode="&#58986;" d="M921.6 384c-20.48 0-34.133333-13.653333-34.133333-34.133333v-293.546667c0-20.48-13.653333-34.133333-34.133334-34.133333H170.666667c-20.48 0-34.133333 13.653333-34.133334 34.133333v283.306667c0 20.48-13.653333 34.133333-34.133333 34.133333s-34.133333-13.653333-34.133333-34.133333v-283.306667c0-58.026667 44.373333-102.4 102.4-102.4h682.666666c58.026667 0 102.4 44.373333 102.4 102.4V349.866667c0 20.48-13.653333 34.133333-34.133333 34.133333zM341.333333 636.586667h133.12v-385.706667c0-20.48 17.066667-37.546667 37.546667-37.546667 20.48 0 37.546667 17.066667 37.546667 37.546667V636.586667h129.706666c13.653333 0 27.306667 10.24 17.066667 20.48-6.826667 6.826667-160.426667 163.84-170.666667 174.08-6.826667 10.24-27.306667 10.24-34.133333 3.413333-10.24-10.24-160.426667-170.666667-170.666667-180.906667-3.413333-6.826667 3.413333-17.066667 20.48-17.066666z"  horiz-adv-x="1024" />

    
    <glyph glyph-name="download" unicode="&#59005;" d="M873.8461540625001 535.3846153125c-18.46153875 169.8461540625-162.46153875 302.769230625-332.3076928125 302.769230625C390.1538459375 841.8461540625001 257.230769375 742.1538459374999 216.6153846875 601.8461540625c-103.3846153125 0-184.6153846875-84.9230765625-184.6153846875-192 0-107.0769234375 81.230769375-192 188.307691875-192h140.3076928125c22.1538459375 0 36.9230765625 18.46153875 36.9230765625 36.9230765625s-18.46153875 36.9230765625-36.9230765625 36.9230775H220.307691875c-59.0769234375 0-110.769230625 51.692308125-110.769230625 110.769230625 0 62.769230625 48 110.769230625 110.769230625 110.769230625H253.53846124999995c18.46153875 0 33.230769375 14.769230624999999 36.9230775 29.538461249999997 18.46153875 118.15384593750001 129.23076937500002 206.769230625 254.769230625 206.769230625 140.30769187500002 0 254.769230625-118.15384593750001 254.769230625-262.15384593749997 0-22.1538459375 18.46153875-36.9230765625 36.9230765625-36.9230765625 44.307691875 0 81.230769375-36.9230765625 81.230769375-81.230769375s-36.9230765625-81.230769375-81.230769375-81.230769375h-169.846153125c-22.1538459375 0-36.9230765625-18.46153875-36.9230775-36.9230765625s18.46153875-36.9230765625 36.9230775-36.9230775h169.846153125c40.6153846875 0 81.230769375 14.769230624999999 110.7692315625 48 29.538461249999997 29.538461249999997 44.307691875 70.15384593750001 44.307691875 114.46153875 0 81.230769375-48 144-118.15384593750001 158.769230625zM681.8461540625 155.0769234375c-11.0769234375 0-22.1538459375-3.692308125-29.5384621875-11.0769234375l-77.53846125-77.53846125v443.0769225c0 22.1538459375-18.46153875 40.6153846875-40.6153846875 40.6153846875s-36.9230765625-18.46153875-36.9230765625-40.6153846875v-443.0769225l-77.53846125 77.53846125c-7.384615312499999 7.384615312499999-18.46153875 11.0769234375-29.5384621875 11.0769234375s-22.1538459375-3.692308125-29.538461249999997-11.0769234375c-14.769230624999999-14.769230624999999-14.769230624999999-44.307691875 0-59.0769234375l144-147.6923071875c7.384615312499999-7.384615312499999 18.46153875-11.0769234375 29.538461249999997-11.0769234375 11.0769234375 0 22.1538459375 3.692308125 29.5384621875 11.0769234375l144 147.6923071875c14.769230624999999 18.46153875 14.769230624999999 44.307691875 0 59.0769234375-3.692308125 7.384615312499999-14.769230624999999 11.0769234375-25.8461540625 11.0769234375z"  horiz-adv-x="1024" />

    
    <glyph glyph-name="operate" unicode="&#58913;" d="M512 384m-96.42857168 0a96.42857168 96.42857168 0 1 1 192.85714336 0 96.42857168 96.42857168 0 1 1-192.85714336 0ZM512 30.428571680000005m-96.42857168 0a96.42857168 96.42857168 0 1 1 192.85714336 0 96.42857168 96.42857168 0 1 1-192.85714336 0ZM512 737.57142832m-96.42857168 0a96.42857168 96.42857168 0 1 1 192.85714336 0 96.42857168 96.42857168 0 1 1-192.85714336 0Z"  horiz-adv-x="1024" />

    
    <glyph glyph-name="upload" unicode="&#58990;" d="M228.430769 194.953846h-27.569231C86.646154 198.89230799999996 0 289.47692300000006 0 399.753846c0 110.276923 90.584615 200.861538 196.923077 204.8C240.246154 754.215385 382.030769 860.553846 543.507692 860.553846c181.169231 0 334.769231-141.784615 354.461539-322.953846 74.830769-19.692308 126.030769-82.707692 126.030769-165.415385 0-47.261538-15.753846-90.584615-47.261538-122.092307-31.507692-31.507692-70.892308-51.2-118.153847-51.2h-63.015384c-23.630769 0-39.384615 19.692308-39.384616 39.384615s19.692308 39.384615 39.384616 39.384615h63.015384c47.261538 0 86.646154 39.384615 86.646154 86.646154s-39.384615 86.646154-86.646154 86.646154c-23.630769 0-39.384615 19.692308-39.384615 39.384616 0 153.6-122.092308 279.630769-271.753846 279.630769-133.907692 0-252.061538-94.523077-271.753846-220.553846-3.938462-19.692308-19.692308-31.507692-39.384616-31.507693h-35.446154c-63.015385 0-118.153846-55.138462-118.153846-118.153846 0-66.953846 51.2-118.153846 118.153846-118.153846h31.507693c23.630769 0 39.384615-19.692308 39.384615-39.384615s-19.692308-47.261538-43.323077-47.261539zM512 466.707692c11.815385 0 23.630769-3.938462 31.507692-11.815384l153.6-157.538462c15.753846-15.753846 15.753846-47.261538 0-63.015384-7.876923-7.876923-19.692308-11.815385-31.507692-11.815385s-23.630769 3.938462-31.507692 11.815385L551.384615 317.046154v-354.461539c0-23.630769-19.692308-43.323077-43.323077-43.323077s-43.323077 19.692308-43.323076 43.323077v354.461539l-82.707693-82.707692c-7.876923-7.876923-19.692308-11.815385-31.507692-11.815385s-15.753846 3.938462-23.630769 11.815385c-15.753846 15.753846-15.753846 43.323077 0 63.015384l153.6 157.538462c7.876923 7.876923 19.692308 11.815385 31.507692 11.815384z"  horiz-adv-x="1024" />

    
    <glyph glyph-name="acount" unicode="&#58918;" d="M913.606-21.803999999999974C897.194 129.702 797.028 256.07899999999995 660.36 310.073 735.969 359.076 786 444.191 786 541c0 151.878-123.122 275-275 275S236 692.8779999999999 236 541c0-97.136 50.365-182.506 126.403-231.429-136.033-54.268-235.647-180.328-252.009-331.375 0 0 2.799-32.873 36.606-33 32.606-0.122 35.907 33 35.907 33 21.177 159.913 156.16 283.906 320.899 287.897 2.391-0.061 4.788-0.094 7.194-0.094 2.614 0 5.216 0.045 7.812 0.117 165.365-3.33 301.044-127.561 322.28-287.921 0 0 3.373-33.286 38.908-33.044 34.163 0.235 33.606 33.045 33.606 33.045zM511 341c-110.457 0-200 89.543-200 200s89.543 200 200 200 200-89.543 200-200-89.543-200-200-200z"  horiz-adv-x="1024" />

    
    <glyph glyph-name="time" unicode="&#58971;" d="M512-128A512 512 0 1 0 512 896a512 512 0 0 0 0-1024zM512 809.984a425.984 425.984 0 1 1 0-851.968A425.984 425.984 0 0 1 512 809.984z m137.984-512h-192a32 32 0 0 0-32 32V608a32 32 0 0 0 32 32H480a32 32 0 0 0 32-32V384h137.984a32 32 0 0 0 32-32v-22.016a32 32 0 0 0-32-32z"  horiz-adv-x="1024" />

    
    <glyph glyph-name="print" unicode="&#60121;" d="M935.513178 722.14744h-84.649935V806.586574c0 46.735417-38.228673 84.754313-85.069491 84.754313H258.52859c-47.050596 0-85.069491-37.913495-85.069491-84.649935v-84.544535h-84.859713c-69.946049 0-84.648912-14.703887-84.648912-84.754313v-423.352007c0-46.630017 38.228673-84.649935 84.648912-84.649936h84.859713v-211.728192c0-23.420409 18.904559-42.429345 42.429345-42.429345h592.545454c11.342326 0 22.055318 4.411473 30.037107 12.392238s12.392238 18.694781 12.392238 29.931707v211.834616h84.649935c46.630017 0 84.649935 38.018895 84.649935 84.649935v423.352007c0 70.050426-14.703887 84.754313-84.649935 84.754313zM258.52859 806.690952l507.685741-0.105401v-84.439134H258.318812l0.209778 84.544535z m507.475963-846.807369H258.108011V298.585655H766.214331l-0.209778-338.702072z m169.508625 254.157537h-84.649935V340.90959899999996c0 11.236925-4.411473 22.055318-12.392238 29.931707-7.981788 7.981788-18.694781 12.393261-30.037107 12.393261H215.678666c-23.316032 0-42.219567-18.904559-42.219567-42.324968v-126.868479h-84.859713l0.210801 380.921639c0 23.316032-0.210801 42.430368-0.210801 42.430368h84.859713v-0.1054h84.649935v0.1054H766.214331v-0.1054h84.649935v0.1054h84.649935v-423.352007z"  horiz-adv-x="1024" />

    
    <glyph glyph-name="switching" unicode="&#58927;" d="M1079.808 606.5493329999999H486.570667l112.469333 112.469334c33.450667 33.450667 33.450667 87.893333 0 121.344-33.450667 33.450667-87.893333 33.450667-121.344 0L219.477333 582.144c-9.045333-9.045333-15.701333-19.797333-19.797333-31.232-3.584-9.386667-5.632-19.626667-5.632-30.208 0-47.274667 38.570667-85.845333 85.845333-85.845333h799.914667c47.274667 0 85.845333 38.570667 85.845333 85.845333 0 47.274667-38.570667 85.845333-85.845333 85.845333zM269.312 147.626667h593.408l-112.469333-112.469334c-33.450667-33.450667-33.450667-87.893333 0-121.344 33.450667-33.450667 87.893333-33.450667 121.344 0l258.048 258.048c9.045333 9.045333 15.701333 19.797333 19.797333 31.232 3.584 9.386667 5.632 19.626667 5.632 30.208 0 47.274667-38.570667 85.845333-85.845333 85.845334H269.312c-47.274667 0-85.845333-38.570667-85.845333-85.845334 0-47.104 38.570667-85.674667 85.845333-85.674666z"  horiz-adv-x="1365" />

    
    <glyph glyph-name="insufficient" unicode="&#58930;" d="M512 834a450 450 0 1 0-450-450 450 450 0 0 0 450 450z m-49.5-224.49375001l10.6875-346.21874999h75.9375l11.25 346.21875001H462.5z m9.5625-414.67499998a49.95 49.95 0 0 1-16.3125-38.25000002 49.1625 49.1625 0 0 1 16.3125-37.63124999 53.6625 53.6625 0 0 1 39.375-15.75 55.85625001 55.85625001 0 0 1 39.9375 15.75 51.1875 51.1875 0 0 1 16.3125 37.63125001 51.975 51.975 0 0 1-16.3125 38.25 56.25 56.25 0 0 1-39.9375 15.75 53.8875 53.8875 0 0 1-39.375-15.75z"  horiz-adv-x="1024" />

    
    <glyph glyph-name="adequate" unicode="&#58931;" d="M512 384m-450 0a450 450 0 1 1 900 0 450 450 0 1 1-900 0ZM287 424.89375l143.4375-143.15625s224.4375 282.9375 326.8125 306.7875v-20.41875s-268.875-320.625-286.3125-429.58125L266.75 322.63125z"  horiz-adv-x="1024" />

    
    <glyph glyph-name="password" unicode="&#58991;" d="M885.833069 512.055355h-32.917976v122.076979c0 146.876171-109.234539 261.867666-264.229494 261.867666-155.733026 0-261.867666-117.500937-261.867666-261.867666v-122.076979h-32.917976c-72.478593 0-131.52429-57.42194-131.52429-127.981548V-0.018452000000024782c0-70.559608 59.045697-127.981548 131.52429-127.981548h591.933112c72.478593 0 131.52429 57.42194 131.52429 127.981548V383.926193c0 70.707222-59.045697 128.129162-131.52429 128.129162z m-493.326798 122.076979c0 109.086925 76.611792 197.803085 196.179328 197.803085 118.239008 0 198.541156-86.944789 198.541156-197.803085v-122.076979H392.506271v122.076979zM951.521407-0.018452000000024782c0-35.279804-29.522848-64.064581-65.688338-64.064581h-591.933112c-36.313104 0-65.835952 28.637163-65.835952 64.064581V383.926193c0 35.279804 29.522848 64.064581 65.835952 64.064581h591.933112c36.313104 0 65.688338-28.637163 65.688338-64.064581V-0.018452000000024782z m-361.654894 320.027678c-36.313104 0-65.688338-28.637163-65.688338-64.064581 0-23.618279 13.285282-44.284273 32.917976-55.355341V95.93080599999996c0-17.713709 14.761424-31.884676 32.917976-31.884677S622.932103 78.36471100000006 622.932103 95.93080599999996v104.510883c19.632694 11.071068 32.917976 31.737062 32.917976 55.355341-0.147614 35.575032-29.670463 64.212195-65.983566 64.212196z m0 0"  horiz-adv-x="1180" />

    
    <glyph glyph-name="mobile" unicode="&#58992;" d="M379.73437498-96h441.09375c64.921875 0 117.65625 53.671875 117.65625 120V744c0 66.328125-52.6171875 120-117.65625 120H379.73437498C314.69531248 864 262.07812498 810.328125 262.07812498 744v-720c0-66.328125 52.6171875-120 117.65625-120zM320.90624998 744c0 33.1640625 26.3671875 60 58.828125 60h441.09375c32.4609375 0 58.828125-26.8359375 58.828125-60V714H320.90624998V744z m0-90H879.65624998V174.9375H320.90624998V654z m0-539.0625H879.65624998v-90.9375c0-33.1640625-26.3671875-60-58.828125-60H379.73437498c-32.4609375 0-58.828125 26.8359375-58.828125 60v90.9375z m279.375-120.9375c24.375 0 44.0625 20.15625 44.0625 45s-19.8046875 45-44.0625 45c-24.375 0-44.0625-20.15625-44.0625-45s19.6875-45 44.0625-45z m0 0"  horiz-adv-x="1174" />

    
    <glyph glyph-name="movedown" unicode="&#58945;" d="M444.4671875 184.8571875v17.4c0 178.23375-0.01125 356.4675 0.0121875 534.70125 0.0046875 32.866875 19.3059375 56.7290625 51.94125 64.45125 28.7990625 6.8146875 62.1421875-8.604375 74.394375-35.80875 3.795-8.4253125 5.311875-18.5521875 5.3278125-27.90375 0.301875-179.4375 0.223125-358.8759375 0.223125-538.314375v-18.8128125c9.915 9.313125 17.1984375 15.928125 24.2325 22.7971875 55.126875 53.835 110.1271875 107.8003125 165.339375 161.5471875 20.80875 20.2565625 45.7640625 24.9196875 69.508125 13.7503125 22.4803125-10.575 35.72625-33.5053125 33.7275-58.7934375-1.1859375-15.005625-7.5534375-27.538125-18.1659375-38.259375-62.6821875-63.324375-125.2415625-126.76875-187.84125-190.17375-33.8371875-34.2721875-67.7446875-68.4759375-101.4834375-102.8446875-31.2609375-31.8440625-65.1853125-32.2884375-96.61125-0.9309375-97.1784375 96.969375-194.4028125 193.8928125-291.459375 290.9840625-33.9065625 33.9178125-20.93625 88.56375 23.9475 100.9865625 22.2853125 6.1678125 42.0984375 0.5278125 58.77-15.48375 43.4109375-41.690625 86.7459375-83.4590625 130.1128125-125.195625 16.768125-16.138125 33.5240625-32.289375 50.3371875-48.380625 1.60125-1.5328125 3.571875-2.6803125 7.6875-5.7159375z"  horiz-adv-x="1024" />

    
    <glyph glyph-name="moveup" unicode="&#58948;" d="M579.5328125 583.1428125l0-17.4c0-178.23375 0.01125001-356.4675-0.0121875-534.70125-0.0046875-32.866875-19.3059375-56.7290625-51.94125001-64.45125-28.7990625-6.8146875-62.1421875 8.604375-74.39437499 35.80874999-3.795 8.4253125-5.311875 18.5521875-5.3278125 27.90375001-0.30187499 179.4375-0.223125 358.8759375-0.223125 538.314375l0 18.8128125c-9.915-9.313125-17.1984375-15.928125-24.2325-22.7971875-55.126875-53.835-110.1271875-107.8003125-165.339375-161.5471875-20.80875-20.25656251-45.76406249-24.9196875-69.508125-13.7503125-22.4803125 10.575-35.72625 33.5053125-33.7275 58.7934375 1.1859375 15.005625 7.55343751 27.538125 18.1659375 38.259375 62.6821875 63.324375 125.2415625 126.76875 187.84125 190.17375 33.8371875 34.2721875 67.7446875 68.4759375 101.4834375 102.8446875 31.2609375 31.8440625 65.1853125 32.2884375 96.61125 0.9309375 97.1784375-96.969375 194.4028125-193.8928125 291.459375-290.9840625 33.9065625-33.9178125 20.93625-88.56375-23.9475-100.9865625-22.2853125-6.1678125-42.0984375-0.5278125-58.76999999 15.48375-43.4109375 41.690625-86.7459375 83.4590625-130.11281251 125.195625-16.768125 16.138125-33.5240625 32.289375-50.3371875 48.380625-1.60125 1.5328125-3.571875 2.6803125-7.6875 5.7159375z"  horiz-adv-x="1024" />

    
    <glyph glyph-name="total-products" unicode="&#58953;" d="M896.93866667 682.85973333H129.12853333L59.33546667 474.3936c0-64.26666667 50.7776-116.35306667 113.424-116.35306667 62.65173333 0 113.42293333 52.08746667 113.42293333 116.35306667 0-64.26666667 50.77866667-116.35306667 113.42506667-116.35306667 62.63893333 0 113.42933333 52.08746667 113.42933333 116.35306667 0-64.26666667 50.7776-116.35306667 113.424-116.35306667 62.64 0 113.42933333 52.08746667 113.42933333 116.35306667 0-64.26666667 50.77226667-116.35306667 113.424-116.35306667 62.6464 0 113.42506667 52.08746667 113.42506667 116.35306667l-69.8016 208.46613333z m-691.02186667 36.45013334h614.23893333c23.13173333 0 41.8816 15.71946667 41.8816 35.13813333 0 19.41546667-18.74986667 35.15733333-41.8816 35.15733333h-614.24c-23.12213333 0-41.87946667-15.74293333-41.87946666-35.15733333 0-19.41866667 18.75733333-35.13813333 41.88053333-35.13813333zM739.88586667 352.40533332999996c-30.77333333-29.61066667-70.84053333-45.85386667-113.42506667-45.85386666-42.5888 0-82.656 16.24213333-113.4272 45.856-30.77333333-29.61066667-70.8416-45.856-113.42613333-45.856-42.58666667 0-82.6528 16.24213333-113.424 45.85173333-30.76906667-29.60853333-70.8352-45.85173333-113.424-45.85173333-2.9216 0-5.82933333 0.08106667-8.7232 0.23466666v-256.5792c0-42.75946667 37.58186667-70.2848 69.7952-70.2848h558.4c42.0256 0 69.80586667 31.904 69.80586666 70.2848V306.784c-2.896-0.15146667-5.8016-0.2336-8.7232-0.2336-42.59093333 0-82.65706667 16.24106667-113.42933333 45.856z"  horiz-adv-x="1024" />

    
    <glyph glyph-name="pesticide" unicode="&#58954;" d="M250.047256 707.230184c5.807994-4.354996 14.519986-6.387994 26.136974-6.387993H751.009767c11.615989 0 20.03798 2.032998 25.555975 6.388993 5.227995 4.355996 9.292991 9.583991 11.906988 15.681985 3.194997 6.969993 4.936995 14.810986 4.936995 23.523977V832.109062c0 16.553984-3.193997 28.749972-9.292991 37.172964-6.098994 8.130992-13.068987 14.519986-20.61998 18.876982-9.292991 4.355996-19.166981 6.388994-29.91197 6.388993H292.447214c-10.74499 0-20.61998-2.032998-29.91297-6.389993-7.549993-4.354996-14.229986-10.74499-20.61998-18.875982-6.097994-8.131992-9.291991-20.61998-9.291991-37.172964v-85.671916c0-8.712991 1.741998-16.553984 4.936995-23.523977 2.612997-6.097994 6.679993-11.325989 12.487988-15.681985zM849.169671 522.529365c-9.87399 12.196988-19.167981 22.651978-27.299974 31.073969l-70.85993 85.961916H292.737214l-88.284914-85.961916c-8.422992-8.712991-17.424983-19.167981-27.299973-31.073969-9.87299-12.197988-14.809986-32.526968-14.809986-61.27794v-486.442525c0.869999-19.167981 4.645995-36.301965 11.03499-51.98495 5.807994-13.067987 14.519986-24.684976 26.136974-35.139965 11.616989-10.45499 29.041972-15.681985 52.274949-15.681985h523.906488c22.361978 0 39.495961 5.226995 51.69395 15.681985 11.906988 10.45499 20.90998 22.071978 26.717974 35.139965 6.679993 15.682985 9.87399 33.107968 9.87399 51.98495V461.540424c0 28.459972-4.936995 48.789952-14.810985 60.986941zM687.699828 458.056428s-0.29-97.579905-24.394976-192.834812c-18.586982-74.055928-79.863922-154.209849-146.078857-184.993819-62.728939-29.041972-146.077857-15.972984-146.077857-15.972985s53.726948 26.717974 97.288905 64.471937c43.851957 37.462963 81.315921 78.701923 105.419897 112.67989 24.394976 33.688967 48.789952 96.417906 48.789952 96.417906s-49.369952-105.129897-170.472834-192.834812c-32.235969-24.684976-108.033894-61.85794-113.551889-64.180937 0 0-1.161999 60.114941 0 96.416906 1.160999 36.301965 12.777988 117.326885 81.024921 168.729835 68.247933 51.40395 182.379822 93.513909 259.629747 112.39089 9.293991 1.741998 8.422992-0.29 8.422991-0.289999z"  horiz-adv-x="1024" />

    
    <glyph glyph-name="fertilizer" unicode="&#58956;" d="M874.3 253.69000000000005c6.396 77.635 7.56 155.27 2.907 232.906-5.234 86.94-18.028 172.717-35.765 257.913-1.163 5.234 0 9.014 2.908 13.085 7.85 11.34 14.248 23.261 17.737 36.637 7.27 28.204-4.07 49.43-31.694 59.317-11.34 4.07-23.262 6.397-35.474 7.269-26.75 2.035-53.792 0-79.67 8.432C648.952 890.766 580.621 896 534.388 895.71c-79.961-0.29-136.952-1.744-191.908-17.446-37.51-10.758-75.018-16.865-113.982-17.737-14.247-0.29-28.204-3.78-41.289-9.886-18.318-8.432-27.332-22.39-27.042-42.162 0.291-19.19 8.724-35.474 18.9-51.175 2.327-3.78 4.653-6.688 3.49-11.922-15.12-73.274-26.46-146.839-33.148-221.276-7.56-88.975-7.56-177.95-0.582-266.636 6.107-77.926 17.737-154.98 32.857-231.743 1.164-6.397 0.582-11.34-3.489-16.865-7.85-10.758-13.666-22.97-16.864-36.055-6.688-27.623 4.361-48.559 31.403-58.736 11.34-4.361 23.261-6.106 35.474-7.56 18.318-2.035 36.927-0.581 55.246-3.198 23.843-3.49 46.232-12.213 69.785-17.156 68.621-15.12 138.115-15.41 207.9-13.084 47.686 1.453 95.082 7.56 140.733 21.517 22.97 6.978 46.523 10.758 70.657 11.049 19.772 0 39.545 1.454 58.445 9.014 24.133 9.304 34.31 24.715 31.984 50.012-1.454 17.156-9.595 31.985-18.9 45.942-2.617 3.78-4.07 6.978-3.198 12.212 15.41 76.473 26.75 153.236 33.438 230.871zM525.665 575.28c31.985 17.447 66.877 24.135 102.933 27.333 28.495 2.326 55.246 9.886 80.543 22.971 2.035 1.163 4.362 2.035 6.688 2.908 6.978 3.198 9.595 2.035 8.141-6.106-2.907-15.993-7.269-31.985-13.375-47.105-17.737-44.779-43.034-84.614-80.834-116.017-15.12-12.503-31.403-22.39-50.594-27.914-28.205-8.142-51.466-3.78-74.728 13.957-10.759-16.283-16.865-35.765-20.645-66.877-5.234 27.623-3.78 52.047 7.27 75.6 2.326 4.943 2.907 8.141-2.036 11.921-7.27 5.525-9.595 14.248-9.886 22.971-1.454 36.928 11.05 67.168 46.523 86.359z m-223.893-21.807c25.297-19.772 56.41-19.19 86.068-23.843 15.12-2.326 30.24-5.234 44.779-9.886 29.368-9.596 47.977-44.197 39.254-73.274-0.582-2.036-1.163-4.653-2.617-5.525-11.05-5.815-6.397-13.375-4.07-21.808 3.198-11.049 3.78-22.68 2.034-36.055-4.07 13.666-5.233 26.17-12.212 37.218-15.41-18.609-35.765-15.992-55.828-12.212-16.864 2.908-31.112 12.503-42.161 25.006-31.113 34.311-45.36 76.473-57.864 119.216 1.454 0.582 2.617 1.163 2.617 1.163z m13.957-298.039c15.993 0.29 31.985 0.29 47.977 0.29h341.364c16.283 0 25.879-9.595 24.425-23.552-1.163-12.212-10.759-19.481-26.17-19.481H320.093c-15.992 0-25.588 7.56-26.17 20.354-0.29 12.794 8.142 22.098 21.808 22.389z m389.923-131.428H319.22c-15.411 0-24.425 7.56-25.007 20.063-0.581 13.666 9.014 22.97 24.716 22.97h385.27c14.538 0 24.134-7.268 25.297-18.9 1.744-14.538-7.85-24.133-23.843-24.133z"  horiz-adv-x="1024" />

    
    <glyph glyph-name="seed" unicode="&#58957;" d="M660.132644 706.745361L480.068147 498.487375C818.701552 272.78369299999997 850.010344 896 850.010344 896 212.463645 814.534834 442.372984 543.036203 442.372984 543.036203L660.132644 706.745361z m0 0M350.315789 439.452388l-131.154244 121.808336 155.609371-92.21296C481.470033 714.222087 74.6115 661.885002 74.6115 661.885002c126.79282-402.80864 275.70429-222.432613 275.704289-222.432614z m0 0M426.17341 261.880134c-21.651354 41.900821-34.424095 110.437481 9.190143 212.307879 0 0-103.895345-97.197444-62.461819-219.940371-125.858229-38.785519-195.95254-210.282933-195.95254-210.282933l527.576513 0.467296S644.86766 140.69485899999995 577.109827 197.54913299999998c-52.492851 44.081533-113.241253 63.863706-150.936417 64.331001z m0 0"  horiz-adv-x="1246" />

    
    <glyph glyph-name="yesterday-sales" unicode="&#58958;" d="M802.986667 591.36c0-9.728-9.216-17.578667-20.650667-17.578667h-317.44c-11.434667 0-20.650667 7.850667-20.650667 17.578667 0 9.728 9.216 17.578667 20.650667 17.578667h317.44c11.434667 0 20.650667-7.850667 20.650667-17.578667zM770.218667 622.933333l-295.082667-0.853333c-14.506667 0-75.605333 69.802667-75.605333 123.392 0 64.682667 55.125333 59.050667 97.621333 59.562667 36.181333 0.341333 74.069333 51.2 101.546667 31.402666 38.229333-27.477333 47.274667-92.501333 57.173333-92.501333 16.896 0-0.512 84.650667 83.626667 84.650667 83.968 0 117.418667-19.114667 106.325333-79.530667-11.776-64-62.122667-124.416-75.605333-126.122667zM784.042667 167.08266700000001c0 111.616 64.682667 208.042667 158.549333 253.952-35.498667 58.026667-82.944 106.154667-138.069333 139.776H449.706667C334.677333 490.496 236.885333 353.28 236.885333 172.71466699999996c0-199.168 182.613333-244.394667 391.338667-244.394667 91.136 0 175.616 9.045333 241.834667 36.010667-53.077333 51.029333-86.016 123.050667-86.016 202.752z m-36.010667-36.181334c-4.778667-3.413333-10.752-4.949333-18.090667-4.949333h-76.629333v-22.016c0-6.656-2.730667-12.970667-8.192-19.114667-5.461333-6.144-12.629333-9.045333-21.333333-8.192-8.704 0-16.213333 2.048-22.016 5.973334-5.802667 3.925333-9.045333 11.093333-9.728 21.333333v22.016h-74.410667c-7.338667 0-13.312 2.048-18.090667 5.973333s-6.826667 9.045333-5.973333 14.848c0 6.656 2.389333 11.946667 7.168 16.042667 4.778667 3.925333 10.410667 5.973333 16.896 5.973333h74.410667v38.229334h-74.410667c-7.338667 0-13.141333 2.218667-17.578667 6.656-4.437333 4.437333-6.656 9.557333-6.656 15.36 0 5.802667 2.389333 11.093333 7.168 16.384 4.778667 4.949333 10.410667 7.509333 16.896 7.509333h74.581334l1.024 22.869333c-13.141333 13.141333-25.088 25.6-36.181334 37.376-9.557333 10.410667-18.432 19.797333-26.282666 28.501334l-16.384 15.36c-3.584 4.437333-6.826667 10.581333-9.728 18.090666-3.072 7.509333-1.365333 15.530667 4.437333 23.552 6.656 7.168 14.506667 9.216 24.064 5.973334 9.386667-3.242667 17.237333-7.338667 22.869333-12.629334 3.072-3.584 8.021333-9.045333 15.36-16.384l52.565334-52.565333c12.288 11.776 23.722667 22.357333 33.450666 31.402667 8.704 8.021333 17.578667 16.042667 26.282667 23.552 8.704 7.850667 15.018667 12.970667 18.602667 16.042666 6.656 5.802667 13.994667 8.704 22.016 8.704 8.021333 0 14.506667-3.242667 19.797333-9.728 9.386667-10.922667 5.802667-23.722667-10.922667-38.229333-4.437333-3.584-10.922667-9.898667-19.797333-19.114667-8.704-9.045333-17.578667-17.92-26.282667-26.794666-10.24-10.922667-21.504-22.186667-33.962666-33.962667V254.29333299999996h71.168c10.410667 0 17.749333-2.389333 22.528-7.168 4.778667-4.778667 7.168-10.24 7.168-16.042666 0-6.656-2.218667-12.117333-6.656-16.896-4.437333-4.778667-11.776-6.826667-22.016-5.973334l-71.168-1.024-1.024-37.376h69.973333c20.48 0 30.72-7.509333 30.72-22.869333 1.024-7.509333-0.853333-12.8-5.632-16.042667zM977.237333 169.64266699999996h26.624v-51.2h-26.624zM977.237333 247.12533299999996h26.624v-48.64h-26.624zM1066.496 392.533333c-124.586667 0-225.450667-100.864-225.450667-225.450666s100.864-225.450667 225.450667-225.450667S1291.946667 42.49599999999998 1291.946667 167.08266700000001 1191.082667 392.533333 1066.496 392.533333z m130.901333-168.277333h-75.776v-28.842667h69.290667V165.54666699999996h-69.290667v-31.573334h71.850667v-30.208h-71.850667v-65.365333h-32.938666v186.026667h-5.290667c-8.192-18.432-17.92-35.498667-28.16-48.64-3.925333 4.949333-12.288 13.994667-19.285333 20.650666V88.746667h-58.368v-21.333334h-31.402667V276.821333H1035.946667v-68.778666c16.725333 23.552 30.549333 57.856 38.058666 91.989333l32.768-7.338667c-2.730667-12.8-6.656-25.088-11.264-37.717333h102.058667v-30.72z"  horiz-adv-x="1365" />

    
    <glyph glyph-name="today-sales" unicode="&#58959;" d="M802.986667 591.36c0-9.728-9.216-17.578667-20.650667-17.578667h-317.44c-11.434667 0-20.650667 7.850667-20.650667 17.578667 0 9.728 9.216 17.578667 20.650667 17.578667h317.44c11.434667 0 20.650667-7.850667 20.650667-17.578667zM770.218667 622.933333l-295.082667-0.853333c-14.506667 0-75.605333 69.802667-75.605333 123.392 0 64.682667 55.125333 59.050667 97.621333 59.562667 36.181333 0.341333 74.069333 51.2 101.546667 31.402666 38.229333-27.477333 47.274667-92.501333 57.173333-92.501333 16.896 0-0.512 84.650667 83.626667 84.650667 83.968 0 117.418667-19.114667 106.325333-79.530667-11.776-64-62.122667-124.416-75.605333-126.122667zM784.042667 167.08266700000001c0 111.616 64.682667 208.042667 158.549333 253.952-35.498667 58.026667-82.944 106.154667-138.069333 139.776H449.706667C334.677333 490.496 236.885333 353.28 236.885333 172.71466699999996c0-199.168 182.613333-244.394667 391.338667-244.394667 91.136 0 175.616 9.045333 241.834667 36.010667-53.077333 51.029333-86.016 123.050667-86.016 202.752z m-36.010667-36.181334c-4.778667-3.413333-10.752-4.949333-18.090667-4.949333h-76.629333v-22.016c0-6.656-2.730667-12.970667-8.192-19.114667-5.461333-6.144-12.629333-9.045333-21.333333-8.192-8.704 0-16.213333 2.048-22.016 5.973334-5.802667 3.925333-9.045333 11.093333-9.728 21.333333v22.016h-74.410667c-7.338667 0-13.312 2.048-18.090667 5.973333s-6.826667 9.045333-5.973333 14.848c0 6.656 2.389333 11.946667 7.168 16.042667 4.778667 3.925333 10.410667 5.973333 16.896 5.973333h74.410667v38.229334h-74.410667c-7.338667 0-13.141333 2.218667-17.578667 6.656-4.437333 4.437333-6.656 9.557333-6.656 15.36 0 5.802667 2.389333 11.093333 7.168 16.384 4.778667 4.949333 10.410667 7.509333 16.896 7.509333h74.581334l1.024 22.869333c-13.141333 13.141333-25.088 25.6-36.181334 37.376-9.557333 10.410667-18.432 19.797333-26.282666 28.501334l-16.384 15.36c-3.584 4.437333-6.826667 10.581333-9.728 18.090666-3.072 7.509333-1.365333 15.530667 4.437333 23.552 6.656 7.168 14.506667 9.216 24.064 5.973334 9.386667-3.242667 17.237333-7.338667 22.869333-12.629334 3.072-3.584 8.021333-9.045333 15.36-16.384l52.565334-52.565333c12.288 11.776 23.722667 22.357333 33.450666 31.402667 8.704 8.021333 17.578667 16.042667 26.282667 23.552 8.704 7.850667 15.018667 12.970667 18.602667 16.042666 6.656 5.802667 13.994667 8.704 22.016 8.704 8.021333 0 14.506667-3.242667 19.797333-9.728 9.386667-10.922667 5.802667-23.722667-10.922667-38.229333-4.437333-3.584-10.922667-9.898667-19.797333-19.114667-8.704-9.045333-17.578667-17.92-26.282667-26.794666-10.24-10.922667-21.504-22.186667-33.962666-33.962667V254.29333299999996h71.168c10.410667 0 17.749333-2.389333 22.528-7.168 4.778667-4.778667 7.168-10.24 7.168-16.042666 0-6.656-2.218667-12.117333-6.656-16.896-4.437333-4.778667-11.776-6.826667-22.016-5.973334l-71.168-1.024-1.024-37.376h69.973333c20.48 0 30.72-7.509333 30.72-22.869333 1.024-7.509333-0.853333-12.8-5.632-16.042667zM1066.496 392.533333c-124.586667 0-225.450667-100.864-225.450667-225.450666s100.864-225.450667 225.450667-225.450667S1291.946667 42.49599999999998 1291.946667 167.08266700000001 1191.082667 392.533333 1066.496 392.533333z m17.92-355.669333l-34.474667 15.872c20.48 24.064 44.202667 53.76 63.146667 77.994667h-142.677333v33.792H1080.32c-12.288 12.629333-31.914667 28.501333-46.933333 39.936l21.504 20.992c17.578667-12.629333 42.837333-31.061333 54.784-43.349334L1092.266667 164.52266699999996h48.981333l5.802667 1.706666 26.282666-12.629333c-24.064-34.816-59.221333-79.872-88.917333-116.736z m88.064 137.898667c-34.645333 18.261333-73.898667 48.128-104.106667 79.701333-30.72-34.645333-69.12-62.293333-108.202666-82.773333-5.632 9.557333-15.872 22.357333-25.770667 31.061333 48.981333 20.992 98.645333 56.832 126.464 100.181333l33.28-15.36c-1.877333-2.730667-3.925333-5.632-5.802667-8.362666 27.477333-28.330667 72.192-57.344 110.250667-73.557334-8.704-7.509333-20.309333-21.674667-26.112-30.890666z"  horiz-adv-x="1365" />

    
    <glyph glyph-name="total-sales" unicode="&#58960;" d="M802.986667 591.36c0-9.728-9.216-17.578667-20.650667-17.578667h-317.44c-11.434667 0-20.650667 7.850667-20.650667 17.578667 0 9.728 9.216 17.578667 20.650667 17.578667h317.44c11.434667 0 20.650667-7.850667 20.650667-17.578667zM770.218667 622.933333l-295.082667-0.853333c-14.506667 0-75.605333 69.802667-75.605333 123.392 0 64.682667 55.125333 59.050667 97.621333 59.562667 36.181333 0.341333 74.069333 51.2 101.546667 31.402666 38.229333-27.477333 47.274667-92.501333 57.173333-92.501333 16.896 0-0.512 84.650667 83.626667 84.650667 83.968 0 117.418667-19.114667 106.325333-79.530667-11.776-64-62.122667-124.416-75.605333-126.122667zM784.042667 167.08266700000001c0 111.616 64.682667 208.042667 158.549333 253.952-35.498667 58.026667-82.944 106.154667-138.069333 139.776H449.706667C334.677333 490.496 236.885333 353.28 236.885333 172.71466699999996c0-199.168 182.613333-244.394667 391.338667-244.394667 91.136 0 175.616 9.045333 241.834667 36.010667-53.077333 51.029333-86.016 123.050667-86.016 202.752z m-36.010667-36.181334c-4.778667-3.413333-10.752-4.949333-18.090667-4.949333h-76.629333v-22.016c0-6.656-2.730667-12.970667-8.192-19.114667-5.461333-6.144-12.629333-9.045333-21.333333-8.192-8.704 0-16.213333 2.048-22.016 5.973334-5.802667 3.925333-9.045333 11.093333-9.728 21.333333v22.016h-74.410667c-7.338667 0-13.312 2.048-18.090667 5.973333s-6.826667 9.045333-5.973333 14.848c0 6.656 2.389333 11.946667 7.168 16.042667 4.778667 3.925333 10.410667 5.973333 16.896 5.973333h74.410667v38.229334h-74.410667c-7.338667 0-13.141333 2.218667-17.578667 6.656-4.437333 4.437333-6.656 9.557333-6.656 15.36 0 5.802667 2.389333 11.093333 7.168 16.384 4.778667 4.949333 10.410667 7.509333 16.896 7.509333h74.581334l1.024 22.869333c-13.141333 13.141333-25.088 25.6-36.181334 37.376-9.557333 10.410667-18.432 19.797333-26.282666 28.501334l-16.384 15.36c-3.584 4.437333-6.826667 10.581333-9.728 18.090666-3.072 7.509333-1.365333 15.530667 4.437333 23.552 6.656 7.168 14.506667 9.216 24.064 5.973334 9.386667-3.242667 17.237333-7.338667 22.869333-12.629334 3.072-3.584 8.021333-9.045333 15.36-16.384l52.565334-52.565333c12.288 11.776 23.722667 22.357333 33.450666 31.402667 8.704 8.021333 17.578667 16.042667 26.282667 23.552 8.704 7.850667 15.018667 12.970667 18.602667 16.042666 6.656 5.802667 13.994667 8.704 22.016 8.704 8.021333 0 14.506667-3.242667 19.797333-9.728 9.386667-10.922667 5.802667-23.722667-10.922667-38.229333-4.437333-3.584-10.922667-9.898667-19.797333-19.114667-8.704-9.045333-17.578667-17.92-26.282667-26.794666-10.24-10.922667-21.504-22.186667-33.962666-33.962667V254.29333299999996h71.168c10.410667 0 17.749333-2.389333 22.528-7.168 4.778667-4.778667 7.168-10.24 7.168-16.042666 0-6.656-2.218667-12.117333-6.656-16.896-4.437333-4.778667-11.776-6.826667-22.016-5.973334l-71.168-1.024-1.024-37.376h69.973333c20.48 0 30.72-7.509333 30.72-22.869333 1.024-7.509333-0.853333-12.8-5.632-16.042667zM1010.346667 214.698667h112.981333v-34.986667H1010.346667zM1066.496 392.533333c-124.586667 0-225.450667-100.864-225.450667-225.450666s100.864-225.450667 225.450667-225.450667S1291.946667 42.49599999999998 1291.946667 167.08266700000001 1191.082667 392.533333 1066.496 392.533333z m-92.501333-146.773333h42.837333c-5.290667 12.629333-14.848 27.989333-24.064 40.277333l28.842667 13.482667c11.776-13.653333 24.064-32.426667 28.501333-46.08l-15.872-7.509333h51.2c9.728 16.554667 19.797333 37.717333 25.429333 54.613333l34.645334-14.336c-7.509333-13.653333-15.872-27.648-24.064-40.277333h39.765333v-97.28h-88.917333c16.213333-11.264 32.938667-26.282667 41.984-37.205334l-24.405334-21.333333c-9.557333 13.141333-29.354667 31.402667-45.909333 43.008l18.944 15.36h-89.258667v97.28z m-6.997334-192.512l-31.061333 13.653333c10.581333 14.336 19.285333 39.765333 23.210667 62.122667l31.573333-5.802667c-3.413333-24.576-11.776-52.053333-23.722667-69.973333z m140.629334-11.946667h-54.613334c-41.130667 0-51.712 9.557333-51.712 39.936v51.712h35.498667v-51.2c0-8.874667 3.072-10.410667 19.626667-10.410666h48.128c12.8 0 15.36 3.584 17.066666 25.088 7.338667-5.290667 21.845333-10.410667 31.402667-12.288-4.266667-34.133333-14.165333-42.837333-45.397333-42.837334z m63.658666 17.408c-4.949333 17.92-20.992 44.202667-36.864 63.829334l25.770667 14.848c16.213333-18.944 33.28-43.690667 39.082667-62.122667l-27.989334-16.554667z"  horiz-adv-x="1365" />

    
    <glyph glyph-name="total-purchase" unicode="&#58961;" d="M948.62336 121.24273777999997c-4.52266667-30.69383111-24.35982222-40.09528889-37.63313778-39.70161778H215.97639111c-14.88099555-0.35498667-31.62567111 10.97045333-36.09258666 44.67598222l-66.87175112 598.85340445h-57.91971555c-24.87864889 0-45.04462222 20.16711111-45.04462223 45.04689778 0 24.87864889 20.16597333 45.04689778 45.04462223 45.04689777h84.27292444c22.50865778 0 33.71690667-10.42090667 40.75747556-41.24103111l22.98311111-100.33493333h759.36426666c25.72743111 0 51.48444445-25.45436445 51.48444445-51.48444445l-65.3312-500.86115555zM639.85322667 353.65546667V609.23448889H487.10997333v-255.58129778h-103.63562666l180.00782222-182.01713778L743.49226667 353.65432889h-103.64017778zM280.32910222 55.80003554999996c28.43192889 0 51.48444445-23.04910222 51.48444445-51.48444444 0-28.43079111-23.05137778-51.48216889-51.48444445-51.48216889-28.43648 0-51.48330667 23.05024-51.48330667 51.48330667 0.00113778 28.43306667 23.04796445 51.48444445 51.48330667 51.48444444z m566.30613333 0c28.43306667 0 51.48444445-23.04910222 51.48444445-51.48444444 0-28.43079111-23.04910222-51.48216889-51.48444445-51.48216889s-51.48216889 23.05024-51.48216888 51.48330667c0 28.43306667 23.04682667 51.48444445 51.48330666 51.48444444z"  horiz-adv-x="1024" />

    
    <glyph glyph-name="today-customer" unicode="&#58963;" d="M585.386667 399.018667c127.829333 0 231.424 98.986667 231.424 221.013333S713.216 840.874667 585.386667 840.874667s-231.424-98.986667-231.424-221.013334S457.557333 399.018667 585.386667 399.018667zM706.389333 116.73599999999999c0 75.605333 30.378667 144.213333 79.530667 194.048-29.696 9.386667-61.44 14.506667-94.378667 14.506667h-192.853333c-165.034667 0-299.008-127.829333-299.008-285.354667v-18.432c0-64.341333 133.802667-64.512 299.008-64.512h192.853333c22.528 0 44.373333 0 65.365334 0.341333-31.914667 45.056-50.517333 100.010667-50.517334 159.402667zM982.869333 342.18666700000006c-124.586667 0-225.450667-100.864-225.450666-225.450667s100.864-225.450667 225.450666-225.450667S1208.32-7.850667000000044 1208.32 116.73599999999999s-100.864 225.450667-225.450667 225.450667z m17.92-355.669334l-34.474666 15.872c20.48 24.064 44.202667 53.76 63.146666 77.994667h-142.677333V114.34666700000002H996.693333c-12.288 12.629333-31.914667 28.501333-46.933333 39.936l21.504 20.992c17.578667-12.629333 42.837333-31.061333 54.784-43.349334L1008.810667 114.34666700000002h48.981333l5.802667 1.706666 26.282666-12.629333c-24.234667-34.986667-59.392-80.042667-89.088-116.906667z m88.064 137.898667c-34.645333 18.261333-73.898667 48.128-104.106666 79.701333-30.72-34.645333-69.12-62.293333-108.202667-82.773333-5.632 9.557333-15.872 22.357333-25.770667 31.061333 48.981333 20.992 98.645333 56.832 126.464 100.181334l33.28-15.36c-1.877333-2.730667-3.925333-5.632-5.802666-8.362667 27.477333-28.330667 72.192-57.344 110.250666-73.557333-8.704-7.509333-20.309333-21.674667-26.112-30.890667z"  horiz-adv-x="1365" />

    
    <glyph glyph-name="yesterday-customer" unicode="&#58965;" d="M585.386667 399.018667c127.829333 0 231.424 98.986667 231.424 221.013333S713.216 840.874667 585.386667 840.874667s-231.424-98.986667-231.424-221.013334S457.557333 399.018667 585.386667 399.018667zM706.389333 116.73599999999999c0 75.605333 30.378667 144.213333 79.530667 194.048-29.696 9.386667-61.44 14.506667-94.378667 14.506667h-192.853333c-165.034667 0-299.008-127.829333-299.008-285.354667v-18.432c0-64.341333 133.802667-64.512 299.008-64.512h192.853333c22.528 0 44.373333 0 65.365334 0.341333-31.914667 45.056-50.517333 100.010667-50.517334 159.402667zM893.610667 119.29600000000005h26.624v-51.2h-26.624zM893.610667 196.77866700000004h26.624v-48.64h-26.624zM982.869333 342.18666700000006c-124.586667 0-225.450667-100.864-225.450666-225.450667s100.864-225.450667 225.450666-225.450667S1208.32-7.850667000000044 1208.32 116.73599999999999s-100.864 225.450667-225.450667 225.450667z m130.901334-168.277334h-75.776V145.06666700000005h69.290666v-29.866667h-69.290666V83.626667h71.850666v-30.208h-71.850666V-11.946667000000048h-32.938667V174.08000000000004h-5.290667c-8.192-18.432-17.92-35.498667-28.16-48.64-3.925333 4.949333-12.288 13.994667-19.285333 20.650667v-107.349334h-58.368v-21.333333h-31.402667V226.47466699999995H952.32v-68.778667c16.725333 23.552 30.549333 57.856 38.058667 91.989333l32.768-7.338666c-2.730667-12.8-6.656-25.088-11.264-37.717334h102.058666v-30.72z"  horiz-adv-x="1365" />

    
    <glyph glyph-name="total-customers" unicode="&#58967;" d="M585.386667 399.018667c127.829333 0 231.424 98.986667 231.424 221.013333S713.216 840.874667 585.386667 840.874667s-231.424-98.986667-231.424-221.013334S457.557333 399.018667 585.386667 399.018667zM706.389333 116.73599999999999c0 75.605333 30.378667 144.213333 79.530667 194.048-29.696 9.386667-61.44 14.506667-94.378667 14.506667h-192.853333c-165.034667 0-299.008-127.829333-299.008-285.354667v-18.432c0-64.341333 133.802667-64.512 299.008-64.512h192.853333c22.528 0 44.373333 0 65.365334 0.341333-31.914667 45.056-50.517333 100.010667-50.517334 159.402667zM982.869333 342.18666700000006c-124.586667 0-225.450667-100.864-225.450666-225.450667s100.864-225.450667 225.450666-225.450667S1208.32-7.850667000000044 1208.32 116.73599999999999s-100.864 225.450667-225.450667 225.450667z m-92.501333-146.773334h42.837333c-5.290667 12.629333-14.848 27.989333-24.064 40.277334l28.842667 13.482666c11.776-13.653333 24.064-32.426667 28.501333-46.08l-15.872-7.509333h51.2c9.728 16.554667 19.797333 37.717333 25.429334 54.613333l34.645333-14.336c-7.509333-13.653333-15.872-27.648-24.064-40.277333h39.765333v-97.28h-88.917333c16.213333-11.264 32.938667-26.282667 41.984-37.205333l-24.405333-21.333334c-9.557333 13.141333-29.354667 31.402667-45.909334 43.008l18.944 15.36h-89.258666v97.28z m-6.997333-192.512l-31.061334 13.653334c10.581333 14.336 19.285333 39.765333 23.210667 62.122666l31.573333-5.802666c-3.413333-24.576-11.776-52.053333-23.722666-69.973334z m140.629333-11.946666h-54.613333c-41.130667 0-51.712 9.557333-51.712 39.936v51.712h35.498666v-51.2c0-8.874667 3.072-10.410667 19.626667-10.410667h48.128c12.8 0 15.36 3.584 17.066667 25.088 7.338667-5.290667 21.845333-10.410667 31.402666-12.288-4.266667-34.133333-14.165333-42.837333-45.397333-42.837333z m63.658667 17.408c-4.949333 17.92-20.992 44.202667-36.864 63.829333l25.770666 14.848c16.213333-18.944 33.28-43.690667 39.082667-62.122667l-27.989333-16.554666zM926.72 164.35199999999998h112.981333v-34.986667H926.72z"  horiz-adv-x="1365" />

    
    <glyph glyph-name="total-profit" unicode="&#58968;" d="M675.66607666 484.24475098c-141.72363281 0-256.56674195-114.86206055-256.56674194-256.55355835 0-141.68161011 114.87771607-256.54367065 256.56674194-256.54367065 141.67419434 0 256.53625488 114.86206055 256.53625488 256.54367065 0 141.69067383-114.86206055 256.55273438-256.53625488 256.55273437z m57.24975586-221.86340332c4.30114747-0.79101563 8.42102051-1.19476317 12.04733276-1.19476318h38.97399902c3.70788575 0 6.9543457-1.40075684 9.65615846-4.63073731 2.7355957-3.11462403 4.05395508-6.09741211 4.05395507-9.22027588v-28.01431275c0-5.57006836-3.92211914-8.14993286-11.40380859-8.14993285h-67.56591797c-2.98278809 0-5.83374023-0.79101563-8.61877442-2.45544434-2.70263673-1.45019531-3.90563965-3.88833618-3.90563964-6.88018798 0-3.25469971 0.06591797-6.36932373 0.46142578-9.86297608 0.39550781-3.52661133 0.54464722-6.50939942 0.54464722-8.68469239 0-4.6472168 4.02099609-6.30340576 11.51998901-4.6472168h66.49557495c7.63000489 0 11.40380859-3.50189209 11.40380859-10.58807373v-25.76568603c0-7.63000489-5.55358887-11.53646851-16.16638183-11.5364685h-14.89746094c-5.96557617 0-12.12890625-0.26367188-18.75366211-0.52734375-6.36108398-0.53558348-12.4584961-0.65917969-17.76489257-0.65917968h-10.31616211c-6.69149781 0-10.20080567-3.92376709-10.20080567-11.79107667V71.19204710999998c0-4.03747559-3.11462403-5.95733643-9.21203613-5.95733641h-36.70147705c-9.87121583 0-14.83236695 4.24429322-14.83236695 12.78149414 0 3.25387573 0.28015137 9.80529786 0.60974122 20.02258301 0.51086426 10.05166626 0.24719239 17.01425171-0.56030274 20.92895507 0 3.83972169-0.44494629 6.41876221-1.18652344 7.61352539-0.66000367 1.12060547-2.85095215 1.66360474-6.82250975 1.66360474h-68.68652345c-9.9206543 0-14.89746094 5.02624512-14.89746094 15.22705078 0 2.19177247-0.2142334 5.16714477-1.07116699 8.80828858-0.80749511 3.3782959-0.80749511 6.96258545 0 11.00006103 0.85693359 3.83972169 1.99401857 7.34902954 3.46069336 10.59631347 1.58203125 2.98278809 4.56481934 4.16931153 9.06454468 3.3782959H644.28912354c1.58203125 0 2.24121094 1.91986084 2.24121093 5.96557617V205.33758545c0 3.92294311-4.56481934 5.83374023-13.57910156 5.83374024h-66.36373901c-3.11462403 0-5.70190429 0.14007568-8.0090332 0.46966553-2.38952637 0.38562011-3.46069337 2.57739258-3.46069336 6.36108398v14.23663329c0 6.09823609-0.37902832 10.73721313-1.13708497 13.97543336-1.56555177 4.63897705-0.37902832 8.54461671 3.32885742 11.51916503 3.85620117 3.26293945 8.86596681 4.6472168 14.89746094 4.6472168 6.16333008-0.79101563 12.85400391-0.94015503 20.20220948-0.5355835 7.15209961 0.41198731 12.78808594 0.53558348 16.56188964 0.5355835h13.57992554c4.58129883 0 6.16333008 1.65618896 4.58129883 4.63897705-1.46667481 1.71386719-6.03149414 7.54760742-13.57910156 17.48474122-7.76184083 10.39855958-15.70495606 20.73944092-24.04357911 31.59942626-9.95361328 13.30718994-21.47360229 27.69378662-34.39352417 43.19110108-5.30639648 8.53637695-4.16931153 15.63079834 3.46069336 20.92895508 3.75732422 2.38128662 7.74536133 5.29815674 11.91467286 8.94012452 4.2352295 3.44421387 9.06372071 6.7565918 14.43603515 9.80529783 7.54760742 4.69665529 14.76480102 0.47790528 21.65405274-12.71310423 2.38952637-3.25469971 6.70632935-8.80828857 13.24951172-17.03155519 6.49291991-8.27270508 13.18359375-16.74316406 19.94100952-26.21887207 6.7565918-9.47653198 13.31460571-17.76489258 19.47793579-24.98291015 6.16333008-7.48168945 9.47570801-12.05557251 10.39855957-13.57992554 1.45019531-3.11462403 4.23605347-5.02624512 8.40454101-5.83374024 4.25088501-0.79101563 7.23449707 0.53558348 8.6846924 3.51837159 0.67565919 1.65618896 3.83972169 6.41876221 9.68994139 14.69970703 5.68542481 8.01727295 12.04568481 17.09664917 18.86819459 27.29827881 6.88842773 10.12664795 13.36486817 19.54467773 19.41284179 28.68255616 6.22924805 8.87420654 10.00305175 14.57611084 11.51916504 16.83380126 3.79110718 5.4876709 7.15209961 8.93188477 9.60754395 10.46447754 2.71911622 1.57379151 7.08618164 1.11236573 13.31542968-1.13790893 3.77380372-1.5152893 8.02551271-3.83972169 12.39257813-6.88018799 4.69665529-3.18878174 7.8112793-5.57748413 9.19555664-7.16033936 8.42102051-8.61877442 10.79406739-15.96862793 6.90490722-22.06604004-1.46667481-2.45544434-5.71838379-8.27270508-12.4741516-17.61657715-7.13562012-9.26971434-14.37011719-19.13269043-22.39562989-29.7454834-8.14086914-10.46447754-15.21057129-20.26977539-21.72079468-29.74548339-6.47561646-9.32739258-10.06896974-14.90570068-10.9753418-16.28997805-2.07312012-3.82818604-1.26480103-6.15097046 2.83776856-7.08206175zM407.00091552 805.87335205c-174.50051881 0-315.91104126-70.16143799-315.91104125-156.7199707 0-86.54122925 141.41052247-156.71008301 315.91186523-156.71008301 174.4519043 0 315.8772583 70.15319825 315.87725831 156.71090698S581.45281982 805.87417602 407.00091552 805.87417602z m99.55261231-353.64083862c-31.32751465-5.15808106-64.73144531-8.07495117-99.55261231-8.07495117-150.35888672 0-275.91531372 52.14935302-307.83691406 121.93176269-5.12512208-11.1895752-8.07412719-22.82409669-8.07412719-34.77996826 0-86.54122925 141.41052247-156.7265625 315.91186523-156.7265625 8.48693847 0 16.79260255 0.31228638 25.0982666 0.64270019 19.54467773 30.30331421 44.82339477 56.52218628 74.45269776 77.00701905z m207.65725709 43.17626952c5.47119141 11.51916505 8.63525391 23.50717163 8.6352539 35.8758545 0 11.97976685-2.93334961 23.58956909-8.07495117 34.77832031-11.33789063-24.80987549-34.73712158-47.34475708-66.70733643-66.14868164 4.51538086 0.22247315 8.91540528 0.70037842 13.46374511 0.70037842 18.02609253 0.00164795 35.64349365-1.86053467 52.68328859-5.20587159zM407.00091552 341.03796385c-150.35806274 0-275.91448974 52.14935302-307.8352661 121.94000246-5.12512208-11.19781494-8.07495117-22.82327271-8.07495118-34.77996826 0-84.08660887 133.59924317-152.50863648 301.19567871-156.34753418 4.00451662 24.35668945 11.15661622 47.63397217 21.15966797 69.34570313-2.14480591-0.03460693-4.28713989-0.15820313-6.44512939-0.15820313z m-17.96264649-102.71667479c-142.26745606 3.96331787-259.22158813 54.56359865-289.87261961 121.54449463-5.12512208-11.20605469-8.07495117-22.82409669-8.07495118-34.78820801 0-84.55545044 135.11535645-153.29223633 304.06146241-156.40686035-4.20144653 19.03381348-6.57531739 38.75234985-6.57531739 59.04602051 0 3.55957031 0.31311036 7.05322267 0.46142579 10.60455322z m-289.87426757 18.41500855c-5.12512208-11.19781494-8.07412719-22.81503296-8.07412719-34.77172852 0-86.54040528 141.41052247-156.72821045 315.91186523-156.72821046 11.74905396 0 23.28552247 0.37078857 34.68933106 0.99700928-15.26000977 20.78063965-27.50427246 43.91043091-36.45263673 68.62060548-149.56787109 0.41281129-274.28466797 52.38006592-306.07360839 121.88232422z m369.98107911-221.87823487c-20.12145996-2.0022583-40.83618164-3.1640625-62.14416505-3.16406251-150.35888672 0-275.91531372 52.14935302-307.83691406 121.94082643-5.12512208-11.19946289-8.07412719-22.83233643-8.07412719-34.78903198 0-86.55029297 141.41052247-156.7199707 315.91186523-156.7199707 51.43249511 0 99.84924317 6.22183227 142.77749634 17.04885863a271.55895996 271.55895996 0 0 0-80.63415527 55.68338013z"  horiz-adv-x="1024" />

    
    <glyph glyph-name="qrcode" unicode="&#58969;" d="M78.848-49.152000000000044h315.136H78.848z m78.592 236.288h157.44v-157.44H157.44v157.44z m393.984 157.44h78.848V29.440000000000055h-78.848V344.576zM0-128h472.576V344.576H0V-128z m78.848 78.848v314.88h315.136v-315.136H78.848v0.256z m472.576 0h157.44V-128h-157.44v78.848z m393.728 236.288H1024v-78.848h-78.848v78.848z m-157.44 157.44H1024v-78.848H787.712v78.848zM708.864 738.56h157.44v-157.44h-157.44V738.56zM1024 896H551.424v-472.576H1024V896z m-78.848-393.728h-314.88V817.152h315.136v-314.88zM0 423.424h472.576V896H0v-472.576zM78.848 817.152h315.136v-315.136H78.848V817.152z m866.304-866.304h-157.44V-128H1024V29.440000000000055h-78.848v-78.592zM708.864 187.13599999999997v-157.44h157.44v78.848h-78.848v78.848h-78.592zM157.44 738.56h157.44v-157.44H157.44V738.56z"  horiz-adv-x="1024" />

    
    <glyph glyph-name="print-qrcode" unicode="&#58981;" d="M313.37568197 715.22653h60.257823V775.4843539999999H313.37568197v-60.257824zM192.86003597 594.8385490000001h301.161451V896H192.86003597v-301.161451zM253.11785897 835.742177h180.77347V655.096372H253.11785897V835.742177zM1096.47205397 775.4843539999999h-60.257823v-60.257824h60.257823V775.4843539999999z m120.387982 120.515646H915.69858497v-301.161451h301.161451V896zM1156.60221297 655.096372H975.95640797V835.742177H1156.72987697V655.096372zM313.37568197-7.612018000000035h60.257823v60.257823H313.37568197v-60.257823zM192.86003597-128h301.161451V173.16145100000006H192.86003597v-301.161451z m60.257823 240.903628h180.77347V-67.86984199999995H253.11785897V112.90362800000003zM674.79495697 655.096372h60.257823V775.4843539999999h-60.257823v60.257823h120.515646V896H614.53713297v-60.257823h-60.257823v-60.257823h60.257823v-60.257824h60.257824v-60.130158z m60.257823-60.257823h60.257823V655.096372h-60.257823v-60.257823z m60.130158 120.387981v-60.257823H855.44076097V715.22653h-60.257823zM855.44076097 835.742177h-60.257823v-60.257823H855.44076097v60.257823z m120.515647-421.677098h60.257823v60.257823h-60.257823v-60.257823z m-301.161451 120.515647V655.096372h-60.257824v-120.515646h-60.257823v-60.257824h180.77347v60.257824h-60.257823z m120.387981-60.257824H855.44076097v120.515647h-60.257823v-120.515647z m120.515647 0h60.257823v60.257824h-60.257823v-60.257824z m120.515646 60.257824v-60.257824H1156.72987697v60.257824h-120.515646z m-120.515646-120.515647v60.257823H855.44076097v-60.257823h60.257824z m60.257823 0h-60.257823v-60.257823h60.257823v60.257823z m240.903628 60.257823h-60.257823v-60.257823h60.257823v60.257823z m-60.257823-120.515646v-60.257823h60.257823v60.257823h-60.257823z m-60.130159-60.130158V233.41927399999997H1156.72987697v60.257824h-60.257823z m0-120.515647v-60.257823H1156.72987697v-60.257823h60.257824v120.515646h-120.515647z m0-60.257823h-120.515646v-60.257823h120.515646v60.257823zM494.02148697 353.80725600000005v60.257823h-60.257823v-60.257823h60.257823zM855.44076097-7.612018000000035h60.257824v60.257823H855.44076097v-60.257823z m60.257824-60.130159h-120.515647v-60.257823h180.77347v60.257823h60.257823v-60.257823h60.257823v60.257823H1156.72987697v-60.257823h60.257824v120.515646h-301.289116v-60.257823z m-180.645805-60.257823v60.257823h-60.257823v-60.257823h60.257823z m-120.515647 60.257823h-60.257823v-60.257823h60.257823v60.257823z m0 301.161451h-60.257823v-60.257823h120.515647V353.80725600000005h-60.257824v60.257823h-60.257823v-60.257823h-60.257823v-60.257823h120.515646V233.41927399999997z m180.645805-241.031292h-60.257823V-67.86984199999995h60.257823v60.257824zM915.69858497 233.41927399999997H855.44076097v-120.515646h120.515647v60.257823h-60.257823V233.41927399999997z m60.257823-60.257823h120.515646V233.41927399999997h-60.257823v60.257824h60.257823v120.515646h-60.257823v-60.257823h-60.257823v-180.77347z m-180.77347-120.515646V233.41927399999997h-60.257823v-120.515646H554.27930997v-120.515646h60.257823v60.257823h60.257824v-60.257823h60.257823v60.257823h60.130158z m120.515647 301.161451H735.05277997v-60.257823h60.257823V233.41927399999997H855.44076097v60.257824h60.257824v60.130158z m-120.515647 120.515646h-60.257823v-60.257823h60.257823v60.257823z m-120.387981-60.257823v-60.257823h60.257823v60.257823h-60.257823z m-120.515647 0v60.257823h-60.257823v-60.257823h60.257823z m-120.515646 60.257823h60.257823v60.257824h-60.257823v-60.257824z m-120.387982 60.257824v-120.515647h60.257823v120.515647H313.37568197z m120.387982-240.903628v60.257823H313.37568197v60.257823H253.11785897v60.257823H192.86003597v-120.515646h60.257823v-60.257823h60.257823V233.41927399999997h60.257823v60.257824h60.130159z m60.257823 0h-60.257823V233.41927399999997h60.257823v60.257824zM253.11785897 233.41927399999997v60.257824H192.86003597V233.41927399999997h60.257823zM192.86003597 233.41927399999997"  horiz-adv-x="1369" />

    


  </font>
</defs>
</svg>
